<?xml version="1.0" encoding="UTF-8"?>
<svg width="2038px" height="2500px" viewBox="0 0 2038 2500" version="1.1" xmlns="http://www.w3.org/2000/svg" xmlns:xlink="http://www.w3.org/1999/xlink">
    <!-- Generator: Sketch 52 (66869) - http://www.bohemiancoding.com/sketch -->
    <title>apple</title>
    <desc>Created with Sketch.</desc>
    <g id="Page-1" stroke="none" stroke-width="1" fill="none" fill-rule="evenodd">
        <g id="apple" fill="#FFFFFF" fill-rule="nonzero">
            <path d="M1124.47185,217.547378 C1288.72581,1.05543722 1517.07807,0 1517.07807,0 C1517.07807,0 1551.04508,203.539221 1387.8671,399.612353 C1213.63371,608.974958 1015.59344,574.71637 1015.59344,574.71637 C1015.59344,574.71637 978.406734,410.059949 1124.47185,217.547378 Z M1036.48453,717.29485 C1120.98522,717.29485 1277.81415,601.139261 1481.94885,601.139261 C1833.33142,601.139261 1971.56495,851.171108 1971.56495,851.171108 C1971.56495,851.171108 1701.20464,989.40053 1701.20464,1324.8078 C1701.20464,1703.17589 2038,1833.57372 2038,1833.57372 C2038,1833.57372 1802.56768,2496.22813 1484.56486,2496.22813 C1338.50795,2496.22813 1224.95605,2397.80142 1071.06345,2397.80142 C914.234508,2397.80142 758.604746,2499.89958 657.241704,2499.89958 C366.856838,2499.90779 0,1871.31073 0,1366.02324 C0,868.891775 310.520309,608.104325 601.775809,608.104325 C791.117962,608.104325 938.049608,717.29485 1036.48453,717.29485 Z" id="Shape"></path>
        </g>
    </g>
</svg>