<?xml version="1.0" encoding="UTF-8"?>
<svg width="2500px" height="955px" viewBox="0 0 2500 955" version="1.1" xmlns="http://www.w3.org/2000/svg" xmlns:xlink="http://www.w3.org/1999/xlink">
    <!-- Generator: Sketch 52 (66869) - http://www.bohemiancoding.com/sketch -->
    <title>technicolor</title>
    <desc>Created with Sketch.</desc>
    <g id="Page-1" stroke="none" stroke-width="1" fill="none" fill-rule="evenodd">
        <g id="technicolor">
            <path d="M811.7,0 L811.7,375.1 L851.8,375.1 L851.8,224.5 C867.6,206.6 894.8,189.8 918.8,189.8 C949.4,189.8 963.8,206.9 963.8,240.2 L963.8,375.2 L1003.9,375.2 L1003.9,229.4 C1003.9,186.5 978.6,156 929.1,156 C901,156 874.3,169.1 851.8,192.2 L851.8,5.68434189e-14 L811.7,0 Z M1889.6,0 L1889.6,375.1 L1930.2,375.1 L1930.2,0 L1889.6,0 Z M1337,60.2 C1322.7,60.2 1311.6,71.8 1311.6,86.1 C1311.6,99.9 1322.7,111.5 1337,111.5 C1351.3,111.5 1362.4,99.9 1362.4,86.1 C1362.4,71.7 1351.2,60.2 1337,60.2 Z M243,90 L203.9,119.3 L203.9,156.5 L169.7,189.8 L169.7,195.2 L203.9,195.2 L203.9,311.6 C203.9,358.7 224.8,379.1 263.6,379.1 C274.8,379.1 286.1,377.7 298.8,375.2 L294.9,342.4 C287.8,343.4 282.9,343.9 276.8,343.9 C254.4,343.9 243.1,336 243.1,316 L243.1,195.1 L306.7,195.1 L306.7,160.4 L243,160.4 L243,90 Z M444,156 C377.6,156 339.8,209.6 339.8,268.5 C339.8,330.4 378.6,379 455.7,379 C475.6,379 501.1,373.9 525.6,366.8 L518.3,332.6 C498.4,339.3 477,344.3 459.1,344.3 C404,344.3 383.5,316.6 378.9,279.7 L536.4,279.7 C537.9,272.1 537.9,266.3 537.9,259.2 C537.9,200.9 504.7,156 444,156 Z M691.9,156 C624,156 576,206.6 576,268.5 C576,330.4 624,379 691.9,379 C718.4,379 745.9,369.3 765.3,357 L751.6,326.2 C734.2,336.5 712.9,344.3 691,344.3 C651.7,344.3 615.2,315 615.2,268.5 C615.2,219.4 646.7,190.7 688.6,190.7 C710.5,190.7 731.4,198.6 748.8,208.8 L765.4,178 C745.9,165.7 718.5,156 691.9,156 Z M1176.6,156 C1148,156 1119.9,170.6 1097.4,193.2 L1097.4,160.4 L1059.3,160.4 L1059.3,375.1 L1099.4,375.1 L1099.4,224.5 C1115.7,206.6 1140.9,189.8 1164.9,189.8 C1196,189.8 1208.4,206.9 1208.4,240.2 L1208.4,375.2 L1248.5,375.2 L1248.5,229.4 C1248.5,186.4 1226.1,156 1176.6,156 Z M1524.3,156 C1456.4,156 1408.4,206.5 1408.4,268.5 C1408.4,330.4 1456.4,379 1524.3,379 C1550.8,379 1577.8,369.3 1597.2,357 L1583.5,326.2 C1566.1,336.5 1545.3,344.3 1523.3,344.3 C1484,344.3 1447,315 1447,268.5 C1447,219.4 1479,190.7 1520.9,190.7 C1542.9,190.7 1563.7,198.6 1581.1,208.8 L1597.2,178 C1577.8,165.7 1550.8,156 1524.3,156 Z M1735.6,156 C1670.3,156 1627,206.1 1627,267.5 C1627,328.9 1670.2,379 1735.6,379 C1800.9,379 1843.7,328.9 1843.7,267.5 C1843.7,206.1 1800.9,156 1735.6,156 Z M2084.8,156 C2019.5,156 1975.7,206.1 1975.7,267.5 C1975.7,328.9 2019.4,379 2084.8,379 C2150.1,379 2192.9,328.9 2192.9,267.5 C2192.9,206.1 2150.1,156 2084.8,156 Z M2352.3,156 C2324.2,156 2295.9,169.5 2275.5,196.1 L2275.5,159.9 L2237.4,159.9 L2237.4,375.1 L2277.5,375.1 L2277.5,228.4 C2292.3,206.9 2321.2,195.6 2352.3,195.6 L2352.3,156 Z M1316.4,159.9 L1316.4,375.1 L1356.5,375.1 L1356.5,159.9 L1316.4,159.9 Z M1735.6,188.8 C1776.5,188.8 1804.1,220.4 1804.1,267.5 C1804.1,314.5 1776.5,346.2 1735.6,346.2 C1694.2,346.2 1666.6,314.5 1666.6,267.5 C1666.6,220.4 1694.2,188.8 1735.6,188.8 Z M2084.8,188.8 C2125.6,188.8 2153.3,220.4 2153.3,267.5 C2153.3,314.5 2125.6,346.2 2084.8,346.2 C2043.4,346.2 2015.8,314.5 2015.8,267.5 C2015.8,220.4 2043.4,188.8 2084.8,188.8 Z M441.5,189.8 C479.3,189.8 498.1,216.2 500.7,249.5 L380.4,249.5 C385,212.6 406.8,189.8 441.5,189.8 Z" id="Shape" fill="#FFFFFF" fill-rule="nonzero"></path>
            <polygon id="Path" fill="#00B2E7" points="178.6 597.7 0 597.7 0 846.6 178.6 846.6"></polygon>
            <polygon id="Path" fill="#0089CC" points="357.1 954.8 357.1 597.7 178.6 597.7 178.6 954.8"></polygon>
            <polygon id="Path" fill="#074C97" points="535.7 815.7 535.7 597.7 357.1 597.7 357.1 815.7"></polygon>
            <polygon id="Path" fill="#673584" points="714.3 862 714.3 597.7 535.7 597.7 535.7 862"></polygon>
            <polygon id="Path" fill="#952C6E" points="892.9 944.4 892.9 597.7 714.3 597.7 714.3 944.4"></polygon>
            <polygon id="Path" fill="#BF2457" points="1071.4 908.4 1071.4 597.7 892.9 597.7 892.9 908.4"></polygon>
            <polygon id="Path" fill="#E31D35" points="1250 841.4 1250 597.7 1071.4 597.7 1071.4 841.4"></polygon>
            <polygon id="Path" fill="#E96328" points="1428.6 913.5 1428.6 597.7 1250 597.7 1250 913.5"></polygon>
            <polygon id="Path" fill="#FDC500" points="1607.1 826 1607.1 597.7 1428.5 597.7 1428.5 826"></polygon>
            <polygon id="Path" fill="#FFE500" points="1785.7 882.6 1785.7 597.7 1607.1 597.7 1607.1 882.6"></polygon>
            <polygon id="Path" fill="#D5D700" points="1964.3 800.2 1964.3 597.7 1785.7 597.7 1785.7 800.2"></polygon>
            <polygon id="Path" fill="#99C027" points="2142.8 597.7 1964.2 597.7 1964.2 764.2 2142.8 764.2"></polygon>
            <polygon id="Path" fill="#009341" points="2321.4 851.7 2321.4 597.7 2142.8 597.7 2142.8 851.7"></polygon>
            <polygon id="Path" fill="#007F3F" points="2500 918.7 2500 597.7 2321.4 597.7 2321.4 918.7"></polygon>
            <path d="M285.4,508.4 L125,508.4 C125,508.4 75.6,542.9 -2.84217094e-14,597.7 L178.6,597.7 C244.2,542.3 285.4,508.4 285.4,508.4" id="Path" fill="#ABDDF5"></path>
            <path d="M445.9,508.4 L285.4,508.4 C285.4,508.4 244.1,542.3 178.5,597.7 L357.1,597.7 C419.2,534.9 445.9,508.4 445.9,508.4" id="Path" fill="#93C4E6"></path>
            <path d="M606.4,508.4 L445.9,508.4 C445.9,508.4 419.2,534.9 357.1,597.7 L535.7,597.7 C579.1,542.8 606.4,508.4 606.4,508.4" id="Path" fill="#989FCB"></path>
            <path d="M766.8,508.4 L606.4,508.4 C589.5,529.7 591.4,527.4 535.8,597.7 L714.4,597.7 C747.9,541 766.8,508.4 766.8,508.4" id="Path" fill="#B297C2"></path>
            <path d="M927.3,508.4 L766.8,508.4 C766.8,508.4 747.9,541 714.3,597.7 L892.9,597.7 C915.1,541.6 927.3,508.4 927.3,508.4" id="Path" fill="#CA9BB5"></path>
            <path d="M1087.7,508.4 L927.3,508.4 C927.3,508.4 915.1,541.5 892.9,597.7 L1071.5,597.7 C1082.7,541.2 1087.7,508.4 1087.7,508.4" id="Path" fill="#DFA0A7"></path>
            <path d="M1250,508.4 L1087.7,508.4 C1087.7,508.4 1082.6,541.2 1071.4,597.7 L1250,597.7 C1250.1,544.2 1250,510.6 1250,508.5 L1250,508.4 Z" id="Path" fill="#F3A38C"></path>
            <path d="M1408.7,508.4 L1250,508.4 L1250,508.5 C1250,510.6 1250.1,544.2 1250,597.7 L1428.5,597.7 C1417.7,541.8 1408.7,508.4 1408.7,508.4" id="Path" fill="#F7BA8E"></path>
            <path d="M1569.1,508.4 L1408.7,508.4 C1408.7,508.4 1417.7,541.8 1428.6,597.7 L1607.2,597.7 C1585.6,542.7 1569.1,508.4 1569.1,508.4" id="Path" fill="#FFE39D"></path>
            <path d="M1729.5,508.4 L1569.1,508.4 C1569.1,508.4 1585.6,542.7 1607.1,597.7 L1785.7,597.7 C1752.2,540.9 1729.5,508.4 1729.5,508.4" id="Path" fill="#FFF2A3"></path>
            <path d="M1891.8,508.4 L1729.5,508.4 C1729.5,508.4 1752.2,540.9 1785.7,597.7 L1964.3,597.7 C1911.3,530.5 1891.8,508.4 1891.8,508.4" id="Path" fill="#ECECA3"></path>
            <path d="M2052.3,508.4 L1891.8,508.4 C1891.8,508.4 1911.3,530.5 1964.2,597.7 L2142.8,597.7 C2089.9,543.9 2052.3,508.4 2052.3,508.4" id="Path" fill="#D3E2A2"></path>
            <path d="M2212.7,508.4 L2052.2,508.4 C2052.2,508.4 2089.8,543.9 2142.8,597.7 L2321.4,597.7 C2255.9,542.3 2212.7,508.4 2212.7,508.4" id="Path" fill="#9ACB9F"></path>
            <path d="M2375,508.4 L2212.7,508.4 L2321.4,597.7 L2500,597.7 C2422.6,541.7 2375,508.4 2375,508.4" id="Path" fill="#9BBD99"></path>
        </g>
    </g>
</svg>