<?xml version="1.0" encoding="UTF-8"?>
<svg width="464px" height="276px" viewBox="0 0 464 276" version="1.1" xmlns="http://www.w3.org/2000/svg" xmlns:xlink="http://www.w3.org/1999/xlink">
    <!-- Generator: Sketch 52 (66869) - http://www.bohemiancoding.com/sketch -->
    <title>vanceAndHines</title>
    <desc>Created with Sketch.</desc>
    <g id="Page-1" stroke="none" stroke-width="1" fill="none" fill-rule="evenodd">
        <g id="vanceAndHines" transform="translate(0.000000, -1.000000)">
            <path d="M146.4,3.8 C99.2,13.1 62.8,24.5 31.3,39.9 C19.8,45.5 18.9,46.1 18,50.6 C16.7,57.4 19.3,67.2 24.6,76.3 C28.3,82.5 30.2,84.3 32.9,84.6 C38.1,85.1 42.9,87.4 42.9,89.4 C42.9,90.6 39.6,91 29.3,91 L15.7,91 L15.7,105.4 C15.7,113.4 16.1,126.6 16.7,134.7 C17.4,148.1 17.8,149.6 20.3,149.6 C21.7,149.6 22.9,150.2 22.9,150.8 C22.9,151.5 17.7,162.5 11.5,175.3 C5.3,188.1 0,199.1 0,199.7 C0,200.3 28.8,200.8 69.6,200.8 L139,200.8 L140.6,204.6 C141.5,206.6 143.8,211.2 145.9,214.6 C149.3,220.5 150.6,221.4 163.2,227 L176.8,233.1 L184.5,245.9 C194.7,262.7 203.1,270 216.7,274 C243.5,281.6 268.4,270.3 282.7,244.4 L288.9,233.2 L301.9,227.8 L314.9,222.3 L320.2,211.6 L325.6,200.7 L361.4,201.1 C399.5,201.5 404.5,201 413.8,195.6 C421.1,191.3 425.1,185.6 425.1,178.9 C425.1,174.5 429.2,164.6 444.4,132.6 C455,110.3 463.7,91.7 463.7,91.6 C463.7,91.4 454,91.1 442.1,91.1 C422.9,91.1 420.6,90.9 421.1,89.1 C421.5,86.9 423.5,85.8 430.1,84.1 C437.8,82.1 447.6,61.7 445.6,51.3 C445,48.1 443.2,46.4 437.2,42.9 C408.7,26.8 366.1,12.9 320,4.5 C304.1,1.6 298,1 295.7,1.8 C291.1,3.6 282.8,12.8 279.8,19.1 C279,21.1 278.1,23 277.1,25 C277,25.1 273.2,23.9 268.8,22.2 C245,12.9 213.7,13.9 190.9,24.6 L185,27.4 L184.1,23.4 C183,18.2 176.8,8.4 172.1,4.1 C167.6,-7.77156117e-16 165.6,-7.77156117e-16 146.4,3.8 Z M169.3,10.5 C173.6,14.8 179.2,27 178.6,30.4 C178.3,32.4 165.9,36.5 107.3,54.5 C68.4,66.5 35.3,76.3 34,76.3 C30.6,76.3 25.8,68.9 24,60.6 C21.7,50.5 23.4,48.8 43.2,40.4 C57.7,34.2 59.4,33.7 61,35.5 C63.6,38.5 73,35.5 73,31.7 C73,29.5 75,28.4 84.9,25.4 C91.3,23.2 100.1,20.6 104.4,19.5 C111.6,17.7 112.4,17.7 114,19.5 C115.4,21.3 116.1,21.3 120.7,19.6 C123.4,18.6 126,16.9 126.3,15.7 C126.6,14.2 130.6,12.8 141.8,10.3 C161.9,6 164.9,6 169.3,10.5 Z M316.8,9.3 C324,10.6 331.4,12 333.3,12.3 C335,12.7 336.5,13.8 336.5,14.9 C336.5,15.9 338.8,17.6 341.7,18.6 C346.4,20.3 347,20.3 348.7,18.4 C350.3,16.4 351.3,16.6 363.9,20.2 C386.2,26.8 391.1,28.9 390.2,31.3 C389.6,32.8 390.9,33.9 394.9,35.2 C399.9,36.9 400.6,36.9 401.8,35.2 C403.1,33.6 405.9,34.6 421.1,41.2 L438.8,49 L438.7,57 C438.7,65.2 435.3,73.2 430.8,75.5 C429.5,76.2 406.2,69.6 357.2,54.8 C285.9,33.1 285.6,33 285.2,29.4 C284.5,24.3 287.1,17.8 292.1,12 C297,6 298,5.9 316.8,9.3 Z M256.6,24.3 C275.6,29.5 290.8,40.4 300.3,55.5 C307.2,66.4 310.6,75.9 310.6,83.9 L310.6,91 L299.3,91 L298.4,85.1 C296.7,74.7 293.1,65.5 288.1,58.6 C285.2,54.8 282.8,52 282.4,52.4 C282,52.8 283,54.6 284.7,56.7 C290.7,63.9 295,73.6 295.9,82.4 L296.8,90.9 L258.2,90.9 L257.2,85.7 C256.6,82.9 254.6,78.6 252.8,76.2 C249.7,72.1 241.8,67.8 237.5,67.8 C236.5,67.8 238.2,68.9 241.5,70.1 C244.6,71.3 248.7,73.9 250.4,75.7 C253.8,79.5 257,87.9 255.7,89.7 C255.1,90.4 245,90.9 231.1,90.9 L207.5,90.9 L208.5,86.3 C210.5,76.5 218.4,70 229.7,68.3 C233,67.8 235,67.2 234,67 C230.8,66 220.8,69.1 216.2,72.4 C211,76.2 206.5,83.9 206.3,88.9 L206.3,92.3 L193.1,92.3 C185.8,92.3 177.4,91.9 174.5,91.6 C169.5,90.9 169.1,90.5 169.1,87 C169.1,81 173.1,69.4 177.4,62.6 C189.6,43.5 218.3,31.4 243.4,35 C248.8,35.7 257.1,37.9 262,39.9 C266.9,41.9 270.7,43.2 270.7,42.8 C270.7,41.3 251.7,34.8 243.6,33.5 C224.3,30.5 200.8,37 186.1,49.6 C174.3,59.3 166,74.8 166,86.4 L166,91 L152.8,91 L153.7,85.1 C158.9,53.1 180,30.7 212,23.4 C224.4,20.5 244.2,21 256.6,24.3 Z M160.3,45.8 C160.3,46.9 49.9,82.5 46.4,82.5 C38.5,82.5 51.7,77.6 100.4,62.3 C130.6,52.8 156.5,45 157.9,44.9 C159.2,44.7 160.3,45.1 160.3,45.8 Z M362.1,61.7 C391.6,70.6 416.6,78.4 417.6,79.1 C419.7,80.6 419.9,82.4 417.7,82.4 C416,82.4 304.5,48.5 303.6,47.6 C302.5,46.6 305,44.4 306.8,44.9 C307.7,45.3 332.7,52.8 362.1,61.7 Z M152.4,59.1 C151.5,59.7 129.2,66.9 102.6,75.1 C59.4,88.2 48.2,90.9 52.5,87.2 C55.2,84.9 151,56 152.4,57 C153.3,57.7 153.3,58.4 152.4,59.1 Z M363.3,71.6 C407.8,85.1 417.1,88.6 409.8,88.6 C404.8,88.6 310.6,59.9 310.6,58.4 C310.6,57.7 311.5,56.9 312.5,56.9 C313.3,56.9 336.2,63.4 363.3,71.6 Z M147.7,68.4 C147.7,70 80.6,90.8 75.3,90.8 C73,91 71.6,90.6 72,90.3 C73.4,89.1 145.1,66.8 146.4,67 C147.1,67.1 147.7,67.8 147.7,68.4 Z M356.6,79.1 C382.8,86.8 394.5,90.8 393.5,91.7 C391.5,93.4 316.3,71.7 316.3,69.5 C316.3,68.6 316.7,67.9 317.3,67.9 C317.8,67.8 335.5,73 356.6,79.1 Z M364.3,96.5 C368.3,97.7 371.6,98.8 371.9,98.9 C372.2,99.1 370.5,102.6 368,106.6 L363.6,114 L358.3,112.7 C349.7,110.7 331.5,111.8 327,114.9 C320.4,119 319.4,121.2 323.4,124 C326,125.8 329,126.3 337.7,126.3 C343.7,126.3 351,125.8 354,125.2 C356.9,124.6 359.3,124.2 359.3,124.5 C359.3,125.7 351.4,139.3 350.3,139.9 C347.4,141.6 326.5,144 315.7,144 C302,144 292.4,141.2 286.9,135.7 C283.6,132.4 283.2,131.1 283.8,124.8 C284.5,116 289.7,109.3 300.7,102.7 C313.2,95.4 322.9,93.2 341.5,93.8 C351.4,94.2 359.7,95.2 364.3,96.5 Z M60.3,103.4 C60.3,107.7 60.7,113.2 61.3,115.8 L62.3,120.4 L73.7,108.1 L85.2,95.8 L102.8,95.8 C112.5,95.8 120.3,96.3 120,96.9 C119.9,97.4 109.6,108.1 97.4,120.6 L75.2,143.3 L49.2,143.3 L23.3,143.4 L22.4,127.8 C21.8,119.3 21.4,108.7 21.4,104 L21.4,95.8 L60,95.8 L60.3,103.4 Z M183.9,108.9 C185.9,133.9 185.5,133.8 195.2,113.5 L203.8,95.7 L222.4,96.1 L241,96.5 L245,105 L248.9,113.5 L253.5,104.6 L258.1,95.8 L274.4,95.8 C290.7,95.8 290.7,95.8 289.7,98.5 C289.1,100.1 285,109.5 280.4,119.6 L272.2,137.9 L254.2,138.3 C238,138.5 236,138.9 234.7,141 C233.8,142.3 233.6,144.8 234.1,146.4 C234.7,148.6 234.2,149.7 232.1,150.7 C226.5,153.3 213.2,151.9 213.2,148.9 C213.2,147.3 221.4,144.8 226.5,144.8 C227.8,144.8 228.9,144.3 228.9,143.7 C228.9,143.1 229.3,141.7 229.8,140.7 C230.5,139.2 229.8,138.7 227.1,138.7 C222.2,138.7 220.7,136.4 224.1,134.2 C226.8,132.5 240.3,132.6 249,134.4 C252.2,135 252.9,134.5 255.2,130 C256.9,126.3 257.2,124.4 256.2,123.5 C253.3,121.1 219.4,121.9 210,124.5 C195.8,128.4 191.1,134.6 197.8,140.7 L200.8,143.5 L146,143.5 L146,140.5 C146,137.6 145.7,137.5 136,137.5 C126.8,137.5 125.6,137.9 122.7,140.5 C119.6,143.5 119.3,143.7 102.1,143.3 L84.6,142.9 L107.5,119.4 L130.5,96 L182.9,96 L183.9,108.9 Z M449.5,102 C447.9,105.4 446.6,108.5 446.6,108.7 C446.6,109.1 439.3,109.3 430.3,109.3 C417.1,109.3 413.8,109.7 413.1,111.1 C412.4,112.7 414.7,112.9 428,112.9 C436.7,112.9 443.7,113.1 443.7,113.5 C443.7,113.7 442.7,116.3 441.4,119 L439.1,123.9 L423.5,123.9 C409.5,123.9 407.9,124.1 406.5,126.3 C405.1,128.6 405.4,128.7 420.8,128.7 C429.4,128.7 436.5,128.9 436.5,129.2 C436.5,129.4 435.1,132.7 433.5,136.5 L430.3,143.3 L357.7,143.3 L360.7,136.8 C364.1,129.5 372.4,111.4 376.6,102 L379.3,95.7 L452.2,95.7 L449.5,102 Z M70.1,147.6 C70.1,148.2 68.4,152 65.2,158.3 L63,163 L78.5,163 L82.5,155.1 L86.5,147.2 L105.7,147.2 C120.4,147.2 124.7,147.6 124.2,148.7 C123.8,149.6 118.8,160.3 113,172.5 L102.6,194.8 L82.6,194.8 C67.3,194.8 62.8,194.4 63.4,193.2 C63.8,192.5 65.1,189.7 66.4,187.1 L68.7,182.6 L53.5,182.6 L50.8,188.7 L48.1,194.8 L8.6,194.8 L10.5,190.8 C11.6,188.7 16.5,178 21.7,167 L30.9,147.2 L50.5,147.2 C61.3,147.1 70.1,147.3 70.1,147.6 Z M173.2,148 C173.2,148.4 168.2,159.1 162.2,171.8 L151,194.7 L110.2,194.7 L112.1,190.7 C113.2,188.6 118.1,177.9 123.1,166.9 L132.1,147.1 L152.7,147.1 C163.9,147.1 173.2,147.5 173.2,148 Z M268.5,149.2 C267.9,150.4 262.9,161.2 257.2,173 L246.9,194.7 L209.3,194.7 L206,186.8 C204.3,182.4 202.4,178.9 202,178.9 C201.6,178.9 199.4,182.3 197.4,186.6 L193.8,194.2 L176.2,194.6 C159.7,194.8 158.6,194.7 159.5,192.8 C173.7,160.8 178.2,152.2 181.1,152.2 C183.1,152.2 184.5,153.4 185.7,155.7 C188,161.1 194.9,163.5 209.5,164.1 C231.3,165.1 249.3,160.3 257.2,151.5 C260.1,148.3 262.1,147.2 265.2,147.2 C268.5,147.1 269.2,147.5 268.5,149.2 Z M349.3,148.6 C349.3,149.5 348,152.5 346.4,155.3 L343.7,160.5 L327.4,160.5 C314.1,160.5 310.8,160.9 310.1,162.3 C309.4,163.9 311.7,164.1 325.7,164.1 C334.7,164.1 342.2,164.6 342.2,165.2 C342.2,165.8 341.2,168.2 340.1,170.7 L338,175.1 L321.8,175.1 C306.5,175.1 302.2,176 302.2,179 C302.2,179.5 309.6,180 318.7,180 C327.8,180 335.2,180.4 335.2,180.9 C335.2,181.4 333.8,184.7 332.1,188.2 L328.9,194.7 L255.3,194.7 L262,179.7 C265.9,171.5 270.6,160.8 272.7,155.9 L276.7,147.1 L313.1,147.1 C341.1,147.1 349.3,147.5 349.3,148.6 Z M419.1,150.2 C423.1,151.3 426.5,152.6 426.5,153.1 C426.5,153.7 425.1,157 423.4,160.4 C421.1,165.3 419.8,166.5 418.1,165.9 C408.8,162.7 393.8,162.1 392.6,165 C392,166.3 394.3,167 406.1,168.4 C415.1,169.6 419.4,173 419.4,179 C419.4,183.3 418.5,184.7 414,188.4 C407.6,193.6 399.8,195.8 384.9,196.7 C367.2,197.8 336.4,192.9 336.4,189.1 C336.4,187.8 340,180 341.7,177.6 C341.8,177.4 344.6,178.1 347.6,179.1 C354.6,181.5 369.5,182.9 372.1,181.4 C375.3,179.6 373,178 364.5,176.4 C349.9,173.6 345.7,167.7 352.6,159.2 C356.8,153.8 362.6,150.9 373.9,148.8 C384.9,146.7 408.2,147.3 419.1,150.2 Z M248.5,208.8 C255.2,211.6 264,220.3 266.1,226.5 C273.1,246.4 258.4,265.6 234.9,267.5 C211.6,269.3 193,253.6 195.1,233.7 C197.4,211.4 224.2,198.9 248.5,208.8 Z" id="Shape" fill="#FFFFFF" fill-rule="nonzero"></path>
            <path d="M150.3,18.1 C133.4,23.1 128.7,25.2 134.1,25.2 C137.4,25.2 165.9,16.9 167.9,15.4 C171.5,12.7 165,13.7 150.3,18.1 Z M151.7,27.7 C131.5,34.2 130.7,34.5 131.9,35.5 C132.9,36.4 171.8,24.3 173.8,22.6 C176.5,20.4 170.9,21.7 151.7,27.7 Z M75.4,40.5 C54.2,46.9 36.4,52 35.6,52 C32.9,52 34.5,48.8 38.3,46.9 C40.7,45.6 41.3,44.7 39.9,44.7 C38.6,44.7 35.5,45.9 32.7,47.5 C29.1,49.6 27.7,51.3 27.4,54.2 C27.1,56.4 27.4,58.1 28.1,58.1 C30.7,58 114.8,31.4 116.3,30.2 C119.4,27.6 113.7,29.1 75.4,40.5 Z M78.7,49.4 C32.9,63.4 36.6,62.6 37.6,59.4 C38.3,57.1 37.9,56.8 35.3,57.6 C33.6,58 31.3,58.9 30.4,59.6 C28,61.3 28,65.3 30.4,66.2 C32.4,66.8 114.1,41.7 116.6,39.7 C119.5,37.3 112.7,39.1 78.7,49.4 Z M295.6,11.2 C294.3,12.4 293.6,14.2 293.9,15.5 C294.3,16.8 293.6,17.8 291.9,18.2 C287.8,19.2 288.6,23.4 293.2,25 C309.4,30.5 372.1,48.3 374.4,48 C376,47.8 359.7,42.1 338.3,35.6 C303.5,24.9 294.9,21.6 301.1,21.5 C302,21.4 301.2,20.6 299.2,19.7 C297.2,18.8 296.1,18 296.6,17.9 C297,17.9 315.5,23.4 337.5,30.1 C359.5,36.8 379,42.3 380.9,42.3 C386.3,42.2 382.8,41 341.7,28.2 C302.9,16.2 296.5,13.2 309.6,13 L315.6,12.9 L310.6,11.3 C303.7,8.8 298.3,8.9 295.6,11.2 Z M396.5,46.9 C396.5,47.4 401.2,49.2 406.9,50.9 C412.5,52.7 421.6,55.5 426.9,57.4 C432.3,59.1 436.5,60 436.2,59.2 C435.8,58 400.7,45.9 397.7,45.9 C397.1,45.9 396.5,46.2 396.5,46.9 Z M392.9,54.1 C393.8,54.8 402.3,57.9 412.2,60.9 C422.1,63.9 431.2,66.8 432.7,67.2 C434,67.7 435.1,67.6 435.1,66.8 C435.1,66.2 426.9,63 417.1,60 C397.2,53.8 390.6,52.2 392.9,54.1 Z M141.7,119.1 L138.7,122.8 L142.3,122.8 C145.4,122.8 146,122.3 146,119.1 C146,117 145.7,115.4 145.4,115.4 C145,115.4 143.4,117 141.7,119.1 Z" id="Shape" fill="#FFFFFF" fill-rule="nonzero"></path>
            <path d="M241.9,237.1 C241.9,241.1 237.7,244.3 232.6,244.3 C227.4,244.3 223.3,241.1 223.3,237.1 C223.3,233.1 227.5,229.9 232.6,229.9 C237.7,229.9 241.9,233.1 241.9,237.1 L232.6,237.1 L241.9,237.1 Z" id="Path" fill="#FFFFFF"></path>
            <path d="M23.4,141.6 C23.3,140.7 23,136.2 22.8,131.6 L22,116.4 C21.8,111.9 21.7,107.4 21.6,102.9 L21.6,96.2 L59.7,96.2 L59.9,98.6 C60,99.9 60.2,103.8 60.3,107.3 C60.5,112.7 61.5,119.9 62.1,120.5 C62.2,120.6 67.4,115.1 73.7,108.4 L85.1,96.1 L101.7,96.2 C110.8,96.3 118.6,96.5 119,96.7 C119.8,97.1 121.6,95.2 94.4,123.1 L74.8,143.2 L23.7,143.2 L23.4,141.6 Z M9.8,192.6 C10.3,191.5 14.8,181.9 19.7,171.3 C24.7,160.7 29.2,150.9 29.9,149.5 L31.1,147 L50.4,147.2 C61,147.3 69.8,147.5 69.9,147.6 C70,147.7 68.6,151.1 66.7,155.1 C65.5,157.6 64.3,160.2 63.1,162.7 C63,162.9 66.5,163 70.9,162.9 L78.8,162.8 L82.8,154.9 L86.8,147 L100.7,147 C114.8,147 123.2,147.4 123.7,148 C123.9,148.2 119.2,158.7 113.2,171.3 L102.4,194.3 L95.2,194.4 C84.6,194.6 64.6,193.9 64.1,193.4 C63.8,193.1 64.4,191.4 66.2,187.7 C67.6,184.8 68.8,182.3 68.8,182.2 C68.8,182.1 65.3,182 61.1,182 L53.4,182 L50.7,188.2 L48,194.4 L8.8,194.4 L9.8,192.6 Z" id="Shape" fill-opacity="0.97" fill="#FF0000" fill-rule="nonzero"></path>
        </g>
    </g>
</svg>