<?xml version="1.0" encoding="UTF-8"?>
<svg width="2501px" height="595px" viewBox="0 0 2501 595" version="1.1" xmlns="http://www.w3.org/2000/svg" xmlns:xlink="http://www.w3.org/1999/xlink">
    <!-- Generator: Sketch 52 (66869) - http://www.bohemiancoding.com/sketch -->
    <title>walmart</title>
    <desc>Created with Sketch.</desc>
    <g id="Page-1" stroke="none" stroke-width="1" fill="none" fill-rule="evenodd">
        <g id="walmart" transform="translate(-0.879408, -1.017612)" fill-rule="nonzero">
            <path d="M2197.39071,201.42702 C2211.31475,201.42702 2222.77573,194.187629 2224.32346,184.83467 L2238.06998,29.3680706 C2238.06998,14.001702 2220.06859,1.38685637 2197.43509,1.38685637 C2174.82379,1.38685637 2156.83903,14.001702 2156.83903,29.3708443 L2170.57723,184.83467 C2172.08891,194.184856 2183.54989,201.42702 2197.43787,201.42702 L2197.39071,201.42702 M2113.36663,249.986409 C2120.35084,237.942948 2119.82384,224.40723 2112.4624,218.393821 L1984.67746,128.755746 C1971.39137,121.061467 1951.47057,130.322893 1940.16491,149.930269 C1928.82043,169.512681 1930.83137,191.383406 1944.0814,199.080459 L2085.5768,264.961684 C2094.42217,268.240212 2106.48228,261.930016 2113.41101,249.894876 L2113.36663,249.986409 M2281.48968,249.903197 C2288.4628,261.938337 2300.46188,268.251307 2309.31557,264.970005 L2450.81098,199.08878 C2464.14422,191.394501 2466.03866,169.521002 2454.79958,149.93859 C2443.43845,130.350631 2423.48159,121.069788 2410.23156,128.764067 L2282.43829,218.402142 C2275.13233,224.40723 2274.58869,237.954043 2281.53406,249.99473 L2281.48968,249.903197 M2197.39071,395.628518 C2211.31475,395.628518 2222.77573,402.806886 2224.32346,412.168167 L2238.06998,567.612577 C2238.06998,583.026098 2220.06859,595.613207 2197.43509,595.613207 C2174.82379,595.613207 2156.83903,583.026098 2156.83903,567.612577 L2170.57723,412.168167 C2172.08891,402.806886 2183.54989,395.628518 2197.43787,395.628518 L2197.39071,395.628518 M2281.48968,347.058034 C2288.4628,334.98961 2300.46188,328.732114 2309.31557,332.049474 L2450.81098,397.88632 C2464.14422,405.58892 2466.03866,427.481835 2454.79958,447.080889 C2443.43845,466.605053 2423.48159,475.91086 2410.23156,468.227675 L2282.43829,378.672812 C2275.13233,372.620571 2274.58869,359.065436 2281.53406,347.03307 L2281.47859,347.03307 M2113.36663,347.041392 C2120.35084,359.065436 2119.82384,372.620571 2112.4624,378.683907 L1984.67746,468.235996 C1971.39137,475.919181 1951.47057,466.613374 1940.16491,447.08921 C1928.82043,427.490156 1930.83137,405.597241 1944.0814,397.894641 L2085.5768,332.057795 C2094.42217,328.740435 2106.48228,334.997931 2113.41101,347.069129 L2113.36663,347.069129" id="Shape" fill="#FDBB30"></path>
            <path d="M1391.35534,378.389893 C1391.35534,383.160679 1390.93096,388.081245 1389.62454,392.40269 C1384.2047,410.351385 1365.62083,425.529141 1342.37157,425.529141 C1322.98609,425.529141 1307.58921,414.517502 1307.58921,391.25992 C1307.58921,355.664864 1346.7679,345.834827 1391.36643,346.081687 L1391.35534,378.387119 L1391.35534,378.389893 Z M1461.30837,316.358581 C1461.30837,257.664046 1436.22846,206.017514 1351.48599,206.017514 C1307.98585,206.017514 1273.46145,218.235719 1254.61684,229.125315 L1268.41884,276.311716 C1285.64082,265.438763 1313.08948,256.438065 1339.0653,256.438065 C1382.04953,256.318795 1389.08921,280.780168 1389.08921,296.435002 L1389.08921,300.140683 C1295.39042,300.001997 1236.16056,332.446115 1236.16056,398.538142 C1236.16056,438.9234 1266.32746,476.748521 1318.76727,476.748521 C1350.98949,476.748521 1377.97772,463.886815 1394.12905,443.26426 L1395.72393,443.26426 C1395.72393,443.26426 1406.41105,488.037532 1465.41069,470.907082 C1462.33187,452.287148 1461.31947,432.410723 1461.31947,408.50964 L1461.31115,316.358581 L1461.30837,316.358581 Z M1.38685637,126.08466 C1.38685637,126.08466 62.6165653,376.978073 72.3939027,417.696176 C83.7994095,465.223744 104.355395,482.720324 163.593578,470.907082 L201.823661,315.362818 C211.517787,276.708357 218.005501,249.148748 224.251902,209.867428 L225.339197,209.867428 C229.724437,249.564804 235.945875,276.827627 243.923073,315.490409 C243.923073,315.490409 259.478054,386.109136 267.458025,423.188128 C275.446318,460.256025 297.6804,483.632876 355.712018,470.907082 L446.811839,126.073566 L373.280714,126.073566 L342.165205,275.168947 C333.799687,318.549814 326.216356,352.48619 320.363822,392.164151 L319.32368,392.164151 C314.006473,352.835677 307.23584,320.283385 298.739958,278.006455 L266.37073,126.073566 L189.744142,126.073566 L155.100469,274.175958 C145.295395,319.193316 136.100537,355.528953 130.27574,393.886626 L129.216182,393.886626 C123.236057,357.767339 115.275502,312.081516 106.66035,268.525905 C106.66035,268.525905 86.09327,162.589494 78.8594271,126.073566 L1.38685637,126.08466 Z M585.902439,378.389893 C585.902439,383.160679 585.47806,388.081245 584.152226,392.40269 C578.743486,410.351385 560.148516,425.529141 536.899255,425.529141 C517.511003,425.529141 502.136314,414.517502 502.136314,391.25992 C502.136314,355.664864 541.303911,345.834827 585.91076,346.081687 L585.902439,378.387119 L585.902439,378.389893 Z M655.847153,316.358581 C655.847153,257.664046 630.767242,206.017514 546.041413,206.017514 C502.530181,206.017514 467.978041,218.235719 449.144532,229.125315 L462.929884,276.311716 C480.149093,265.438763 507.597754,256.438065 533.581895,256.438065 C576.596632,256.318795 583.636315,280.780168 583.636315,296.435002 L583.636315,300.140683 C489.898693,300.001997 430.696568,332.446115 430.696568,398.538142 C430.696568,438.9234 460.846826,476.748521 513.247807,476.748521 C545.514407,476.748521 572.48599,463.886815 588.656735,443.26426 L590.232204,443.26426 C590.232204,443.26426 600.94983,488.037532 659.935605,470.907082 C656.851237,452.287148 655.847153,432.410723 655.847153,408.50964 L655.847153,316.358581 Z M772.581628,397.708802 L772.581628,126.08466 L702.545381,126.08466 L702.545381,470.918177 L772.581628,470.918177 L772.581628,397.708802 Z M1688.78333,126.08466 L1688.78333,380.461856 C1688.78333,415.549323 1695.39863,440.105002 1709.50296,455.132977 C1721.86263,468.272055 1742.16898,476.776258 1766.52217,476.776258 C1787.23626,476.776258 1807.60086,472.823717 1817.21178,469.259496 L1816.30754,414.545239 C1809.15691,416.292678 1800.94672,417.707271 1789.70764,417.707271 C1765.84262,417.707271 1757.86264,402.418567 1757.86264,370.934153 L1757.86264,273.604573 L1818.85104,273.604573 L1818.85104,207.617947 L1757.86264,207.617947 L1757.86264,126.08466 L1688.78333,126.08466 Z M1508.00937,211.867275 L1508.00937,470.918177 L1580.25627,470.918177 L1580.25627,338.279233 C1580.25627,331.109186 1580.68897,324.862784 1581.82342,319.148936 C1587.16836,291.350787 1608.415,273.604573 1638.93416,273.604573 C1647.29968,273.604573 1653.28813,274.514351 1659.77584,275.435223 L1659.77584,207.617947 C1654.33104,206.533425 1650.63646,206.025835 1643.86305,206.025835 C1616.90256,206.025835 1586.22807,223.422562 1573.35527,260.740093 L1571.40258,260.740093 L1571.40258,211.867275 L1508.00937,211.867275 Z M821.620869,211.867275 L821.620869,470.918177 L892.009377,470.918177 L892.009377,319.010251 C892.009377,311.881809 892.847039,304.342858 895.315643,297.80799 C901.148761,282.513738 915.383455,264.601101 938.097388,264.601101 C966.514075,264.601101 979.783517,288.613133 979.783517,323.2679 L979.783517,470.898761 L1050.11655,470.898761 L1050.11655,317.140768 C1050.11655,310.339624 1051.04575,302.14053 1053.05669,296.143763 C1058.83156,278.735941 1074.16464,264.581685 1095.28369,264.581685 C1124.0776,264.581685 1137.89901,288.172112 1137.89901,328.962332 L1137.89901,470.890439 L1208.2792,470.890439 L1208.2792,318.308501 C1208.2792,237.851416 1167.42241,206.000872 1121.29557,206.000872 C1100.88659,206.000872 1084.76022,211.112825 1070.17604,220.049727 C1057.9301,227.594226 1046.9462,238.284115 1037.36302,252.335744 L1036.32288,252.335744 C1025.20029,224.418325 999.03031,206.014741 964.927512,206.014741 C921.116719,206.014741 901.426132,228.223859 889.482525,247.057368 L888.434062,247.057368 L888.434062,211.858953 L821.620869,211.858953 L821.620869,211.867275 Z" id="Shape" fill="#1A75CF"></path>
            <path d="M2486.30063,458.322747 L2487.36296,458.322747 C2488.77201,458.322747 2489.67624,457.740267 2489.67624,456.874869 C2489.67624,455.890201 2488.82749,455.354874 2487.51829,455.354874 C2487.06895,455.354874 2486.60851,455.446407 2486.30341,455.446407 L2486.30341,458.34771 L2486.30341,458.319973 L2486.30063,458.322747 Z M2486.13698,465.306956 L2482.39525,465.306956 L2482.39525,453.116488 C2483.244,452.950065 2485.22443,452.653278 2487.75961,452.653278 C2490.5139,452.653278 2491.7482,453.041598 2492.65243,453.651815 C2493.41521,454.184368 2493.96995,455.094145 2493.96995,456.3229 C2493.96995,457.573845 2492.81886,458.633403 2491.12135,459.096613 L2491.12135,459.251941 C2492.50543,459.620845 2493.25988,460.624929 2493.65652,462.386236 C2494.03374,464.14477 2494.26674,464.863162 2494.5025,465.315277 L2490.26427,465.315277 C2489.89536,464.863162 2489.67624,463.784187 2489.42661,462.707987 C2489.18807,461.473685 2488.60559,460.855147 2487.35464,460.855147 L2486.12866,460.855147 L2486.13698,465.306956 Z M2487.68472,449.144532 C2482.31203,449.144532 2478.25964,453.52145 2478.25964,459.10216 C2478.25964,464.538637 2482.32313,468.973804 2487.83172,468.973804 C2493.36251,469.065336 2497.42599,464.541411 2497.42599,459.013401 C2497.42599,453.510355 2493.36251,449.144532 2487.76793,449.144532 L2487.68472,449.144532 Z M2487.92603,445.835492 C2495.41505,445.835492 2501.38686,451.732406 2501.38686,459.010628 C2501.38686,466.374835 2495.41505,472.28007 2487.8234,472.28007 C2480.23175,472.28007 2474.18506,466.366514 2474.18506,459.013401 C2474.18506,451.732406 2480.24007,445.838266 2487.8234,445.838266 L2487.90661,445.838266 L2487.92603,445.835492 Z" id="Shape" fill="#FDBB30"></path>
        </g>
    </g>
</svg>