<?xml version="1.0" encoding="UTF-8"?>
<svg width="2496px" height="751px" viewBox="0 0 2496 751" version="1.1" xmlns="http://www.w3.org/2000/svg" xmlns:xlink="http://www.w3.org/1999/xlink">
    <!-- Generator: Sketch 52 (66869) - http://www.bohemiancoding.com/sketch -->
    <title>logo-amazon</title>
    <desc>Created with Sketch.</desc>
    <g id="Page-1" stroke="none" stroke-width="1" fill="none" fill-rule="evenodd">
        <g id="logo-amazon">
            <path d="M531.124592,179.195099 L531.124592,420.628972 C531.124592,428.778581 524.518029,435.385144 516.36842,435.385144 L440.154224,435.385144 C432.006103,435.381554 425.401643,428.777093 425.398052,420.628972 L425.398052,27.924819 C425.398052,19.7752103 432.004615,13.1686472 440.154224,13.1686472 L510.681959,13.1686472 C518.831568,13.1686472 525.438131,19.7752103 525.438131,27.924819 L525.438131,83.2279321 C525.438131,83.2279321 550.649844,4.33966782 625.471703,4.33966782 C625.471703,4.33966782 699.480281,-4.60642401 729.571681,77.5349646 C729.571681,77.5349646 754.783394,4.33966782 831.231815,4.33966782 C831.231815,4.33966782 944.922003,-2.42032448 944.922003,115.219156 L945.787334,180.00838 L945.787334,421.442253 C945.787334,429.591862 939.180771,436.198425 931.031162,436.198425 L854.81046,436.198425 C846.662339,436.194835 840.057878,429.590374 840.054288,421.442253 L839.35812,158.049791 C841.5247,98.4070101 793.274361,102.746678 793.274361,102.746678 C732.551543,103.833221 738.394154,180.00838 738.394154,180.00838 L738.394154,421.442253 C738.394154,429.591862 731.787591,436.198425 723.637982,436.198425 L647.423786,436.198425 C639.275665,436.194835 632.671204,429.590374 632.667614,421.442253 L632.667614,164.009515 C632.667614,164.009515 637.124394,102.200153 582.901318,102.200153 C582.907825,102.200153 529.231274,95.1538858 531.124592,179.195099 Z M2495.71889,178.472905 L2495.71889,419.900272 C2495.7153,428.048393 2489.11084,434.652854 2480.96272,434.656444 L2401.69709,436.191919 C2393.54897,436.188328 2386.94451,429.583868 2386.94092,421.435747 L2386.94092,164.009515 C2386.94092,164.009515 2391.3977,102.200153 2337.18113,102.200153 C2337.18113,102.200153 2285.3979,99.6497036 2285.3979,196.560276 L2285.3979,420.622466 C2285.39431,428.770587 2278.78985,435.375047 2270.64172,435.378638 L2194.42102,435.378638 C2186.2729,435.375047 2179.66844,428.770587 2179.66485,420.622466 L2179.66485,27.924819 C2179.66844,19.7766979 2186.2729,13.1722374 2194.42102,13.1686472 L2264.94876,13.1686472 C2273.09837,13.1686472 2279.70493,19.7752103 2279.70493,27.924819 L2279.70493,83.2279321 C2279.70493,83.2279321 2304.91664,4.33966782 2379.7385,4.33966782 C2379.7385,4.33966782 2459.88898,-7.82051082 2486.8834,76.0059962 C2486.88991,75.9994899 2495.71889,93.2930987 2495.71889,178.472905 Z M1945.42038,2.71310567 C1847.95678,2.71310567 1768.93839,84.8544943 1768.93839,223.112277 C1768.93839,344.837682 1829.93447,443.511448 1945.42038,443.511448 C2054.40005,443.511448 2121.90238,344.837682 2121.90238,223.112277 C2121.90238,87.2943375 2042.89049,2.71310567 1945.42038,2.71310567 Z M2006.93696,227.991963 C2006.93696,280.041952 2000.43071,307.693509 2000.43071,307.693509 C1991.17232,362.716853 1951.23046,362.794928 1945.34231,362.502147 C1938.9857,362.755891 1898.70552,362.183341 1890.37101,307.693509 C1890.37101,307.693509 1883.86476,280.041952 1883.86476,227.991963 L1883.86476,219.319134 C1883.86476,167.269145 1890.37101,139.617589 1890.37101,139.617589 C1898.70552,85.1277567 1938.99221,84.5552068 1945.34231,84.8024443 C1951.23046,84.5096631 1991.17232,84.5812318 2000.43071,139.617589 C2000.43071,139.617589 2006.93696,167.269145 2006.93696,219.319134 L2006.93696,227.991963 Z M1724.7024,82.6814072 L1724.7024,26.3372943 C1724.69881,18.1891733 1718.09435,11.5847128 1709.94623,11.5811225 L1458.02429,11.5811225 C1449.87468,11.5811225 1443.26811,18.1876857 1443.26811,26.3372943 L1443.26811,82.2454886 C1443.2717,90.3936096 1449.87617,96.9980701 1458.02429,97.0016604 L1589.43099,97.0016604 L1433.89261,322.638362 C1433.89261,322.638362 1427.76372,331.786147 1427.96542,341.890351 L1427.96542,410.524768 C1427.96542,410.524768 1426.95044,434.057869 1453.63907,420.401253 C1453.63907,420.401253 1501.0436,391.760747 1580.53044,391.760747 C1580.53044,391.760747 1659.02833,390.78481 1711.36459,422.867122 C1711.36459,422.867122 1733.08896,432.743607 1733.08896,411.025749 L1733.08896,351.285374 C1733.08896,351.285374 1735.06035,335.47519 1714.32494,325.605211 C1714.32494,325.605211 1654.09009,292.527443 1575.09772,297.953655 L1724.7024,82.6814072 Z M366.575059,365.156696 L342.716645,328.838817 C335.123853,315.279795 335.670378,300.09421 335.670378,300.09421 L335.670378,132.564815 C338.923502,-12.1992161 178.433868,0.273262441 178.433868,0.273262441 C35.7648486,0.273262441 14.6911093,111.302395 14.6911093,111.302395 C8.74439812,133.625334 26.0380069,134.165352 26.0380069,134.165352 L95.7524607,141.237645 C95.7524607,141.237645 107.639377,143.957257 111.966032,129.806166 C111.966032,129.806166 121.146349,81.367145 172.487157,81.367145 C228.349807,81.367145 227.770751,129.311691 227.770751,129.311691 L227.770751,169.448739 C116.25365,173.176819 64.5745174,204.13355 64.5745174,204.13355 C-4.28111158,243.171041 0.0520499888,320.706006 0.0520499888,320.706006 C0.0520499888,447.031329 120.417649,441.605118 120.417649,441.605118 C197.406089,441.605118 242.949829,385.221967 242.949829,385.221967 C256.502345,409.086887 281.447302,431.845745 281.447302,431.845745 C293.926287,445.378742 306.932278,434.018832 306.932278,434.018832 L363.321934,385.768492 C375.787907,376.542632 366.575059,365.156696 366.575059,365.156696 Z M157.991235,363.595197 C121.777455,363.595197 108.316027,327.609136 114.3278,292.241168 C120.34608,256.873201 151.602099,229.078507 227.777257,229.891788 L227.777257,251.39494 C230.47735,345.332157 188.134685,363.595197 157.991235,363.595197 Z M1379.37675,365.156696 L1355.52485,328.838817 C1347.93205,315.279795 1348.47207,300.09421 1348.47207,300.09421 L1348.47207,132.564815 C1351.7252,-12.1992161 1191.23556,0.273262441 1191.23556,0.273262441 C1048.56654,0.273262441 1027.4928,111.302395 1027.4928,111.302395 C1021.54609,133.625334 1038.8397,134.165352 1038.8397,134.165352 L1108.55416,141.237645 C1108.55416,141.237645 1120.44107,143.957257 1124.76773,129.806166 C1124.76773,129.806166 1133.94804,81.367145 1185.28885,81.367145 C1241.1515,81.367145 1240.57245,129.311691 1240.57245,129.311691 L1240.57245,169.448739 C1129.06185,173.176819 1077.37621,204.13355 1077.37621,204.13355 C1008.52058,243.171041 1012.85374,320.706006 1012.85374,320.706006 C1012.85374,447.031329 1133.21934,441.605118 1133.21934,441.605118 C1210.20778,441.605118 1255.75152,385.221967 1255.75152,385.221967 C1269.31055,409.086887 1294.24249,431.845745 1294.24249,431.845745 C1306.72148,445.378742 1319.73397,434.018832 1319.73397,434.018832 L1376.11712,385.768492 C1388.5896,376.542632 1379.37675,365.156696 1379.37675,365.156696 Z M1170.79293,363.595197 C1134.57915,363.595197 1121.11772,327.609136 1127.1295,292.241168 C1133.14778,256.873201 1164.40379,229.078507 1240.57245,229.891788 L1240.57245,251.39494 C1243.27905,345.332157 1200.94289,363.595197 1170.79293,363.595197 Z" id="Shape" fill="#FFFFFF" fill-rule="nonzero"></path>
            <g id="Group" transform="translate(351.337424, 448.931153)" fill="#F3971B">
                <path d="M1219.94764,233.327087 C1219.94764,233.327087 1213.57151,244.420241 1221.40504,246.899122 C1221.40504,246.899122 1230.25354,250.35394 1241.28813,240.113105 C1241.28813,240.113105 1321.76392,169.813088 1323.70278,41.822166 C1323.70278,41.822166 1324.29485,25.8363132 1317.87969,21.4641141 C1317.87969,21.4641141 1292.66798,-0.83930607 1202.00991,5.94671122 C1202.00991,5.94671122 1122.98501,11.2818351 1079.84208,49.5841206 C1079.84208,49.5841206 1075.96436,52.9738761 1075.96436,57.3330627 C1075.96436,57.3330627 1075.03396,66.7476044 1098.74924,62.6681865 C1098.74924,62.6681865 1177.76763,51.5099702 1224.79479,57.3330627 C1224.79479,57.3330627 1249.04358,60.2413558 1255.8296,68.491279 C1255.8296,68.491279 1266.98131,77.704127 1261.15822,108.237952 C1261.15822,108.250964 1245.15284,185.81846 1219.94764,233.327087 Z" id="Path"></path>
                <path d="M1204.01383,110.534657 C1204.01383,110.534657 1215.81617,125.824342 1196.77238,139.012508 C1196.77238,139.012508 993.341505,301.733785 651.763454,301.733785 C651.763454,301.733785 300.152767,319.079444 6.55829859,52.3232513 C6.55829859,52.3232513 -3.7345867,43.2860719 2.65454943,34.886505 C2.65454943,34.886505 8.3670357,27.1570817 23.1557388,35.5631549 C23.1557388,35.5631549 299.339486,207.659937 662.062845,207.659937 C662.062845,207.659937 914.179978,217.41931 1172.80336,106.813083 C1172.80336,106.813083 1193.40865,96.1363293 1204.01383,110.534657 Z" id="Path"></path>
            </g>
        </g>
    </g>
</svg>