<?xml version="1.0" encoding="UTF-8"?>
<svg width="2500px" height="465px" viewBox="0 0 2500 465" version="1.1" xmlns="http://www.w3.org/2000/svg" xmlns:xlink="http://www.w3.org/1999/xlink">
    <!-- Generator: Sketch 52 (66869) - http://www.bohemiancoding.com/sketch -->
    <title>chase</title>
    <desc>Created with Sketch.</desc>
    <g id="Page-1" stroke="none" stroke-width="1" fill="none" fill-rule="evenodd">
        <g id="chase" fill-rule="nonzero">
            <path d="M2201.49739,-2.90914207e-15 C2192.43026,-0.00246254357 2185.07584,7.34199454 2185.06601,16.4091186 L2185.06601,131.397597 L2488.87065,131.397597 L2350.51943,0.0356139307 L2201.49739,-2.90914207e-15 M2500,166.183504 C2500.00357,161.83135 2498.27383,157.656943 2495.19305,154.582847 C2492.11227,151.508751 2487.93411,149.788075 2483.58198,149.801096 L2368.6024,149.801023 L2368.6024,453.596829 L2499.94658,315.209998 L2500,166.183504 M2333.76307,464.623792 C2342.81311,464.599253 2350.13661,457.255837 2350.13658,448.20577 L2350.13658,333.230646 L2046.3453,333.230646 L2184.67426,464.59263 L2333.76307,464.623792 M2035.24711,298.458095 C2035.24593,302.811244 2036.97408,306.986569 2040.05138,310.065546 C2043.12869,313.144522 2047.30308,314.874936 2051.65623,314.876117 L2166.6447,314.876117 L2166.6447,11.0581255 L2035.26491,149.409343 L2035.24711,298.458095" id="Shape" fill="#0659A5"></path>
            <path d="M642.737963,55.4375349 L642.737963,195.729712 L447.262001,195.729712 L447.262001,55.4375349 L376.092012,55.4108245 L376.092012,409.150643 L447.262001,409.150643 L447.262001,257.181549 L642.737963,257.181549 L642.737963,409.150643 L714.037053,409.150643 L714.037053,55.4375349 L642.737963,55.4375349 Z M1589.81922,55.4375349 L1589.81922,409.088319 L1902.1712,409.070512 L1862.59077,346.835168 L1661.23851,346.835168 L1661.23851,257.181549 L1856.21143,257.181549 L1856.21143,197.20769 L1661.23851,197.20769 L1661.23851,116.239418 L1862.26134,116.239418 L1901.04046,55.4375349 L1589.81922,55.4375349 Z M111.484958,55.3930175 C37.4124342,55.3930175 0,100.382316 0,165.898593 L0,297.9595 C0,373.754848 48.1856483,409.159547 111.102109,409.159547 L334.419261,409.115029 L293.049229,344.471293 L124.8847,344.471293 C89.1772826,344.471293 73.6228983,331.565695 73.6228983,291.580154 L73.6228983,171.783795 C73.6228983,133.124873 86.7065661,118.042373 125.837373,118.042373 L294.803215,118.042373 L334.548362,55.3974693 L111.484958,55.3930175 Z M1277.41382,55.2906275 C1234.61923,55.2906275 1190.823,80.9816268 1190.823,147.107793 L1190.823,164.095638 C1190.823,232.986335 1233.0077,259.313933 1275.17905,259.505358 L1423.31074,259.505358 C1438.69151,259.505358 1451.19645,262.051754 1451.19645,288.067731 L1451.17864,318.134792 C1450.79579,341.444109 1439.10997,346.835168 1422.78099,346.835168 L1227.92381,346.835168 L1188.00505,409.06606 L1427.33957,409.06606 C1485.08756,409.06606 1524.26733,380.365684 1524.26733,314.008027 L1524.26733,289.630292 C1524.26733,225.489603 1487.8699,195.222213 1431.40846,195.222213 L1289.97664,195.222213 C1274.28425,195.222213 1263.37303,190.917379 1263.37303,167.692645 L1263.35522,143.243681 C1263.35522,123.464594 1270.86976,116.239418 1289.13526,116.239418 L1474.69719,116.16819 L1513.49412,55.2238514 L1277.41382,55.2906275 Z M920.900569,55.4909558 L753.163407,409.115029 L832.453372,409.115029 L865.12025,336.084213 L1047.37899,336.084213 L1079.94348,409.115029 L1159.54952,409.115029 L991.429508,55.4865041 L920.900569,55.4909558 Z M956.051519,128.891267 L1020.50828,275.892218 L891.999865,275.892218 L956.051519,128.891267 Z" id="Shape" fill="#FFFFFF"></path>
        </g>
    </g>
</svg>