<?xml version="1.0" encoding="UTF-8"?>
<svg width="2380px" height="2381px" viewBox="0 0 2380 2381" version="1.1" xmlns="http://www.w3.org/2000/svg" xmlns:xlink="http://www.w3.org/1999/xlink">
    <!-- Generator: Sketch 52 (66869) - http://www.bohemiancoding.com/sketch -->
    <title>ge</title>
    <desc>Created with Sketch.</desc>
    <g id="Page-1" stroke="none" stroke-width="1" fill="none" fill-rule="evenodd">
        <g id="ge" transform="translate(-60.120803, -60.458290)" fill-rule="nonzero">
            <g id="Group" transform="translate(60.433368, 60.433368)" fill="#FEFFFE">
                <path d="M1098.90525,4.683586 C1325.97607,-13.8241329 1558.19129,36.4866457 1757.62896,146.399833 C2097.71773,329.664021 2338.69579,687.127391 2372.91618,1072.9189 C2398.66835,1310.64866 2347.91188,1555.62287 2232.25752,1764.72232 C2116.52762,1975.34016 1935.45414,2149.76597 1719.93364,2256.43087 C1550.79576,2341.71746 1360.43065,2384.77623 1170.97959,2380.61388 C911.493822,2378.42317 654.576468,2285.58241 451.444811,2124.45194 C276.633741,1985.76492 141.41408,1797.81715 67.383205,1587.13132 C-48.0445273,1263.13293 -14.050758,888.59713 162.036967,592.624712 C280.259743,387.453429 462.541888,220.50625 675.720592,117.769525 C808.220751,54.3900309 952.354333,15.1838836 1098.90525,4.683586 Z M888.521588,117.769525 C683.728014,173.066057 492.531947,293.555084 371.060878,469.567267 C289.249206,585.297166 242.186721,722.329827 218.013374,861.024406 C206.531034,947.595205 201.771906,1042.02234 245.057306,1121.11451 C265.075859,1160.3962 300.051671,1190.08409 317.27518,1230.86906 C333.667731,1267.0611 322.034308,1316.01212 286.75633,1336.62746 C253.669061,1360.35511 206.908743,1351.28255 176.994226,1326.58041 C133.859909,1292.74528 115.578816,1237.52429 106.362727,1185.40051 C88.1571751,1068.00869 111.80173,949.257123 141.716247,835.944558 C118.298317,845.689439 121.697694,878.096832 112.859314,898.644177 C61.7175767,1096.94117 62.0952853,1308.9112 118.147234,1506.15061 C171.101972,1694.55163 279.202159,1869.51378 435.271331,1989.45891 C552.814231,2082.45831 696.872271,2135.33751 842.667771,2163.96781 C930.598321,2178.77399 1026.23412,2184.66624 1108.65013,2144.62914 C1149.51819,2124.15733 1180.11259,2088.49409 1220.14214,2066.81362 C1253.8413,2049.2955 1297.73103,2055.02911 1324.08753,2082.82846 C1354.53839,2113.20378 1355.06719,2165.24447 1330.28195,2199.23824 C1303.54774,2235.64934 1260.48141,2255.89452 1217.95898,2267.60348 C1124.13618,2291.09696 1025.99995,2280.52112 932.109155,2263.44869 C897.737677,2258.00969 865.1792,2242.75026 830.052305,2242.83336 C848.862191,2261.41662 876.434915,2264.66491 900.683804,2271.91692 C1084.93003,2317.31748 1280.50752,2317.61965 1465.04836,2273.50329 C1677.40366,2222.4371 1878.34461,2102.93011 2004.49171,1921.85663 C2086.22784,1809.45057 2131.2507,1675.13741 2159.0576,1540.21992 C2173.85622,1440.5804 2181.33485,1327.94016 2120.82594,1241.06719 C2092.64889,1199.59479 2047.39185,1159.70877 2056.46441,1104.3367 C2060.31703,1052.59063 2118.25752,1019.88107 2165.84125,1036.72687 C2228.00452,1056.8965 2257.09563,1123.52429 2269.79419,1182.59791 C2293.95999,1304.97548 2269.94528,1430.75998 2237.60587,1549.27737 C2246.06654,1547.99316 2251.27892,1543.23403 2253.23545,1535.07553 C2308.99279,1361.02743 2318.65457,1173.30628 2286.4738,993.668094 C2249.53391,783.133349 2152.23619,577.810983 1990.35786,434.810526 C1893.21122,346.200101 1773.47005,283.727107 1646.86215,249.204546 C1541.41348,217.854736 1427.2624,196.166711 1318.4068,223.142656 C1264.84772,234.851621 1223.22424,272.395851 1180.3241,303.896744 C1143.98854,331.922718 1085.82143,333.811261 1053.03632,299.137616 C1023.49952,267.712265 1026.21902,215.739568 1051.67657,182.6523 C1085.5117,138.082691 1141.49567,117.459804 1194.82811,107.866007 C1279.96362,95.1749999 1366.98767,103.484588 1450.99005,120.254848 C1484.30394,125.996017 1515.41957,141.330984 1549.34536,143.823861 C1542.31998,137.931608 1535.44568,131.359479 1526.53176,128.564436 C1321.07342,62.2463687 1096.26129,59.7534923 888.521588,117.769525 Z" id="Shape"></path>
                <path d="M916.623104,538.914556 C962.552464,514.741209 1021.24837,507.489205 1068.08423,533.022303 C1105.55292,554.476148 1120.20801,600.9343 1116.50647,641.953448 C1109.8588,723.387411 1070.50157,798.47587 1021.02175,862.08199 C967.538217,926.745693 901.590304,984.006309 822.573676,1014.67624 C828.617013,1039.90717 847.653523,1066.79247 876.20829,1066.64894 C926.216901,1068.46194 969.577843,1036.88551 1005.5357,1005.46015 C1031.37096,985.81931 1032.73071,951.447832 1044.81739,923.724025 C1062.4186,880.363084 1086.36533,834.131557 1130.02843,812.224462 C1150.50024,801.346455 1181.7745,799.231288 1195.9008,821.062842 C1211.31131,850.524108 1197.3361,884.291253 1182.52992,910.957476 C1162.28474,949.634831 1130.25506,979.927057 1104.7975,1014.75179 C1095.20371,1047.08364 1093.46625,1081.07741 1092.86191,1114.61793 C1128.21543,1098.98079 1159.94295,1076.69599 1193.25684,1057.35731 C1251.19734,1019.88862 1311.32854,984.988351 1365.11423,941.62741 C1371.3011,920.702357 1362.84798,897.88876 1363.83003,876.132748 C1360.50619,770.827605 1396.91729,662.878502 1468.68192,584.994999 C1513.32707,537.932514 1580.56674,504.769704 1646.28048,521.313338 C1685.7208,528.4898 1716.61736,560.519485 1727.71444,598.214798 C1741.7652,655.097706 1722.27544,714.549031 1692.35337,762.971267 C1640.84147,843.574271 1565.9041,905.140764 1490.06022,961.797047 C1500.18281,987.027978 1514.61128,1015.65829 1541.87428,1025.02546 C1580.92934,1017.54683 1620.67184,1006.89545 1660.6334,1014.82733 C1687.37517,1020.41741 1719.48039,1028.42483 1732.54911,1055.09106 C1744.63578,1081.07741 1721.52757,1107.66809 1697.79992,1115.75105 C1647.33806,1132.21914 1593.93007,1122.92751 1542.41063,1118.99934 C1481.07831,1133.65444 1427.73831,1174.22033 1389.51421,1223.63217 C1330.14598,1301.66675 1311.78934,1404.93227 1324.69942,1500.64362 C1337.02027,1580.03795 1376.89874,1660.03662 1447.009,1703.17094 C1525.94253,1753.70834 1639.7159,1742.98897 1705.13502,1674.76726 C1766.8526,1611.07804 1786.34236,1509.70107 1751.96333,1427.88939 C1737.38378,1391.93154 1706.03397,1361.26916 1666.75983,1355.15028 C1620.90602,1344.79351 1566.43289,1374.63249 1559.79277,1423.35689 C1553.13755,1460.82558 1579.43362,1491.87322 1601.63533,1518.69053 C1618.79085,1536.45039 1620.83048,1569.22793 1599.52771,1584.5629 C1566.51599,1607.14987 1520.73771,1591.29367 1494.4492,1565.07314 C1429.55887,1501.02132 1431.59849,1385.36697 1493.76932,1319.94785 C1572.77839,1229.29779 1730.13177,1227.56034 1810.96896,1316.85064 C1897.38112,1412.56198 1908.25913,1565.97964 1841.78998,1675.67376 C1791.92489,1761.78375 1702.03781,1823.96213 1603.22926,1838.01289 C1495.7334,1853.94464 1379.61824,1819.88288 1304.07653,1740.17882 C1156.31695,1589.69974 1158.65874,1325.08468 1299.61957,1170.90405 C1337.30733,1125.80565 1387.09687,1093.70043 1437.02994,1063.93699 C1426.22748,1049.35744 1414.89622,1035.1556 1403.40633,1021.0293 C1306.41077,1091.35863 1204.96581,1155.26692 1100.56717,1213.96283 C1082.89041,1220.45941 1086.06316,1241.76218 1083.49474,1256.79498 C1074.20311,1385.29142 1063.24956,1519.21932 999.341276,1634.05027 C956.131418,1715.17452 890.78784,1789.51511 803.159456,1822.90455 C733.661084,1849.11752 649.583161,1851.45176 585.825958,1809.22394 C524.788257,1770.9243 497.064449,1694.48364 501.748035,1624.82663 C511.417374,1536.21621 561.803694,1456.21754 625.863064,1396.09389 C713.793614,1315.7855 820.382966,1260.2699 925.008234,1205.12445 C946.310996,1193.2644 969.502301,1184.27494 988.538812,1168.93997 C995.564191,1149.75237 996.621775,1129.12193 998.585859,1109.03539 C944.346912,1141.82049 875.830581,1168.18455 813.433129,1143.02916 C762.442475,1123.38832 730.714957,1074.58837 714.473489,1024.57976 C666.35342,1019.44293 617.931185,1000.25533 587.26125,961.426892 C533.77772,897.291981 530.378343,799.767634 569.055698,727.474218 C581.973331,701.412328 610.981347,687.437112 639.38503,689.174571 C644.899575,700.354744 655.248789,711.459375 651.471704,725.056883 C643.011032,771.968285 626.542939,820.692687 642.104532,868.208423 C649.809786,900.691358 676.702635,926.602164 710.09207,931.059125 C717.192991,854.157665 732.150249,776.954037 768.334728,707.833373 C802.404039,640.593697 848.937732,575.401202 916.623104,538.914556 Z M961.872588,614.154099 C916.245396,645.201742 888.446047,694.832645 864.423783,743.103797 C838.588518,797.56937 817.739006,856.114195 815.397213,916.849729 C832.847348,909.144475 849.315441,899.097428 863.441741,886.179795 C920.551273,836.47335 970.484343,777.24865 1003.94932,708.958945 C1015.73383,684.256806 1025.93196,656.230831 1019.20875,628.582566 C1010.52145,606.146678 980.229224,600.254424 961.872588,614.154099 Z M1552.38213,637.874196 C1499.04213,699.969481 1469.74706,782.309945 1470.646,864.121616 C1530.78476,814.490713 1586.23237,756.323597 1623.61796,687.354016 C1634.34489,665.295836 1648.55428,629.262441 1621.35171,613.172057 C1596.57403,600.405508 1568.6236,619.139852 1552.38213,637.874196 Z M743.708131,1431.43986 C691.289739,1478.49479 640.140447,1533.34562 621.11149,1602.91198 C611.970944,1640.22959 609.855776,1687.37517 641.205585,1715.16696 C674.292854,1745.38365 724.150382,1736.39418 762.374487,1722.04126 C836.103196,1693.63758 880.597263,1622.25066 910.587322,1552.90337 C945.563133,1466.78582 967.243604,1375.07819 976.081984,1282.53959 C892.374215,1321.2245 814.188546,1372.14717 743.708131,1431.43986 Z" id="Shape"></path>
            </g>
            <g id="Group" fill="#DE1414" fill-opacity="0">
                <path d="M1159.64078,5.13683625 C1406.28447,-13.6730494 1657.98944,43.965275 1872.07465,167.778137 C2043.3277,266.511151 2191.38945,405.810064 2298.57559,572.077367 C2431.68763,775.360107 2502.09251,1018.67995 2500.04533,1261.62209 C2498.4665,1515.51778 2417.63687,1768.50696 2269.95283,1975.27218 C2120.15362,2187.3102 1902.36687,2350.63138 1656.55415,2434.18051 C1438.24616,2509.72222 1198.99801,2521.58227 973.732637,2471.12796 C737.513711,2418.47539 518.065044,2294.20927 350.211366,2119.93455 C172.31064,1935.68077 51.8971545,1695.83584 15.1083419,1442.09124 C-21.076137,1216.07044 8.83838002,980.304765 97.1466385,769.392312 C179.109393,573.210492 312.591594,399.313477 479.689856,268.097527 C673.378799,115.352191 913.450352,22.2092626 1159.64078,5.13683625 Z M1159.33862,65.1169537 C1012.7877,75.6172513 868.654119,114.823399 736.146406,178.202893 C522.967701,280.939618 340.685556,447.886796 222.462781,653.058079 C46.3826097,949.030498 12.3888404,1323.56629 127.816573,1647.56469 C201.847448,1858.25807 337.067108,2046.20584 511.870624,2184.89287 C715.002281,2346.02333 971.919636,2438.86409 1231.40541,2441.0548 C1420.86402,2445.21715 1611.22912,2402.15838 1780.35946,2316.87179 C1995.87996,2210.20689 2176.95343,2035.78109 2292.68333,1825.16325 C2408.34524,1616.06379 2459.09416,1371.08958 2433.342,1133.35982 C2399.1216,747.568312 2158.13599,390.104943 1818.05477,206.840755 C1618.63221,96.9200134 1386.40944,46.6092348 1159.33862,65.1169537 Z" id="Shape"></path>
                <path d="M948.954956,178.202893 C1156.69466,120.18686 1381.50679,122.679736 1586.98024,189.005357 C1595.89416,191.800401 1602.76845,198.372529 1609.79383,204.264783 C1575.8756,201.771906 1544.75997,186.436939 1511.43853,180.695769 C1427.43614,163.92551 1340.40454,155.615922 1255.27659,168.306929 C1201.94414,177.900726 1145.96773,198.523613 1112.12505,243.093221 C1086.66749,276.18049 1083.94799,328.153187 1113.4848,359.578538 C1146.2699,394.252182 1204.43702,392.36364 1240.77258,364.337665 C1283.68027,332.836772 1325.2962,295.292543 1378.85527,283.583578 C1487.71087,256.615188 1601.86195,278.295658 1707.31062,309.645468 C1833.91853,344.168029 1953.65214,406.641023 2050.80633,495.251448 C2212.69222,638.251904 2309.98994,843.574271 2346.92228,1054.10902 C2379.10305,1233.7472 2369.43371,1421.46835 2313.68393,1595.51645 C2311.71984,1603.67495 2306.51502,1608.43408 2298.05435,1609.71829 C2330.3862,1491.2009 2354.40846,1365.4164 2330.24267,1243.03883 C2317.54411,1183.96521 2288.46055,1117.33743 2226.28972,1097.16779 C2178.69845,1080.32199 2120.75796,1113.03155 2116.91288,1164.77762 C2107.84032,1220.14969 2153.08981,1260.03572 2181.27442,1301.50811 C2241.78333,1388.38108 2234.3047,1501.01377 2219.50608,1600.66084 C2191.69917,1735.57078 2146.67632,1869.89149 2064.94019,1982.29756 C1938.79309,2163.37103 1737.85214,2282.87802 1525.49684,2333.94421 C1340.94844,2378.06057 1145.37851,2377.75841 961.13228,2332.35784 C936.883391,2325.10583 909.310667,2321.85754 890.500781,2303.27428 C925.627676,2303.19118 958.186153,2318.45816 992.557631,2323.88961 C1086.45598,2340.96204 1184.58466,2351.53788 1278.40746,2328.04441 C1320.92989,2316.33544 1363.99622,2296.09782 1390.73043,2259.67916 C1415.50811,2225.68539 1414.98687,2173.63715 1384.53601,2143.26938 C1358.17951,2115.47004 1314.28977,2109.73642 1280.59062,2127.25454 C1240.56106,2148.93501 1209.95912,2184.59825 1169.09861,2205.07006 C1086.6826,2245.10716 991.046797,2239.21491 903.116247,2224.40874 C757.320747,2195.77843 613.262707,2142.89923 495.719807,2049.89983 C339.635526,1929.9396 231.53534,1754.985 178.580601,1566.58397 C122.528653,1369.34457 122.150944,1157.37453 173.292682,959.077545 C182.131062,938.5302 178.731685,906.122807 202.149615,896.377926 C172.235098,1009.69049 148.590543,1128.44206 166.796095,1245.83387 C176.012183,1297.95765 194.293277,1353.17864 237.427593,1387.01378 C267.34211,1411.72347 314.102429,1420.78847 347.189697,1397.06082 C382.467676,1376.44549 394.101099,1327.49446 377.708548,1291.30243 C360.485038,1250.51746 325.509227,1220.82201 305.490674,1181.54788 C262.205274,1102.45571 266.964402,1008.02857 278.446742,921.457774 C302.620089,782.763195 349.682574,645.730534 431.494245,530.000635 C552.965314,353.988451 744.161381,233.499424 948.954956,178.202893 Z M977.056472,599.347924 C909.3711,635.83457 862.837407,701.027065 828.768096,768.259187 C792.583617,837.379851 777.626359,914.583478 770.525438,991.484938 C737.136002,987.027978 710.243154,961.117171 702.537899,928.634236 C686.976307,881.118501 703.4444,832.394098 711.905071,785.482696 C715.682157,771.885189 705.332943,760.780557 699.818398,749.600384 C671.414715,747.862925 642.406698,761.838141 629.489066,787.900031 C590.811711,860.193447 594.211088,957.717794 647.694618,1021.85271 C678.372106,1060.68114 726.786788,1079.86874 774.906857,1085.00557 C791.148325,1135.01419 822.875843,1183.81413 873.866497,1203.45498 C936.263949,1228.61036 1004.78028,1202.24631 1059.01923,1169.46121 C1057.05514,1189.5553 1055.99756,1210.17819 1048.97218,1229.36578 C1029.93567,1244.70075 1006.74436,1253.69021 985.441602,1265.55026 C880.816334,1320.69571 774.226982,1376.21131 686.296432,1456.5197 C622.237062,1516.64335 571.850742,1596.64202 562.181403,1685.25245 C557.497817,1754.90946 585.221624,1831.35011 646.259326,1869.64976 C710.008974,1911.87757 794.094451,1909.53578 863.592824,1883.33036 C951.221207,1849.94093 1016.56479,1775.60033 1059.77464,1694.47609 C1123.68293,1579.64514 1134.63648,1445.70968 1143.92811,1317.22079 C1146.49653,1302.18799 1143.32377,1280.88523 1161.00053,1274.38864 C1265.39918,1215.68518 1366.85169,1151.78445 1463.83969,1081.45511 C1475.32959,1095.58141 1486.66084,1109.78326 1497.46331,1124.36281 C1447.53024,1154.12624 1397.7407,1186.23147 1360.05294,1231.32987 C1219.09211,1385.5105 1216.75032,1650.12555 1364.5099,1800.60464 C1440.05161,1880.30869 1556.15922,1914.378 1663.66262,1898.4387 C1762.47118,1884.38795 1852.35826,1822.20956 1902.22334,1736.09957 C1968.69249,1626.40545 1957.81449,1472.9878 1871.40233,1377.27645 C1790.56514,1287.98615 1633.21176,1289.72361 1554.20269,1380.37366 C1492.03186,1445.79278 1489.99223,1561.44714 1554.88256,1625.49895 C1581.17108,1651.71948 1626.94935,1667.57569 1659.96108,1644.98871 C1681.26384,1629.6613 1679.22422,1596.8762 1662.06869,1579.11634 C1639.86699,1552.29904 1613.57092,1521.25139 1620.22614,1483.78271 C1626.86626,1435.0583 1681.33938,1405.21933 1727.1932,1415.5761 C1766.46734,1421.69497 1797.8247,1452.35735 1812.3967,1488.31521 C1846.77573,1570.12688 1827.28597,1671.50385 1765.56839,1735.19307 C1700.14927,1803.40723 1586.3759,1814.13416 1507.44237,1763.59675 C1437.33211,1720.46244 1397.44609,1640.46377 1385.13279,1561.06943 C1372.22271,1465.35808 1390.57934,1362.09257 1449.94757,1284.05798 C1488.17923,1234.64615 1541.51168,1194.0878 1602.84399,1179.42516 C1654.36344,1183.35333 1707.77898,1192.64496 1758.23329,1176.17686 C1781.96094,1168.0939 1805.0616,1141.50322 1792.98248,1115.51687 C1779.92132,1088.85065 1747.81609,1080.84323 1721.06677,1075.25314 C1681.10521,1067.32126 1641.36271,1077.97264 1602.30765,1085.45127 C1575.04465,1076.0841 1560.60862,1047.45379 1550.49359,1022.22286 C1626.33747,965.566578 1701.27484,904.000085 1752.78673,823.39708 C1782.7088,774.974845 1802.19857,715.523519 1788.14781,658.640612 C1777.04318,620.945299 1746.14662,588.915614 1706.71384,581.739151 C1641.00011,565.195517 1573.76044,598.358328 1529.11529,645.420813 C1457.35066,723.304315 1420.93956,831.253418 1424.26339,936.558561 C1423.28135,958.314574 1431.73447,981.12817 1425.5476,1002.05322 C1371.7619,1045.41416 1311.6307,1080.31443 1253.69021,1117.78312 C1220.37632,1137.12935 1188.6488,1159.4066 1153.29528,1175.04374 C1153.89961,1141.50322 1155.63707,1107.50945 1165.23087,1075.1776 C1190.68843,1040.35287 1222.71811,1010.06064 1242.96329,971.38329 C1257.76946,944.717066 1271.74468,910.949922 1256.33417,881.488655 C1242.20787,859.657101 1210.9336,861.772269 1190.4618,872.650275 C1146.79869,894.557371 1122.85197,940.788897 1105.25075,984.149838 C1093.16408,1011.87365 1091.80433,1046.24512 1065.96906,1065.88597 C1030.01121,1097.31132 986.650269,1128.88775 936.641657,1127.07475 C908.086891,1127.22584 889.05038,1100.33299 883.007044,1075.10206 C962.023672,1044.42457 1027.97158,987.163953 1081.45511,922.507803 C1130.93493,858.901684 1170.29217,783.813225 1176.93984,702.379262 C1180.64138,661.360113 1165.98629,614.901962 1128.5176,593.448116 C1081.68174,567.922573 1022.98583,575.174577 977.056472,599.347924 Z" id="Shape"></path>
                <path d="M1022.30596,674.587467 C1040.66259,660.687792 1070.95482,666.580046 1079.64211,689.015933 C1086.36533,716.664199 1076.16719,744.690173 1064.38269,769.392312 C1030.91771,837.682018 980.984641,896.906718 923.875108,946.613163 C909.748809,959.530795 893.280716,969.577843 875.830581,977.283097 C878.172374,916.547563 899.021886,858.002738 924.857151,803.537165 C948.879414,755.266013 976.678763,705.635109 1022.30596,674.587467 Z M1612.8155,698.307564 C1629.05697,679.57322 1657.0074,660.838876 1681.78508,673.605424 C1708.98765,689.695809 1694.77825,725.729204 1684.05133,747.787383 C1646.66574,816.756964 1591.21813,874.924081 1531.07937,924.554984 C1530.18042,842.743312 1559.4755,760.402849 1612.8155,698.307564 Z M804.141499,1491.87322 C874.621914,1432.57298 952.807583,1381.65787 1036.5078,1342.98051 C1027.66942,1435.51911 1005.98895,1527.22674 971.013135,1613.34429 C941.023076,1682.69158 896.52901,1754.0785 822.800301,1782.48218 C784.576196,1796.82755 734.718668,1805.82457 701.631399,1775.60788 C670.281589,1747.80854 672.396757,1700.67051 681.537304,1663.3529 C700.573815,1593.77899 751.715552,1538.93571 804.141499,1491.87322 Z" id="Shape"></path>
            </g>
        </g>
    </g>
</svg>