<?xml version="1.0" encoding="UTF-8"?>
<svg width="2280px" height="1012px" viewBox="0 0 2280 1012" version="1.1" xmlns="http://www.w3.org/2000/svg" xmlns:xlink="http://www.w3.org/1999/xlink">
    <!-- Generator: Sketch 52 (66869) - http://www.bohemiancoding.com/sketch -->
    <title>southwest</title>
    <desc>Created with Sketch.</desc>
    <g id="Page-1" stroke="none" stroke-width="1" fill="none" fill-rule="evenodd">
        <g id="southwest">
            <path d="M66.0769055,804.905497 C67.4776401,834.697047 85.9336156,844.268734 113.922368,844.268734 C133.817988,844.268734 154.401004,837.187242 154.401004,818.368113 C154.401004,796.060117 118.202391,791.780095 81.6535931,781.482102 C45.4549794,771.197078 7.5443566,754.894084 7.5443566,708.449356 C7.5443566,653.06846 63.236527,631.421922 110.757746,631.421922 C161.132312,631.421922 211.857063,655.934778 212.220216,713.014713 L146.204113,713.014713 C147.280603,690.00635 125.647036,682.535765 105.427172,682.535765 C91.2512192,682.535765 73.4826413,687.477246 73.4826413,704.169333 C73.4826413,723.67586 110.031439,727.255515 146.956359,737.514599 C183.466247,747.760713 220.352259,764.790014 220.352259,810.547345 C220.352259,874.760651 165.736579,895.343668 110.044408,895.343668 C51.875013,895.343668 0.462864969,869.767291 0.0867417875,804.892527 L66.0769055,804.892527 L66.0769055,804.905497 Z M294.150221,763.38928 C294.150221,725.828841 310.492125,688.203553 353.045923,688.203553 C395.599722,688.203553 411.941626,725.828841 411.941626,763.38928 C411.941626,800.988628 395.599722,838.587977 353.045923,838.587977 C310.492125,838.587977 294.150221,800.988628 294.150221,763.38928 Z M228.160057,763.38928 C228.160057,836.785179 273.21702,895.356637 353.045923,895.356637 C432.835917,895.356637 477.87991,836.785179 477.87991,763.38928 C477.87991,690.00635 432.835917,631.421922 353.045923,631.421922 C273.204051,631.421922 228.160057,689.99338 228.160057,763.38928 Z M719.117537,785.41194 C719.117537,858.79487 685.396148,895.356637 608.770778,895.356637 C532.184316,895.356637 498.501837,858.80784 498.501837,785.41194 L498.501837,636.752495 L564.440121,636.752495 L564.440121,789.263961 C564.440121,821.934798 576.502003,838.587977 608.757808,838.587977 C641.039553,838.587977 653.127373,821.934798 653.127373,789.263961 L653.127373,636.752495 L719.104567,636.752495 L719.104567,785.41194 L719.117537,785.41194 Z M947.463218,693.521156 L874.819565,693.521156 L874.819565,890.026064 L808.803461,890.026064 L808.803461,693.521156 L736.172778,693.521156 L736.172778,636.752495 L947.463218,636.752495 L947.463218,693.521156 Z M962.391417,636.752495 L1028.38158,636.752495 L1028.38158,728.993463 L1115.26604,728.993463 L1115.26604,636.752495 L1181.21729,636.752495 L1181.21729,890.026064 L1115.26604,890.026064 L1115.26604,785.723215 L1028.38158,785.723215 L1028.38158,890.026064 L962.391417,890.026064 L962.391417,636.752495 Z M1461.48094,890.026064 L1395.46484,890.026064 L1360.71884,715.504908 L1359.97956,715.504908 L1325.22059,890.026064 L1258.19284,890.026064 L1189.7514,636.752495 L1255.71562,636.752495 L1291.51217,821.921829 L1292.26442,821.921829 L1329.47467,636.752495 L1391.56094,636.752495 L1428.8101,821.921829 L1429.53641,821.921829 L1465.33296,636.752495 L1531.32312,636.752495 L1461.48094,890.026064 Z M1540.57057,636.752495 L1742.35417,636.752495 L1742.35417,689.630227 L1606.53479,689.630227 L1606.53479,733.960883 L1730.65544,733.960883 L1730.65544,785.048787 L1606.53479,785.048787 L1606.53479,833.296312 L1745.95976,833.296312 L1745.95976,890.026064 L1540.57057,890.026064 L1540.57057,636.752495 Z M1821.46973,804.905497 C1822.88344,834.697047 1841.32644,844.268734 1869.36708,844.268734 C1889.22379,844.268734 1909.79383,837.187242 1909.79383,818.368113 C1909.79383,796.060117 1873.62116,791.780095 1837.07236,781.482102 C1800.89969,771.197078 1762.92422,754.894084 1762.92422,708.449356 C1762.92422,653.06846 1818.65529,631.421922 1866.15057,631.421922 C1916.56405,631.421922 1967.30177,655.934778 1967.65195,713.014713 L1901.63585,713.014713 C1902.69937,690.00635 1881.03986,682.535765 1860.83297,682.535765 C1846.66999,682.535765 1828.91438,687.477246 1828.91438,704.169333 C1828.91438,723.67586 1865.46318,727.255515 1902.37513,737.514599 C1938.89799,747.760713 1975.784,764.790014 1975.784,810.547345 C1975.784,874.760651 1921.16832,895.343668 1865.46318,895.343668 C1807.28081,895.343668 1755.88163,869.767291 1755.47957,804.892527 L1821.46973,804.892527 L1821.46973,804.905497 Z M2185.23273,693.521156 L2112.60205,693.521156 L2112.60205,890.026064 L2046.66376,890.026064 L2046.66376,693.521156 L1973.94229,693.521156 L1973.94229,636.752495 L2185.23273,636.752495 L2185.23273,693.521156 Z" id="Shape" fill="#FFFFFF" fill-rule="nonzero"></path>
            <polygon id="Path" fill="#E49F45" points="1036.90272 340.471186 1040.5991 385.592998 1049.31478 388.718712"></polygon>
            <path d="M1114.61755,354.03756 C1114.61755,354.03756 1103.30791,354.724958 1099.14462,341.91083 C1094.92944,329.109672 1039.45776,128.674926 1039.45776,128.674926 C1039.45776,128.674926 1038.48503,125.795638 1036.55253,124.758057 C1032.90803,122.812592 1030.4308,128.000498 1030.4308,128.000498 L1016.03436,149.698915 L1074.20376,396.708087 L1114.61755,354.03756 Z" id="Path" fill="#5A73B5"></path>
            <path d="M1018.34298,172.629459 L1074.21673,396.695117 C1074.21673,396.695117 1062.69958,390.547449 1058.78271,388.589014 C1054.85287,386.695428 1049.45745,384.555417 1049.45745,384.555417 L1034.04937,313.831289 L1018.34298,172.629459 Z" id="Path" fill="#CC2131"></path>
            <path d="M1018.44674,173.718919 L1073.99624,401.104837 L1077.42026,400.261802 L1016.03436,149.685945 L1018.44674,173.718919 Z M1034.0364,313.481106 L1036.94163,341.119675 L1051.83092,403.646911 L1055.25493,402.777937 L1034.0364,313.481106 Z" id="Shape" fill="#EEBD31" fill-rule="nonzero"></path>
            <path d="M950.381415,406.850443 C950.381415,406.850443 794.705327,409.807549 673.982755,409.262819 C497.2308,408.471664 114.103945,406.344622 114.103945,406.344622 C114.103945,406.344622 106.724149,406.422441 103.624375,410.728403 C101.211999,414.139451 95.9592438,424.035382 95.6090602,426.382909 C95.2459067,428.717467 94.5325697,435.332047 97.2562203,435.6952 C99.9539314,436.058354 103.455768,433.684887 105.388263,431.739422 C107.294818,429.768018 109.629376,427.031397 109.629376,427.031397 C109.629376,427.031397 247.86113,432.426819 314.888875,436.136172 C381.877711,439.845525 449.2297,442.750752 508.851709,446.499014 C568.473718,450.273216 695.434747,458.911079 731.296146,462.866858 C767.144577,466.822636 900.071697,487.872564 900.071697,487.872564 C900.071697,487.872564 925.388678,442.102264 934.208118,427.99116 C943.040528,413.905995 950.381415,406.850443 950.381415,406.850443 Z" id="Path" fill="#B3B4B6"></path>
            <path d="M906.271244,459.209384 C906.271244,459.209384 847.803544,451.466434 820.346552,448.885451 C764.226379,443.515968 680.675154,439.56019 600.094005,438.522609 C547.203304,437.822242 112.314117,421.169063 112.314117,421.169063 L112.314117,422.932952 C112.340057,424.65793 517.671149,438.289153 589.017826,442.102264 C598.369026,442.621055 610.638424,443.697545 611.818672,445.422524 C613.011891,447.186412 612.765465,450.091639 612.765465,450.091639 L633.43927,449.300484 L635.177219,445.811617 C635.177219,445.811617 705.291768,448.107265 738.001515,451.310797 C770.737201,454.553238 792.370769,456.68028 793.551018,458.431198 C794.731266,460.156177 793.901202,465.447841 793.901202,465.447841 L821.617589,461.699579 C821.617589,461.699579 888.632364,470.4412 890.253585,474.33213 C894.066696,483.68333 900.071697,487.859595 900.071697,487.859595 L906.271244,459.209384 Z" id="Path" fill="#929496"></path>
            <path d="M935.673701,414.593393 L939.720268,409.872398 C939.720268,409.872398 935.621822,411.065617 878.41219,411.571437 C821.163647,412.077258 514.428708,411.636286 385.120152,410.209612 C226.279441,408.510573 115.608438,408.328996 115.608438,408.328996 C115.608438,408.328996 113.338729,408.12148 111.030111,409.327668 C108.799311,410.559796 108.085974,411.636286 108.085974,411.636286 C108.085974,411.636286 107.567183,410.676524 115.349042,410.624645 C123.169811,410.559796 342.306958,413.322356 402.784972,414.269149 C463.224076,415.202972 932.47017,417.49862 932.47017,417.49862 L935.673701,414.593393 Z" id="Path" fill="#DBDCDD"></path>
            <path d="M1422.27334,493.838656 C1422.27334,493.838656 1455.46297,483.618481 1466.52618,481.167196 C1477.60236,478.72888 1538.21007,465.953662 1548.11897,465.266264 C1558.05381,464.630746 1570.31024,463.333769 1578.44228,460.921393 C1586.6262,458.509017 1630.11382,424.839507 1632.9542,414.333997 C1635.76864,403.789579 1626.9492,396.850754 1626.9492,396.850754 L1576.05584,389.691444 L1492.89371,425.487995 L1422.27334,493.838656 Z" id="Path" fill="#B3B4B6"></path>
            <path d="M1536.38133,413.400174 C1536.38133,413.400174 1621.29438,412.142107 1623.95318,411.843803 C1626.63793,411.597377 1629.37455,409.081243 1629.37455,409.081243 C1629.37455,409.081243 1628.28509,412.064289 1627.72739,412.998112 C1627.11781,413.931935 1625.84677,414.813879 1625.84677,414.813879 L1525.59049,419.016083 L1536.38133,413.400174 Z M1505.15014,424.774658 L1621.90396,418.510262 C1621.90396,418.510262 1621.11281,419.781299 1620.28274,420.416817 L1589.98537,443.879122 C1589.98537,443.879122 1566.60088,441.75208 1554.95404,443.049057 C1543.25531,444.307124 1471.00075,459.533628 1471.00075,459.533628 L1505.15014,424.774658 Z" id="Shape" fill="#929496" fill-rule="nonzero"></path>
            <path d="M1587.68972,447.108593 C1587.68972,447.108593 1584.79746,450.351034 1582.47588,451.570192 C1580.14132,452.711532 1564.13663,459.883812 1564.13663,459.883812 C1564.13663,459.883812 1557.44423,459.663326 1555.39501,460.233995 C1553.29523,461.002872 1551.24623,461.903911 1549.26031,462.931706 L1483.69815,479.26064 C1483.69815,479.26064 1485.13779,478.689971 1483.95754,475.162195 C1482.79026,471.712237 1483.34796,471.958663 1476.66853,472.607151 C1469.9502,473.255639 1442.57102,479.909129 1442.57102,479.909129 L1465.82581,465.694266 C1465.82581,465.694266 1543.3461,448.96327 1554.13694,447.705202 C1564.88888,446.460105 1587.68972,447.108593 1587.68972,447.108593 Z" id="Path" fill="#929496"></path>
            <path d="M1561.03685,403.257818 L1625.85974,405.060615 C1625.85974,405.060615 1628.77794,405.307041 1629.10218,406.746685 C1629.37455,408.225238 1630.82716,409.094212 1630.82716,409.094212 C1630.82716,409.094212 1633.13578,404.126792 1630.52886,402.401814 C1627.84411,400.637926 1619.68613,398.679491 1619.68613,398.679491 L1574.97935,393.21922 L1561.03685,403.257818 Z" id="Path" fill="#DBDCDD"></path>
            <path d="M1071.32447,436.927328 L1071.0132,399.366889 C1071.0132,399.366889 1097.23806,369.938492 1124.24111,343.998962 C1151.30901,318.098342 1270.21582,205.520783 1350.62836,138.609766 C1431.00199,71.7246882 1509.83222,25.3188695 1600.16664,5.64373612 C1700.30619,-16.1714084 1753.06719,38.5609994 1753.06719,38.5609994 C1753.06719,38.5609994 1788.81187,49.5334205 1799.95289,55.2919961 C1811.09392,61.0505717 1835.69757,70.246135 1826.90407,110.335678 C1820.14682,141.061051 1813.58412,192.862292 1761.84772,258.852456 C1761.84772,258.852456 1719.85163,249.099193 1617.85739,250.746353 C1515.90207,252.393513 1436.46226,251.537509 1383.66235,273.054349 C1330.92729,294.532279 1247.24636,341.94974 1221.74781,362.428998 C1202.50839,377.97307 1183.43313,393.719236 1164.5252,409.664882 L1074.00921,475.862562 L1071.32447,436.927328 Z" id="Path" fill="#5A73B5"></path>
            <path d="M1074.03515,403.439395 C1074.03515,403.439395 1106.12235,373.93318 1137.39245,343.311565 C1168.64959,312.70292 1228.92009,257.257175 1276.4413,215.961443 C1323.98846,174.652742 1457.46031,75.3951317 1498.14646,58.7030443 C1538.91044,41.9590778 1560.99795,33.619519 1567.98865,30.0658034 C1574.97935,26.4991181 1528.62541,26.1100251 1414.42663,99.1427712 C1369.3567,127.961589 1326.2452,165.314512 1285.68875,201.850339 C1245.10635,238.438046 1070.29986,399.224221 1070.29986,399.224221 L1074.03515,403.439395 Z" id="Path" fill="#798BC4"></path>
            <path d="M1115.71998,403.076241 C1115.71998,403.076241 1275.39075,274.727448 1312.57507,252.250846 C1349.75938,229.735334 1393.0784,197.427649 1402.35178,191.513437 C1411.6511,185.573284 1465.0995,154.757123 1481.44141,149.919401 C1497.73143,145.094648 1543.17749,133.058706 1561.7891,122.35865 C1580.38774,111.671564 1607.10546,97.4307622 1622.28008,96.1337857 C1637.45471,94.8368092 1666.55886,84.0848741 1691.05875,81.4909212 C1715.55863,78.9747868 1736.72529,76.1344083 1736.72529,76.1344083 C1740.26604,76.0825292 1733.93679,67.3019984 1694.24931,72.3472369 C1654.60074,77.3535662 1629.14109,77.3924755 1590.72465,90.5438171 C1552.29523,103.760007 1454.36054,125.627031 1434.63353,138.648675 C1414.90651,151.670319 1282.51115,243.924257 1229.21839,289.940982 C1175.89969,335.957708 1097.64013,401.986781 1097.64013,401.986781 L1115.71998,403.076241 Z" id="Path" fill="#6B81BE"></path>
            <path d="M1399.31686,165.301542 C1400.93808,164.173172 1402.4296,159.179813 1402.79275,154.783063 C1403.27712,148.973575 1404.09557,143.196793 1405.24404,137.481396 C1406.10004,132.903069 1405.14028,130.244267 1403.44124,131.17809 L1399.92644,133.305132 C1398.00691,134.49835 1395.29623,139.271224 1394.53101,143.88846 C1393.52862,149.6035 1392.97787,155.388607 1392.88385,161.190126 C1392.75416,165.729544 1393.92143,168.816348 1396.10035,167.415614 L1399.31686,165.301542 Z M1380.52367,177.960032 C1382.04113,176.805723 1383.49374,171.916122 1383.89581,167.59719 C1384.10332,164.510386 1384.42757,161.51437 1384.85557,158.427566 C1385.28357,155.768765 1385.65969,153.213721 1386.21739,150.51601 C1387.02152,145.976592 1386.0877,143.382639 1384.44054,144.329432 C1383.27326,145.00386 1382.23568,145.691257 1381.0684,146.378655 C1379.21372,147.558903 1376.58086,152.279898 1375.85455,156.858225 C1375.42655,159.828301 1375.02449,162.759468 1374.76509,165.742514 C1374.49964,168.459304 1374.33093,171.184679 1374.25927,173.913466 C1374.18145,178.336156 1375.29685,181.42296 1377.39795,180.022225 L1380.52367,177.960032 Z M1362.5346,191.34483 C1364.05207,190.268339 1365.4528,185.404677 1365.77704,181.150595 C1365.98456,178.08973 1366.36068,175.145593 1366.73681,172.084729 C1367.13887,169.464836 1367.56687,166.948702 1368.05972,164.30287 C1368.85088,159.854241 1367.93003,157.260288 1366.36068,158.194111 L1363.11824,160.204424 C1361.31545,161.397643 1358.78634,166.040818 1358.09894,170.528357 C1357.69688,173.485463 1357.30779,176.325842 1357.03542,179.269979 C1356.79795,181.966866 1356.63792,184.670013 1356.55554,187.376082 C1356.47772,191.720953 1357.56718,194.781817 1359.59047,193.381083 C1360.58914,192.719625 1361.57484,192.058167 1362.5346,191.34483 Z M1346.10191,203.860653 C1347.48968,202.758223 1348.83853,197.998319 1349.16278,193.796115 C1349.57074,188.22811 1350.30697,182.689036 1351.36764,177.207786 C1352.10691,172.824005 1351.23794,170.255992 1349.69454,171.202785 C1348.65695,171.851273 1347.64531,172.538671 1346.60773,173.174189 C1344.88275,174.367407 1342.45741,178.932765 1341.82189,183.368424 C1341.39389,186.273652 1341.05667,189.049181 1340.78431,192.006288 C1340.53719,194.649787 1340.39441,197.302003 1340.35631,199.956754 C1340.27849,204.236776 1341.29013,207.258731 1343.22262,205.845027 C1344.19536,205.196539 1345.12918,204.54805 1346.10191,203.860653 Z M1331.01807,216.104111 C1332.3799,215.02762 1333.67688,210.306626 1334.00112,206.169271 C1334.20864,203.186225 1334.50694,200.371786 1334.85713,197.38874 C1335.20731,194.846666 1335.62234,192.395381 1336.05034,189.814397 C1336.81556,185.495466 1335.97252,183.005271 1334.50694,183.900185 L1331.5239,185.845649 C1329.87674,186.999958 1327.59406,191.526406 1326.95854,195.845338 C1326.13934,201.26611 1325.65853,206.732638 1325.51889,212.213181 C1325.46702,216.454295 1326.42678,219.398431 1328.33333,218.075515 C1329.22825,217.401087 1330.16207,216.739629 1331.01807,216.104111 Z M1317.49061,228.036295 C1318.78759,226.998713 1319.96783,222.355538 1320.30505,218.296001 C1320.48047,215.398261 1320.76601,212.508239 1321.16105,209.632198 C1321.4853,207.116064 1321.84845,204.703688 1322.27645,202.187553 C1322.96385,197.907531 1322.1727,195.456245 1320.75899,196.325219 C1319.82517,196.973708 1318.90431,197.622196 1317.91861,198.257714 C1316.32333,199.412023 1314.14441,203.847683 1313.53483,208.153645 C1312.75256,213.485494 1312.30638,218.861264 1312.19895,224.249123 C1312.17301,228.412418 1313.10683,231.330615 1314.85775,230.007699 C1315.72672,229.333271 1316.60867,228.723692 1317.49061,228.036295 Z M1304.1966,238.360227 C1305.4417,237.322646 1306.60898,232.744319 1306.88134,228.762601 C1307.1961,223.438614 1307.82406,218.137778 1308.76196,212.887609 C1309.39748,208.672436 1308.6582,206.273029 1307.32231,207.129034 C1306.41443,207.738613 1305.54546,208.387101 1304.61163,209.035589 C1303.12011,210.11208 1301.01901,214.50883 1300.40943,218.711034 C1299.71937,223.977299 1299.30809,229.276352 1299.1773,234.586026 C1299.12542,238.723381 1300.00737,241.602669 1301.70641,240.266783 C1302.5235,239.631264 1303.36654,239.021685 1304.1966,238.360227 Z M1290.03362,251.783934 C1291.22684,250.785262 1292.3163,246.245844 1292.58866,242.328975 C1292.77024,239.488597 1293.01666,236.777916 1293.35388,233.950507 C1293.62624,231.512192 1293.9894,229.164664 1294.36552,226.713379 C1295.00104,222.576024 1294.2877,220.163647 1293.01666,221.032622 C1292.17333,221.682495 1291.3127,222.309594 1290.43568,222.913237 C1289.04792,223.989728 1287.01166,228.30866 1286.4799,232.471954 C1285.73683,237.645576 1285.32528,242.861413 1285.24777,248.087551 C1285.1959,252.160057 1286.07784,254.987466 1287.66015,253.703459 C1288.46428,253.054971 1289.25543,252.432422 1290.03362,251.783934 Z M1276.73961,263.404843 C1277.88095,262.393202 1278.91853,257.970512 1279.17792,254.092552 C1279.38544,251.317023 1279.60593,248.619311 1279.9172,245.843782 C1280.18957,243.431406 1280.52678,241.135757 1280.87696,238.723381 C1281.48654,234.650875 1280.77321,232.277408 1279.57999,233.107473 L1277.1287,234.988089 C1275.80579,236.064579 1273.88626,240.318662 1273.3545,244.378198 C1273.0562,247.114819 1272.74492,249.708772 1272.56334,252.393513 C1272.38177,254.883708 1272.29098,257.283114 1272.21316,259.773309 C1272.16128,263.755027 1273.00432,266.530557 1274.52178,265.27249 C1275.24809,264.662911 1276.00033,264.053332 1276.73961,263.404843 Z M1264.35348,273.586109 C1265.39106,272.613376 1266.40271,268.268505 1266.63616,264.416485 C1266.81774,261.679865 1267.01228,259.047002 1267.3495,256.310382 C1267.60889,253.936915 1267.88126,251.667206 1268.2055,249.293739 C1268.78914,245.260142 1268.12768,242.964494 1266.98635,243.781589 C1266.22113,244.391168 1265.46888,244.974808 1264.67773,245.623296 C1263.40669,246.660877 1261.59092,250.837141 1261.11104,254.870738 C1260.7868,257.52954 1260.55334,260.084584 1260.37177,262.743385 C1260.16425,265.181701 1260.11237,267.542198 1260.02158,269.980514 C1259.9697,273.936293 1260.76086,276.685883 1262.2005,275.414846 C1262.90087,274.805267 1263.64015,274.234597 1264.35348,273.586109 Z M1252.77148,283.780344 C1253.80906,282.794642 1254.74289,278.51462 1254.97634,274.740418 C1255.10604,272.042707 1255.32653,269.448754 1255.61186,266.751043 C1255.81938,264.416485 1256.11768,262.185686 1256.44193,259.851128 C1256.97369,255.89535 1256.36411,253.625641 1255.27465,254.416796 C1254.56765,255.026112 1253.84987,255.622816 1253.12167,256.206624 C1251.90251,257.257175 1250.20347,261.355621 1249.72359,265.350308 C1249.45122,267.98317 1249.19183,270.460396 1249.01025,273.093258 C1248.88055,275.492664 1248.75086,277.801282 1248.73789,280.213659 C1248.66007,284.091618 1249.42528,286.802299 1250.73523,285.570172 C1251.48748,284.960593 1252.11003,284.389923 1252.77148,283.780344 Z M1240.38536,293.533607 C1241.31918,292.547905 1242.18815,288.306792 1242.35676,284.610409 C1242.5124,281.951607 1242.73289,279.435473 1243.01822,276.776671 C1243.25168,274.468053 1243.47216,272.276163 1243.80938,269.980514 C1244.3152,266.089585 1243.70562,263.858785 1242.69398,264.649941 C1242.01922,265.247494 1241.33607,265.835515 1240.64475,266.413829 C1239.52935,267.412501 1237.90813,271.485007 1237.48013,275.362967 C1237.20777,277.95692 1237.02619,280.408205 1236.84461,282.989188 C1236.68897,285.375625 1236.58522,287.632364 1236.57225,290.031771 C1236.52037,293.818942 1237.20777,296.477744 1238.49177,295.258586 L1240.38536,293.533607 Z M1217.15651,309.680965 C1218.01251,308.734172 1218.80367,304.739484 1218.98525,301.224678 C1219.11494,298.708543 1219.30949,296.296167 1219.56889,293.741123 C1219.75046,291.575173 1219.99689,289.487041 1220.28222,287.29515 C1220.71022,283.624707 1220.23034,281.471726 1219.24464,282.249912 L1217.36402,283.910042 C1216.35238,284.869804 1214.92571,288.721824 1214.52365,292.431177 C1214.04152,297.060341 1213.75161,301.707511 1213.65467,306.360705 C1213.62873,309.95333 1214.26425,312.482434 1215.43153,311.328125 L1217.15651,309.680965 Z M1207.27355,318.565253 C1208.12955,317.67034 1208.84289,313.740501 1209.02447,310.290543 C1209.1801,307.800349 1209.29683,305.426882 1209.53029,302.949657 C1209.7378,300.783706 1209.95829,298.773392 1210.24362,296.607442 C1210.67163,293.014817 1210.16581,290.926685 1209.28386,291.640022 C1208.7136,292.216512 1208.12086,292.770318 1207.507,293.300151 C1206.54724,294.233975 1205.17245,298.021146 1204.82226,301.65268 C1204.56287,304.065056 1204.39426,306.360705 1204.23862,308.773081 C1204.13486,310.977941 1204.00517,313.092013 1204.00517,315.283903 C1203.97923,318.837619 1204.58881,321.327813 1205.67827,320.173504 L1207.27355,318.565253 Z M1198.01314,327.164208 C1198.80429,326.269294 1199.47872,322.417274 1199.63436,319.032165 C1199.84671,314.556913 1200.23611,310.09182 1200.80164,305.647368 C1201.17776,302.132561 1200.72382,300.083339 1199.89375,300.783706 C1199.33201,301.311066 1198.7828,301.851624 1198.24659,302.404926 C1197.33871,303.33875 1196.04173,306.996223 1195.69155,310.562909 C1195.45846,312.883696 1195.28979,315.210502 1195.18573,317.540642 C1195.08197,319.706593 1194.95227,321.781755 1194.92633,323.947706 C1194.87445,327.410633 1195.45809,329.848949 1196.49567,328.733549 C1196.98852,328.201789 1197.50731,327.695968 1198.01314,327.164208 Z M1188.48036,336.035527 C1189.16776,335.179522 1189.80327,331.405321 1189.99782,328.098031 C1190.07564,325.711594 1190.23128,323.415946 1190.42582,321.042479 C1190.6074,318.993256 1190.80195,317.008882 1191.0354,314.959659 C1191.38559,311.496732 1190.95758,309.486418 1190.20534,310.199755 C1189.67358,310.744485 1189.16776,311.250306 1188.66194,311.795036 C1187.80593,312.68995 1186.56083,316.295545 1186.24956,319.784411 C1186.06798,322.118969 1185.87344,324.310859 1185.74374,326.606508 C1185.66592,328.733549 1185.5881,330.782772 1185.56216,332.896844 C1185.56216,336.281952 1186.06798,338.681359 1187.02774,337.578929 L1188.48036,336.035527 Z M1180.07595,344.037872 C1180.73741,343.168897 1181.32105,339.498454 1181.46372,336.217103 C1181.56747,333.908485 1181.72311,331.690656 1181.89172,329.343128 C1182.07329,327.332815 1182.21596,325.426259 1182.42348,323.402976 C1182.77366,319.991928 1182.3716,318.046463 1181.6842,318.73386 C1181.15244,319.239681 1180.6985,319.732532 1180.19268,320.277262 C1179.40152,321.172176 1178.29909,324.712922 1178.01376,328.12397 C1177.7803,330.393679 1177.66357,332.54666 1177.53388,334.816369 C1177.43012,336.904501 1177.40418,338.888875 1177.3523,340.977007 C1177.32636,344.284297 1177.80624,346.631825 1178.71413,345.568304 C1179.18104,345.036544 1179.64795,344.543693 1180.07595,344.037872 Z M1169.58341,353.038889 C1170.24487,352.208824 1170.77663,348.577289 1170.93227,345.412667 C1171.03602,343.129988 1171.13978,340.951068 1171.30839,338.64245 C1171.46403,336.709955 1171.60669,334.829339 1171.78827,332.844965 C1172.11252,329.498765 1171.71045,327.60518 1171.10087,328.279607 C1170.62099,328.785428 1170.19299,329.278279 1169.73905,329.79707 C1168.99977,330.653074 1167.96219,334.116002 1167.71577,337.449231 C1167.52615,339.628311 1167.40072,341.812501 1167.33964,343.998962 C1167.20661,345.997912 1167.1374,348.000599 1167.13213,350.003964 C1167.13213,353.272344 1167.58607,355.542053 1168.40316,354.504472 C1168.80523,353.998651 1169.23323,353.53174 1169.58341,353.038889 Z M1158.3905,362.052875 C1158.97414,361.23578 1159.45402,357.604246 1159.47996,354.426653 C1159.53184,352.118035 1159.6356,349.965054 1159.73936,347.669406 C1159.84312,345.698002 1159.97282,343.817386 1160.08954,341.833012 C1160.323,338.525722 1159.90797,336.619166 1159.32433,337.306564 C1158.9482,337.812385 1158.53317,338.318205 1158.10517,338.862936 C1157.41777,339.71894 1156.56177,343.207807 1156.32831,346.554006 C1156.19861,348.745896 1156.1208,350.872938 1156.06892,353.103737 C1156.01704,355.114051 1156.01704,357.072485 1156.01704,359.108739 C1156.04298,362.377119 1156.5488,364.646828 1157.26213,363.609247 C1157.65022,363.099238 1158.02645,362.580308 1158.3905,362.052875 Z M1149.51918,369.406732 C1150.05095,368.602606 1150.47895,365.0878 1150.53083,361.988026 C1150.58271,359.796136 1150.66052,357.669095 1150.76428,355.477204 C1150.89398,353.544709 1150.99774,351.741912 1151.14041,349.796447 C1151.34792,346.592915 1150.98477,344.725269 1150.37519,345.412667 C1150.02501,345.918488 1149.60997,346.385399 1149.23385,346.87825 C1148.57239,347.747224 1147.74233,351.132333 1147.53481,354.361805 C1147.28942,358.425141 1147.1856,362.495791 1147.22354,366.566353 C1147.27542,369.730976 1147.70342,371.935836 1148.41675,370.924194 L1149.51918,369.406732 Z M1141.21854,375.878645 C1141.69842,375.113428 1142.10048,371.68941 1142.1783,368.719334 C1142.20424,366.553384 1142.28206,364.504161 1142.38581,362.390089 C1142.51551,360.509473 1142.61927,358.745585 1142.71006,356.877939 C1142.94351,353.752226 1142.58036,351.962398 1142.02266,352.597917 L1140.90726,354.03756 C1140.29768,354.906535 1139.49356,358.174915 1139.28604,361.313599 C1139.18228,363.401731 1139.07852,365.373135 1139.02665,367.461267 C1139.00071,369.367823 1139.00071,371.209529 1139.00071,373.116085 C1139.02665,376.215858 1139.48059,378.3429 1140.16798,377.331258 C1140.53114,376.851377 1140.85538,376.371496 1141.21854,375.878645 Z M1133.03461,382.596983 C1133.5145,381.831767 1133.9425,378.537446 1133.96844,375.645189 C1133.99438,373.570026 1134.07219,371.585652 1134.20189,369.49752 C1134.27971,367.707693 1134.38347,366.008653 1134.52614,364.218826 C1134.68177,361.196871 1134.3705,359.420013 1133.83874,360.081471 C1133.46262,360.509473 1133.15134,360.976385 1132.77522,361.443296 C1132.16564,362.260391 1131.41339,365.437984 1131.23182,368.459939 C1131.12806,370.470253 1131.0243,372.415717 1130.97242,374.426031 C1130.94648,376.254768 1130.94648,378.018656 1130.94648,379.886302 C1130.97242,382.843408 1131.40042,384.93154 1132.06188,383.945838 C1132.3991,383.504866 1132.6974,383.063894 1133.03461,382.596983 Z M1124.55239,389.989749 C1125.00633,389.263442 1125.36948,386.05991 1125.4473,383.28438 C1125.47324,381.274067 1125.55106,379.367511 1125.61591,377.344228 C1125.69373,375.619249 1125.81045,373.93318 1125.94015,372.234141 C1126.1347,369.277034 1125.79748,367.590965 1125.29166,368.200544 C1124.92851,368.680425 1124.60427,369.108427 1124.29299,369.562369 C1123.70935,370.314615 1122.98305,373.37548 1122.81444,376.332586 C1122.71068,378.265081 1122.63286,380.145697 1122.59395,382.091162 C1122.56801,383.880989 1122.5291,385.618938 1122.56801,387.382826 C1122.59395,390.262114 1122.98305,392.272427 1123.60559,391.351574 L1124.55239,389.989749 Z M1116.80944,396.461661 C1117.23744,395.735355 1117.61356,392.67449 1117.6395,389.989749 C1117.67841,388.044284 1117.75623,386.202577 1117.82108,384.270082 C1117.88593,382.584013 1117.98969,381.001702 1118.14532,379.302662 C1118.28799,376.462284 1117.98969,374.841063 1117.53574,375.411733 C1117.2115,375.891614 1116.88726,376.267737 1116.55004,376.747619 C1116.00531,377.473926 1115.33088,380.456972 1115.14931,383.29735 L1114.94179,388.848409 C1114.94179,390.612297 1114.90288,392.220548 1114.90288,393.984436 C1114.94179,396.746996 1115.33088,398.653552 1115.91452,397.771608 C1116.23877,397.317666 1116.5241,396.915603 1116.80944,396.461661 Z M1109.36479,402.635269 C1109.76686,401.947872 1110.11704,398.964826 1110.15595,396.370873 C1110.19486,394.503227 1110.2208,392.713399 1110.33753,390.832783 C1110.40237,389.211563 1110.48019,387.668161 1110.59692,386.04694 C1110.76553,383.31032 1110.49316,381.753948 1110.05219,382.337587 C1109.72795,382.72668 1109.44261,383.167652 1109.11837,383.595655 C1108.61255,384.321961 1107.96406,387.14937 1107.82139,389.885991 C1107.71312,391.687076 1107.64394,393.490297 1107.61387,395.294383 C1107.562,396.941543 1107.562,398.523854 1107.562,400.222893 C1107.61387,402.881695 1107.96406,404.749341 1108.5477,403.893337 C1108.78115,403.465334 1109.07946,403.076241 1109.36479,402.635269 Z M1103.06149,407.330324 C1103.46355,406.668866 1103.78779,403.802548 1103.8267,401.325323 C1103.8267,399.522526 1103.90452,397.797547 1103.96937,395.99475 C1104.03422,394.438378 1104.11204,392.933885 1104.2158,391.390483 C1104.39737,388.770591 1104.11204,387.253128 1103.70998,387.797858 C1103.38573,388.186951 1103.12634,388.589014 1102.81506,389.017016 C1102.34815,389.704414 1101.73857,392.428064 1101.5959,395.099836 C1101.47918,396.824815 1101.45324,398.523854 1101.41433,400.248833 C1101.37542,401.870053 1101.37542,403.413455 1101.37542,405.034676 C1101.41433,407.58972 1101.73857,409.379547 1102.2833,408.562452 C1102.52872,408.143079 1102.78826,407.732134 1103.06149,407.330324 Z M1096.77115,412.933263 C1097.1343,412.297744 1097.41964,409.522215 1097.49746,407.109838 C1097.5234,405.38486 1097.56231,403.72473 1097.64013,401.999751 C1097.66606,400.482288 1097.78279,399.081554 1097.86061,397.577061 C1098.04219,395.060927 1097.78279,393.569404 1097.35479,394.114134 C1097.0954,394.516197 1096.81006,394.86638 1096.55067,395.268443 C1096.12266,395.955841 1095.51308,398.575733 1095.35745,401.130777 C1095.27963,402.777937 1095.25369,404.399157 1095.18884,406.098197 L1095.18884,410.676524 C1095.18884,413.153749 1095.53902,414.878728 1096.00593,414.087572 C1096.26533,413.685509 1096.51176,413.296416 1096.77115,412.933263 Z M1091.37573,417.615348 C1091.69997,417.005769 1091.98531,414.372907 1092.01125,412.077258 C1092.01125,410.378219 1092.08907,408.808878 1092.16688,407.109838 C1092.19202,405.690005 1092.26122,404.271294 1092.3744,402.855755 C1092.51707,400.443379 1092.25767,399.055614 1091.90749,399.548465 L1091.15524,400.663865 C1090.71427,401.312353 1090.1436,403.867397 1090.03984,406.318683 C1089.97499,407.900994 1089.93608,409.444396 1089.89718,411.065617 C1089.87124,412.5312 1089.87124,413.983814 1089.87124,415.449397 C1089.89718,417.822864 1090.18251,419.482994 1090.64942,418.717778 L1091.37573,417.615348 Z" id="Shape" fill="#4E4E50" fill-rule="nonzero"></path>
            <path d="M1078.61348,400.482288 C1078.61348,400.482288 1105.48683,400.222893 1131.16697,398.822159 C1156.8471,397.460333 1202.95462,393.543464 1202.95462,393.543464 L1220.48974,392.246488 L1248.60819,403.076241 L1241.88985,438.185395 L1219.75046,442.465417 L1168.14377,487.872564 L1129.74029,500.453236 L1117.53574,510.491834 L1099.42995,509.480193 C1099.42995,509.480193 1107.05617,448.094295 1093.46386,426.577455 C1079.83264,405.125464 1078.61348,400.482288 1078.61348,400.482288 Z" id="Path" fill="#B3B4B6"></path>
            <path d="M1110.62286,477.08172 C1110.62286,477.08172 1136.35487,476.861234 1150.33628,478.300878 C1164.36957,479.740522 1170.62099,483.553633 1170.62099,483.553633 C1170.62099,483.553633 1137.82046,493.371745 1134.95414,495.745212 C1132.01,498.118679 1126.19955,499.921476 1126.19955,499.921476 L1105.7592,498.339165 L1110.62286,477.08172 Z M925.25898,425.74739 L108.098944,411.636286 C108.098944,411.636286 102.924008,414.230239 102.949947,418.912324 C102.988856,423.58144 103.702193,427.653946 102.405217,429.275167 C101.14715,430.896387 97.878769,434.670589 99.1757455,434.450103 C100.433813,434.190707 108.267551,427.96522 108.812281,426.421818 C109.318102,424.956235 109.175434,420.779971 108.202702,420.23524 C107.268879,419.742389 106.594451,418.367594 108.30646,418.328685 C110.005499,418.328685 672.659839,434.955924 750.154185,438.950611 C827.687439,442.984208 909.928718,454.306813 909.928718,454.306813 L925.25898,425.74739 Z M1246.46818,430.74075 L1247.15557,419.054992 C1247.15557,419.054992 1246.01424,420.637303 1237.85625,423.049679 C1229.69827,425.423146 1224.25097,424.307747 1214.52365,424.774658 C1204.77038,425.280479 1099.28729,426.564486 1099.28729,426.564486 C1099.28729,426.564486 1100.68802,428.50995 1102.45191,433.153126 L1246.46818,430.74075 Z M1104.03422,437.044056 C1105.68138,441.972566 1107.74357,450.856855 1108.09376,455.318454 C1108.96273,466.57621 1109.00164,470.908112 1109.00164,470.908112 C1109.00164,470.908112 1137.0293,470.259624 1149.89531,471.686298 C1162.73538,473.125942 1178.38988,479.597854 1178.38988,479.597854 L1244.70429,449.054058 L1244.19847,435.422835 L1104.03422,437.044056 Z" id="Shape" fill="#929496" fill-rule="nonzero"></path>
            <path d="M1089.81936,413.802237 C1089.81936,413.802237 1193.36996,411.350951 1202.72116,410.88404 C1212.04642,410.404159 1236.97431,409.003424 1241.22839,407.823175 C1245.50841,406.604018 1248.2191,403.089211 1242.31785,400.015377 C1236.46849,396.954512 1225.92407,395.086866 1225.92407,395.086866 C1225.92407,395.086866 1228.31051,399.768951 1218.60912,400.235863 C1208.85586,400.702774 1145.80983,402.427753 1133.72201,402.544481 C1121.6731,402.60933 1080.40331,403.776609 1080.40331,403.776609 L1089.81936,413.802237 Z" id="Path" fill="#DBDCDD"></path>
            <path d="M1761.53645,258.813547 L1761.69209,259.072942 C1749.91153,273.971091 1737.2018,288.110338 1723.6388,301.406255 C1666.33838,357.967399 1501.53157,432.802943 1501.53157,432.802943 C1501.53157,432.802943 1502.38758,442.906389 1484.38554,456.511673 C1469.18498,467.989915 1401.5736,511.775841 1382.19677,522.255411 C1351.39358,538.830771 1329.30607,548.986096 1322.28942,551.385503 C1314.48162,554.044305 1290.26707,560.983129 1273.92517,561.722406 C1257.55733,562.435743 1240.03517,561.994771 1240.03517,561.994771 C1240.03517,561.994771 1209.38762,583.55052 1142.68412,580.385897 C1092.54301,577.986491 1064.4505,553.162361 1062.518,551.411442 L1062.41424,551.229866 L1063.2054,537.455975 C1063.2054,537.455975 1071.84326,536.587001 1083.06211,531.048912 C1094.31987,525.510822 1105.44792,507.132665 1105.44792,507.132665 L1116.3555,508.170246 C1116.3555,508.170246 1122.14001,501.127664 1125.99203,498.352134 C1129.86999,495.615514 1149.2987,489.20845 1154.34394,488.028201 C1159.38918,486.809044 1162.90398,485.978979 1167.92328,483.203449 C1172.94258,480.427919 1196.14549,459.209384 1202.29316,452.944987 C1208.50568,446.654651 1217.36402,440.714499 1222.04611,437.977879 C1226.67632,435.202349 1237.54498,435.085621 1237.54498,435.085621 C1237.54498,435.085621 1247.9597,421.37658 1243.95204,407.784266 C1241.72124,400.158044 1234.04314,398.394156 1221.63108,394.723713 C1214.77007,392.713399 1203.64201,393.465646 1194.90039,394.178983 C1189.37527,394.645894 1183.87609,394.996078 1183.87609,394.996078 C1183.87609,394.996078 1190.84086,389.574716 1202.0597,379.717695 C1213.22667,369.899583 1307.64656,304.856212 1346.07597,287.359999 C1384.42757,269.902696 1429.52344,259.410156 1473.08888,253.547822 C1516.60244,247.724398 1662.23993,250.746353 1705.45519,251.537509 C1745.45394,252.263815 1759.60396,257.957542 1761.53645,258.813547 Z" id="Path" fill="#CC2131"></path>
            <path d="M943.001619,452.465106 C943.001619,452.465106 924.908797,452.607774 918.501733,455.02015 C912.094669,457.406587 905.765424,468.547615 904.066384,474.409948 C902.743468,479.014215 899.098964,484.26697 899.098964,484.26697 C899.098964,484.26697 901.00552,468.067733 908.540953,451.596132 C916.556268,434.009131 929.69464,415.008425 953.053186,398.640582 C984.388138,376.65683 1023.9978,380.52182 1023.9978,380.52182 C1023.9978,380.52182 971.120069,392.064911 960.783166,415.514246 C950.485173,438.976551 943.001619,452.465106 943.001619,452.465106 Z" id="Path" fill="#5A73B5"></path>
            <path d="M793.901202,465.460811 C793.901202,465.460811 792.513437,470.9989 792.86362,478.884517 C793.187864,486.355102 795.029571,493.877565 797.000975,494.992965 C798.93347,496.147274 801.747909,496.328851 805.56102,494.850298 C809.348191,493.332835 822.395775,483.579572 824.665484,477.431904 C826.974102,471.271265 824.444998,453.502687 823.588993,451.751769 C822.68111,449.987881 821.708377,447.497686 817.402415,448.107265 C812.927847,448.716844 807.79182,452.452136 803.485858,455.992882 C799.089107,459.559568 793.901202,465.460811 793.901202,465.460811 Z M612.765465,450.091639 C612.765465,450.091639 610.781091,460.921393 611.144245,466.744817 C611.468489,472.568242 611.831642,478.689971 612.726556,480.739194 C613.59553,482.788416 616.578576,486.822013 619.211438,486.536678 C621.792422,486.212434 632.012596,482.905144 634.891884,476.757476 C637.745232,470.596837 639.431302,461.829276 639.366453,456.278217 C639.327544,450.740127 638.134325,446.641682 636.629833,444.346033 C635.151279,442.011476 634.58061,439.378613 630.767499,439.417523 C626.954388,439.443462 621.31254,442.685903 618.822345,444.203366 C615.917118,445.967254 612.765465,450.091639 612.765465,450.091639 Z" id="Shape" fill="#CC2131" fill-rule="nonzero"></path>
            <path d="M1029.63965,162.487103 C1028.27614,165.499753 1027.9478,168.878908 1028.70582,172.097699 C1029.27649,174.445226 1030.24923,176.41663 1031.68887,173.433584 C1032.76536,171.202785 1032.59675,168.829318 1032.29845,165.599846 L1032.01312,162.357405 C1031.58511,157.428895 1031.14414,152.681961 1034.11422,146.456473 C1035.61871,143.291851 1038.64066,139.180435 1040.54722,146.923385 C1042.35002,154.264272 1040.11922,161.877524 1038.47206,165.37936 L1037.31775,160.593517 C1037.86248,159.192783 1039.1854,155.807674 1038.1089,151.449833 C1037.6809,149.543278 1036.70817,148.103634 1035.48901,150.658677 C1034.71751,152.386645 1034.44352,154.295621 1034.69786,156.170827 L1035.34634,163.641412 C1035.65762,167.856586 1035.65762,172.434913 1033.2193,177.493121 C1029.15977,185.988317 1026.99382,179.438586 1026.488,177.350453 C1024.90681,170.757469 1025.60158,163.823527 1028.4594,157.67532 L1029.63965,162.487103 Z M1046.61707,171.228724 C1047.4212,174.393347 1048.66629,184.328187 1042.33705,197.557347 C1036.0078,210.838386 1033.15445,204.107078 1032.40221,200.981365 C1031.59808,197.816742 1030.31408,187.881903 1036.68223,174.652742 C1043.02445,161.384673 1045.86482,168.064102 1046.61707,171.228724 Z M1034.78864,195.988006 C1035.47604,198.685717 1037.34369,200.488514 1041.11789,192.602897 C1044.89209,184.69134 1044.89209,178.932765 1044.25657,176.235054 C1043.56918,173.537343 1041.68856,171.734545 1037.92733,179.646102 C1034.12719,187.531719 1034.12719,193.290294 1034.78864,195.988006 Z M1045.82591,224.41773 C1042.25923,231.862375 1039.782,231.252796 1038.29048,225.208886 C1037.49171,221.601678 1037.42116,217.871296 1038.08296,214.236465 C1038.60176,211.1756 1039.56152,208.41304 1040.88443,205.533753 L1049.84654,186.792442 L1051.10461,191.86362 L1042.32408,210.215838 C1040.44346,214.145676 1040.09328,217.81612 1040.66395,220.150678 C1041.48104,223.574695 1042.79099,223.004026 1044.45112,219.567038 L1053.33541,200.929486 L1054.60645,206.052543 L1045.82591,224.41773 Z M1044.56785,249.2678 L1043.33572,244.26147 L1054.45081,221.019652 L1052.69989,213.834402 L1055.07336,208.828073 L1059.8592,228.217871 L1057.48573,233.224201 L1055.66997,226.025981 L1044.56785,249.2678 Z" id="Shape" fill="#EEBD31" fill-rule="nonzero"></path>
            <path d="M1750.91421,255.013406 L1750.96609,255.156073 C1748.63153,258.178028 1710.20212,306.970284 1660.68356,336.800743 C1629.98413,355.295628 1470.81917,442.789662 1470.81917,442.789662 C1470.81917,442.789662 1476.95387,443.801303 1481.71377,442.685903 C1488.73042,441.064683 1494.94293,437.134844 1494.94293,437.134844 C1494.94293,437.134844 1495.74706,444.125547 1475.66986,458.32744 C1455.52782,472.503393 1380.49773,520.07649 1342.60007,537.72834 C1331.54984,542.877337 1304.3263,557.62396 1266.29895,558.246509 C1238.15456,558.73936 1226.48177,559.141422 1205.52263,557.234867 C1180.41316,554.926249 1138.87101,546.521841 1134.74662,544.252132 C1132.1397,542.760609 1129.00102,541.502542 1128.00234,539.881321 L1127.9375,539.751624 L1127.87265,539.621926 C1127.49652,538.791861 1127.69107,537.858038 1128.84538,536.67779 C1132.34722,533.162983 1140.46629,527.24877 1147.39214,517.249082 C1151.99641,510.556683 1158.9482,503.695677 1171.17869,497.755525 C1183.3573,491.815373 1203.44747,483.864907 1210.72351,481.063438 C1224.70491,475.693955 1233.36871,469.753803 1239.1662,462.140551 C1244.91181,454.47542 1251.8636,443.321422 1252.36942,437.497997 C1252.92712,431.635664 1240.20378,430.805599 1240.20378,430.805599 C1241.96803,427.666775 1243.2574,424.283831 1244.02986,420.767001 C1244.02986,420.767001 1249.12698,419.72942 1254.97634,418.964203 C1260.74789,418.237897 1284.5085,417.161406 1282.13503,411.727075 C1279.76156,406.292743 1257.97236,404.930918 1257.97236,404.930918 L1268.71132,390.832783 L1262.4599,386.993733 C1262.4599,386.993733 1264.08112,378.615265 1283.32825,368.135695 C1303.0812,357.37079 1322.79524,340.925128 1349.69454,326.009899 L1356.47772,322.365395 C1359.11059,321.016539 1361.84721,319.680653 1364.60977,318.344767 C1399.5114,301.67862 1434.69838,283.585798 1434.69838,283.585798 L1479.21061,263.936604 C1479.21061,263.936604 1409.70564,307.839258 1398.07176,316.503061 C1386.48976,325.166864 1416.17755,335.036855 1399.96534,354.63417 C1383.80502,374.244454 1363.68891,386.111789 1363.68891,386.111789 C1363.68891,386.111789 1360.62805,393.919587 1363.74079,395.43705 C1366.02347,396.53948 1493.51626,317.540642 1562.82668,274.545871 C1588.76621,258.476333 1623.29173,248.359916 1623.29173,248.359916 L1700.39698,247.283426 L1714.4562,253.003092 L1750.91421,255.013406 Z" id="Path" fill="#CC2131"></path>
            <path d="M1247.47982,435.1375 C1246.81836,435.020772 1242.66804,435.020772 1237.6228,435.020772 C1237.59686,435.020772 1237.54498,435.085621 1237.54498,435.085621 C1237.54498,435.085621 1226.67632,435.202349 1222.04611,437.977879 C1217.36402,440.714499 1208.49271,446.641682 1202.29316,452.944987 C1193.31414,461.728577 1184.02177,470.18602 1174.4341,478.300878 C1175.04368,478.560273 1175.65326,478.819668 1176.1072,479.066094 C1177.57279,479.792401 1181.71014,483.67036 1181.71014,483.67036 C1181.71014,483.67036 1213.95298,472.944365 1226.19643,463.722862 C1239.54232,453.658325 1245.35278,444.54058 1246.89618,440.922015 C1248.41364,437.251572 1249.25668,435.422835 1247.47982,435.1375 Z M1125.97906,498.339165 C1125.4473,498.780137 1124.83772,499.272988 1124.21517,499.817718 C1124.55715,499.884416 1124.89494,499.971028 1125.22682,500.077113 C1128.63786,500.829359 1130.25908,502.048517 1132.64552,501.438938 C1135.73232,500.608873 1146.04329,496.860611 1154.25315,493.877565 C1162.56677,490.894519 1174.34331,486.251344 1174.34331,486.251344 C1174.34331,486.251344 1172.99446,484.630123 1171.25651,483.735209 C1170.45454,483.340246 1169.64143,482.968295 1168.8182,482.61981 C1168.52601,482.826155 1168.22294,483.016653 1167.91031,483.190479 C1162.89101,485.966009 1159.37621,486.796074 1154.33097,488.015232 C1149.2987,489.20845 1129.86999,495.602544 1125.97906,498.339165 Z" id="Shape" fill="#981724" fill-rule="nonzero"></path>
            <path d="M1054.21735,250.707444 L1048.13453,263.404843 L1046.91537,258.398514 L1060.40393,230.163336 L1061.61012,235.130756 L1056.513,245.843782 L1058.80865,255.169043 L1063.91874,244.443047 L1065.13789,249.449376 L1051.64934,277.658615 L1050.43018,272.691195 L1056.47409,260.019735 L1054.21735,250.707444 Z M1065.72153,251.213264 L1067.01851,256.530868 C1060.39096,275.025753 1059.53496,277.295462 1058.09531,280.952935 L1058.09531,281.030754 C1059.5998,278.51462 1061.07836,275.998485 1068.76943,263.690178 L1070.10531,268.981842 C1067.18833,277.087359 1064.17915,285.159399 1061.07836,293.196393 L1061.1043,293.261242 C1062.46612,290.952624 1063.73716,288.94231 1071.93405,276.504306 L1073.19212,281.536575 L1058.01749,303.092324 L1056.86318,298.306481 C1062.86819,281.964577 1064.04843,278.812924 1066.47378,272.574467 L1066.47378,272.509618 C1063.69825,277.217643 1062.58285,278.838864 1054.98257,290.861836 L1053.84123,286.179751 L1065.72153,251.213264 Z M1075.72122,306.438523 L1072.58254,293.767063 L1069.75513,299.707215 L1072.63442,311.328125 L1070.24798,316.321484 L1067.38166,304.713545 L1063.8928,312.015522 L1067.12227,325.257652 L1064.7488,330.251012 L1060.24829,312.11928 L1073.77576,283.884102 L1078.1336,301.445164 L1075.72122,306.438523 Z M1070.50738,328.059121 C1069.11642,331.064381 1068.78717,334.452895 1069.57355,337.669717 C1070.15719,340.004275 1071.12993,341.962709 1072.5566,339.018573 C1073.59418,336.774803 1073.45151,334.414306 1073.16618,331.171865 L1072.88084,327.903484 C1072.40096,323.013883 1072.01187,318.253979 1074.95601,312.028492 C1076.4605,308.8509 1079.45651,304.752454 1081.40198,312.495404 C1083.19181,319.823321 1080.96101,327.423603 1079.31385,330.91247 L1078.1336,326.165536 C1078.70427,324.777771 1080.04015,321.353753 1078.95069,317.021851 C1078.48378,315.115296 1077.54996,313.675652 1076.31783,316.243666 C1075.24134,318.461495 1075.42292,320.4329 1075.52668,321.742846 L1076.18813,329.21343 C1076.49941,333.415634 1076.49941,337.993961 1074.06109,343.05217 C1070.00156,351.547366 1067.84858,344.958725 1067.32978,342.909502 C1065.75375,336.316169 1066.44834,329.383938 1069.30119,323.234369 L1070.50738,328.059121 Z" id="Shape" fill="#EEBD31" fill-rule="nonzero"></path>
            <path d="M1801.05532,127.624375 L1803.15643,130.140509 C1809.16143,141.70954 1797.83882,178.037851 1787.92992,196.325219 C1768.02133,233.094503 1748.78717,256.582747 1748.78717,256.582747 L1714.8453,251.43375 L1697.24533,248.269128 L1632.04632,244.378198 C1632.04632,244.378198 1665.81959,230.085517 1717.38737,188.180207 C1742.39308,167.856586 1780.5631,125.328726 1797.94258,126.547884 C1799.05928,126.614298 1800.13618,126.986723 1801.05532,127.624375 Z" id="Path" fill="#5A73B5"></path>
            <path d="M1072.94569,364.581979 L1071.72654,359.57565 L1082.85459,336.333831 L1081.07774,329.109672 L1083.49011,324.103343 L1088.25002,343.532051 L1085.86358,348.486501 L1084.09969,341.301251 L1072.94569,364.581979 Z M1766.7503,252.652908 C1766.7503,252.652908 1764.19525,250.850111 1751.34222,248.956525 C1718.11368,243.989105 1671.64301,241.680487 1600.27039,240.785573 C1557.4572,240.240843 1464.82714,240.266783 1393.71392,262.043018 C1326.38787,282.690884 1257.85563,329.420947 1219.58185,358.927162 C1193.36996,379.159995 1178.94758,395.475959 1178.94758,395.475959 L1189.66061,394.788562 C1189.66061,394.788562 1204.1219,380.755276 1225.27558,365.11374 C1258.556,340.510096 1328.77431,290.809957 1395.76314,272.146465 C1460.6379,254.053643 1539.19577,253.042001 1600.06288,253.444064 C1656.9353,253.833157 1707.49144,256.99778 1745.41503,262.367262 C1758.17728,264.15709 1756.97109,265.168731 1756.97109,265.168731 L1766.7503,252.652908 Z" id="Shape" fill="#EEBD31" fill-rule="nonzero"></path>
            <path d="M1814.50497,407.498931 L2094.34062,419.054992 C2094.34062,419.054992 2099.5804,419.016083 2097.85542,421.93428 C2096.10451,424.878416 2090.9166,428.445102 2087.9984,429.62535 C2085.05427,430.818569 2078.0895,432.647305 2078.0895,432.647305 C2078.0895,432.647305 2072.29202,440.273527 2069.4257,442.037415 C2066.5075,443.840212 2060.25608,444.462761 2060.25608,444.462761 C2060.25608,444.462761 2057.64915,444.851854 2057.31194,443.619726 C2056.96175,442.361659 2056.5986,437.796302 2056.5986,437.796302 L1821.26222,451.427525 L1814.50497,407.498931 Z" id="Path" fill="#B3B4B6"></path>
            <path d="M905.739484,529.116417 L900.97958,512.683725 C899.085995,504.811077 898.281869,497.340493 899.501027,485.35643 C899.501027,485.35643 901.083339,466.472452 914.429227,457.367677 C915.726203,456.485733 917.152877,455.798336 918.709249,455.318454 L919.22804,455.162817 C928.682998,452.491046 941.27664,455.992882 941.27664,455.992882 C941.27664,455.992882 963.753242,509.882255 979.809811,522.618564 C995.89232,535.290025 1039.49667,533.383469 1071.37635,527.26174 C1103.23009,521.152981 1112.85366,465.382992 1111.06383,482.139928 C1109.29994,498.909834 1107.18587,511.205171 1085.44855,535.718027 C1063.85389,559.997427 1027.16242,569.283778 1002.0789,574.575443 C989.199921,577.260184 972.339227,580.113532 948.150615,572.681857 C924.818008,565.561456 910.92739,542.929216 905.739484,529.116417 Z" id="Path" fill="#CC2131"></path>
            <path d="M1817.03407,410.196642 C1817.03407,410.196642 1917.52381,412.829505 1961.93229,415.164062 C2008.18247,417.576439 2093.5754,419.119841 2095.85808,419.612692 C2098.06294,420.092573 2096.68814,420.883729 2094.5611,421.454398 C2091.87636,422.219614 2092.75831,420.637303 2092.75831,420.637303 C2092.75831,420.637303 1988.11824,418.328685 1968.24856,417.719106 C1918.2856,416.312058 1868.32173,414.937262 1818.35699,413.594721 L1817.03407,410.196642 Z" id="Path" fill="#DBDCDD"></path>
            <path d="M1804.94625,499.272988 L1804.94625,499.298927 C1804.14213,500.038204 1797.65725,505.900537 1779.24018,516.393077 C1759.48723,527.689742 1714.36542,544.135404 1714.36542,544.135404 C1714.36542,544.135404 1702.45917,549.180643 1687.86819,553.694121 C1673.60144,558.129781 1645.28845,556.677167 1642.31837,555.548797 C1639.42611,554.433398 1642.90201,553.20127 1638.24587,551.502231 C1633.53784,549.777252 1622.96748,545.211895 1609.46596,533.085165 C1595.91255,520.919525 1595.53643,495.122663 1595.53643,495.122663 C1595.53643,495.122663 1608.88232,465.914752 1623.36954,456.459794 C1624.48494,455.733487 1625.73004,455.059059 1627.09187,454.423541 L1629.59503,453.411899 C1646.767,447.030775 1677.01249,447.199382 1677.01249,447.199382 C1677.01249,447.199382 1681.24064,461.777397 1689.55426,478.651061 C1697.86787,495.485816 1715.54566,509.960074 1759.29268,507.794123 C1791.37988,506.263691 1803.766,499.921476 1804.94625,499.272988 Z" id="Path" fill="#CC2131"></path>
            <path d="M1744.79248,31.3109008 C1741.34253,28.6131897 1735.9471,25.2280811 1735.9471,25.2280811 L1700.33213,14.4631762 L1615.52284,23.7884372 L1570.89388,38.9760319 L1550.69995,44.5919401 C1550.69995,44.5919401 1542.91809,47.0043163 1540.23335,50.9211853 C1537.52267,54.8380543 1529.52033,72.0359626 1529.52033,72.0359626 C1529.52033,72.0359626 1525.69425,81.387163 1531.16749,81.7503165 L1570.10272,84.1237834 L1618.12976,55.3049659 C1618.12976,55.3049659 1642.60371,48.8719625 1661.64332,45.5646724 C1680.69591,42.2962917 1720.7206,37.6920252 1720.7206,37.6920252 L1754.41605,38.8074249 C1754.41605,38.8074249 1748.25541,34.0475212 1744.79248,31.3109008 Z" id="Path" fill="#B3B4B6"></path>
            <path d="M1788.9675,503.903194 L1788.9675,503.916163 C1782.57438,508.143328 1775.73745,511.657475 1768.57903,514.395733 C1755.05157,519.5577 1742.13368,525.329245 1730.52574,530.076179 C1718.90483,534.849053 1700.91577,543.136732 1689.25595,546.379174 C1677.63504,549.569736 1669.67161,550.114466 1650.21696,550.296043 C1650.21696,550.296043 1643.33001,547.740999 1633.70645,543.344249 C1623.29173,538.610285 1608.27274,528.882961 1602.90326,511.620204 C1596.65183,491.43925 1599.12905,483.449874 1608.1171,471.180477 C1610.06257,468.547615 1614.32962,464.086015 1618.16867,461.829276 L1620.21789,460.856544 C1620.34759,460.817635 1620.47729,460.791695 1620.59402,460.739816 C1624.21258,459.624416 1626.41744,462.646372 1627.53284,464.773413 C1629.89334,469.442528 1640.77497,463.126253 1654.76935,461.427214 C1668.75075,459.767084 1668.03742,466.005541 1661.04671,469.157194 C1654.03007,472.334786 1647.38955,476.433232 1635.00342,485.135944 C1622.64324,493.799747 1620.86638,508.455581 1620.20492,520.141339 C1619.51752,531.827097 1635.56112,527.183922 1646.27415,522.761232 C1661.63035,516.509805 1667.8299,514.123368 1680.37166,507.871942 C1690.7345,502.697006 1697.06375,494.564963 1697.06375,494.564963 C1697.06375,494.564963 1706.46683,499.14329 1715.88288,505.277989 C1725.23408,511.438627 1748.63153,510.465895 1757.93086,510.349167 C1766.98375,510.284318 1787.50192,504.331196 1788.9675,503.903194 Z" id="Path" fill="#CC2131"></path>
            <path d="M1568.24804,80.4274004 L1569.41532,42.4259893 L1549.15655,48.2883231 C1549.15655,48.2883231 1544.18913,49.3648135 1542.32148,52.8925896 C1540.49275,56.4203656 1532.46446,73.5404553 1532.46446,73.5404553 C1532.46446,73.5404553 1531.16749,78.961817 1534.8509,79.0785449 C1538.46946,79.2082425 1568.24804,80.4274004 1568.24804,80.4274004 Z M1573.6305,41.3884081 L1572.78746,77.8723568 L1614.19992,52.2181618 L1613.08452,27.718276 L1573.6305,41.3884081 Z M1616.87169,26.7196041 L1618.49291,51.4010666 C1618.49291,51.4010666 1637.46768,45.4868538 1662.84951,42.2184731 C1688.2054,38.9371226 1719.19017,35.7335907 1719.19017,35.7335907 L1701.12329,17.1997966 L1616.87169,26.7196041 Z M1706.20743,18.3281662 L1724.65044,36.3561394 L1754.99969,39.1316691 L1740.12337,27.9776713 L1706.20743,18.3281662 Z" id="Shape" fill="#4E4E50" fill-rule="nonzero"></path>
            <path d="M1485.39719,58.8068024 C1487.44641,55.4995123 1494.61869,47.0561954 1485.72143,51.4010666 C1473.65955,57.2893399 1458.74432,65.1101081 1453.55641,69.2085538 C1446.61759,74.7207039 1444.30897,77.8464172 1444.30897,77.8464172 C1444.30897,77.8464172 1428.47289,93.5657723 1421.84534,132.929009 C1415.127,172.318185 1422.83104,208.477889 1422.83104,208.477889 C1422.83104,208.477889 1424.53008,223.224512 1431.1706,220.461952 C1437.75924,217.647513 1458.67947,207.362489 1458.67947,207.362489 C1458.67947,207.362489 1465.87769,204.58696 1463.99707,192.940111 C1461.66252,178.193488 1456.95449,141.450144 1461.41609,118.571479 C1470.32632,72.9438461 1480.98747,65.9920521 1485.39719,58.8068024 Z M1459.70408,192.382411 C1460.53415,198.179896 1459.40578,200.332877 1455.90394,202.706344 C1452.4021,205.092781 1438.09645,211.862998 1432.62321,214.197555 C1428.95277,215.818776 1426.64415,213.756583 1425.34717,202.213493 C1423.88159,188.971363 1421.78049,174.393347 1423.4925,149.465459 C1426.281,109.311067 1438.26506,89.6748428 1441.11841,85.1743344 C1444.43867,80.0383075 1448.36851,75.9009525 1449.80815,74.2797319 C1451.22186,72.6974206 1454.72369,70.3628629 1457.43437,68.3784889 C1460.11911,66.4330241 1475.9552,58.0156467 1481.48032,55.3179356 C1486.79792,52.7758617 1488.87308,51.6085829 1480.54649,62.0492436 C1468.92558,76.5105314 1457.71971,101.075266 1456.07255,132.241611 C1454.38648,163.394986 1458.89996,186.520077 1459.70408,192.382411 Z" id="Shape" fill="#B3B4B6" fill-rule="nonzero"></path>
            <path d="M941.82137,448.36666 L940.17421,460.065388 C940.17421,460.065388 927.113657,459.209384 916.99724,462.438855 C906.919733,465.642387 902.704559,472.879516 900.44782,481.270954 C899.254602,485.538007 898.826599,493.968354 898.826599,493.968354 C898.826599,493.968354 898.320779,484.682002 900.370001,475.836622 C901.991222,468.81998 904.896449,457.484405 917.671668,451.557223 C927.632447,446.849198 941.82137,448.36666 941.82137,448.36666 Z" id="Path" fill="#EEBD31"></path>
            <path d="M1567.18452,461.038121 L1596.21086,489.20845 C1596.21086,489.20845 1605.63988,450.57152 1623.36954,434.086949 C1641.15109,417.576439 1714.31354,369.834734 1714.31354,369.834734 C1714.31354,369.834734 1697.91975,366.851688 1678.51699,371.313287 C1659.06234,375.735977 1638.57011,389.548777 1633.52487,391.922244 C1628.50557,394.295711 1619.91959,396.344933 1619.91959,396.344933 C1619.91959,396.344933 1629.29673,399.366889 1629.75067,404.80122 C1630.17867,410.261491 1627.11781,416.538857 1623.26579,420.468696 C1619.38783,424.385565 1597.3522,442.089294 1592.73496,446.408226 C1588.10475,450.727158 1581.89224,454.293843 1576.04287,456.693249 C1572.97061,457.884036 1570.00683,459.337719 1567.18452,461.038121 Z" id="Path" fill="#B3B4B6"></path>
            <path d="M1626.9492,396.850754 C1626.9492,396.850754 1630.19164,396.53948 1635.10718,393.867708 C1640.04866,391.195937 1655.11953,380.768246 1665.30079,377.24047 C1678.4262,372.739961 1688.04976,370.911225 1695.89647,370.833406 C1703.76912,370.768557 1707.01156,372.80481 1707.01156,372.80481 L1684.92405,382.013343 C1684.92405,382.013343 1686.36369,377.914898 1679.65832,378.265081 C1672.91405,378.628235 1667.37596,378.381809 1658.95858,382.843408 C1650.50229,387.305007 1643.1225,392.869037 1638.51823,395.839113 C1633.91396,398.783249 1630.20461,400.547137 1630.20461,400.547137 L1628.60933,398.497914 C1627.6366,397.174998 1626.9492,396.850754 1626.9492,396.850754 Z" id="Path" fill="#DBDCDD"></path>
            <path d="M1620.97014,436.499326 L1625.4058,417.861773 C1624.7638,418.779275 1624.05273,419.646444 1623.27876,420.455726 C1619.4008,424.372595 1597.36517,442.076324 1592.74793,446.395256 C1588.11772,450.714188 1581.90521,454.280873 1576.05584,456.68028 C1570.23242,459.053747 1567.18452,461.025151 1567.18452,461.025151 L1596.21086,489.19548 C1596.22383,489.20845 1604.78387,454.086327 1620.97014,436.499326 Z" id="Path" fill="#929496"></path>
            <path d="M1742.93781,367.811451 C1742.93781,367.811451 1723.6388,366.812779 1709.07375,371.014983 C1694.50871,375.230156 1664.26321,388.368528 1634.70512,417.822864 C1605.22484,447.26423 1601.26907,464.241653 1598.42869,473.592853 C1595.56237,482.982963 1595.10843,493.877565 1595.10843,493.877565 C1595.10843,493.877565 1606.40509,461.530972 1627.66254,454.955301 C1656.76669,445.915375 1676.98655,444.294154 1676.98655,444.294154 C1676.98655,444.294154 1675.6377,418.62699 1695.27392,397.421424 C1714.94905,376.241798 1742.93781,367.811451 1742.93781,367.811451 Z" id="Path" fill="#5A73B5"></path>
            <path d="M1818.88875,417.355953 L2095.5079,423.153438 C2095.5079,423.153438 2094.36656,424.878416 2090.51454,426.499637 C2086.63658,428.081948 1821.94962,433.114217 1821.94962,433.114217 L1818.88875,417.355953 Z" id="Path" fill="#929496"></path>
            <path d="M1598.42869,473.592853 C1598.30089,473.993739 1598.19268,474.400606 1598.10444,474.812011 C1598.10444,475.162195 1598.05256,475.538318 1598.05256,475.914441 C1597.87099,480.233373 1597.94881,484.26697 1598.02662,486.886862 C1601.29501,479.870219 1604.99139,471.854905 1613.52549,464.514018 C1618.1557,459.98757 1621.65754,456.265247 1621.65754,456.265247 C1621.65754,456.265247 1617.93521,452.672622 1617.24782,446.952956 C1616.91229,443.843319 1616.8342,440.711279 1617.01436,437.588786 C1603.31829,455.240636 1600.58167,466.57621 1598.42869,473.592853 Z" id="Path" fill="#495C91"></path>
            <path d="M1824.31011,438.146486 L2086.23451,428.873104 C2086.23451,428.873104 2079.26975,430.494324 2077.31132,431.648634 C2075.36585,432.867791 2071.51383,436.006475 2069.17927,437.977879 C2066.87066,439.910374 2058.68673,443.113906 2057.90855,441.181411 C2057.11739,439.235946 2058.23279,433.360642 2058.23279,433.360642 L1823.94696,444.008819 L1824.31011,438.146486 Z" id="Path" fill="#929496"></path>
            <path d="M1677.53128,439.041399 C1677.53128,439.041399 1638.06429,440.844197 1617.24782,457.471435 C1597.53377,473.2297 1595.10843,493.877565 1595.10843,493.877565 L1596.37946,503.981012 C1596.37946,503.981012 1602.73465,475.136255 1623.81052,463.255951 C1645.71645,450.947644 1676.88279,449.936002 1676.88279,449.936002 L1677.53128,439.041399 Z" id="Path" fill="#EEBD31"></path>
            <path d="M915.103654,540.633568 L911.679636,534.45996 C911.30619,533.69532 910.943004,532.925712 910.590176,532.151342 C904.650024,519.389093 900.395941,502.878582 900.940671,496.432609 C901.00552,495.615514 901.148187,495.174542 901.316794,495.018905 L901.446492,494.954056 C902.808317,494.902177 906.089668,506.912179 906.089668,506.912179 C906.089668,506.912179 908.891137,516.23744 914.79238,520.841707 C920.654714,525.471913 924.934736,524.252755 930.719251,519.53176 C936.555645,514.823736 940.796759,512.048206 944.285625,510.465895 C947.787462,508.883583 953.96107,507.262363 953.96107,507.262363 C953.96107,507.262363 978.720351,530.387454 993.894976,531.438005 C995.33462,531.541763 997.565419,531.11376 1000.37986,530.309635 C1020.74239,533.772562 1048.91272,531.541763 1071.36338,527.26174 C1099.74123,521.827409 1110.45425,476.952022 1111.19353,479.053124 C1111.27054,480.084049 1111.22263,481.120502 1111.05086,482.139928 C1109.31291,498.222437 1107.3026,510.19353 1087.95171,532.78686 C1083.59387,537.611613 1078.9896,541.852726 1074.60582,544.342921 C1054.45081,555.834132 1011.78028,571.371911 987.254456,572.370582 C967.423686,573.174708 1013.29774,565.31503 1030.75505,556.430741 C1048.16047,547.468634 1038.84818,548.143062 1028.30376,548.22088 C1017.79825,548.337608 982.715039,564.990786 966.969744,567.468011 C951.250389,569.945236 944.363444,566.495279 935.375397,561.099857 C926.983959,556.106497 920.408288,549.284401 915.103654,540.633568 Z" id="Path" fill="#CC2131"></path>
            <path d="M1746.20619,366.812779 C1682.77107,369.290004 1667.24626,429.742078 1678.5948,469.429559 C1689.03546,505.913507 1729.59192,513.747245 1737.7499,513.682396 C1749.8896,513.565669 1773.1833,514.538401 1790.29042,507.39206 C1807.33269,500.23275 1816.07431,491.374401 1822.31277,475.162195 C1829.53693,456.407915 1830.34105,410.469007 1799.31738,384.283052 C1775.49192,364.115068 1746.20619,366.812779 1746.20619,366.812779 Z M1025.32072,380.52182 C974.699724,381.702069 934.908485,415.916309 938.047168,466.148208 C941.328519,517.87163 975.361182,535.445662 1006.8388,537.948826 C1024.36095,539.349561 1035.64465,539.258773 1053.54292,537.533794 C1071.45417,535.834755 1113.41136,524.966092 1111.71232,464.643715 C1109.97437,404.308369 1053.73747,379.795513 1025.32072,380.52182 Z" id="Shape" fill="#B3B4B6" fill-rule="nonzero"></path>
            <path d="M1611.54112,14.5150553 C1611.54112,14.5150553 1612.30634,17.4202826 1612.39712,18.2503476 C1612.50088,19.1841707 1613.48658,20.6627239 1611.00936,21.4149702 C1608.50619,22.1672166 1591.76223,27.7053062 1590.28367,28.0295503 C1588.81809,28.3148851 1587.78051,27.0179087 1588.18257,25.2540206 L1590.33555,21.1555749 C1590.33555,21.1555749 1590.63386,19.8196891 1593.12405,19.0674428 C1595.61425,18.3151964 1607.33892,14.7225715 1608.77856,14.2426902 C1609.70338,14.0137014 1610.67882,14.1098722 1611.54112,14.5150553 Z M1621.32032,19.4695055 C1621.32032,19.4695055 1639.98381,17.3554338 1642.31837,17.3554338 C1644.67887,17.3165245 1645.83318,15.9546992 1644.82154,14.2167507 C1643.88771,12.5306813 1642.38322,10.8057025 1642.38322,10.8057025 C1642.38322,10.8057025 1641.24188,10.0145469 1639.29642,10.2350329 C1635.82052,10.6370956 1620.98311,11.7914047 1619.66019,11.9600116 C1618.29837,12.1804976 1616.87169,12.7900766 1617.13109,14.3464484 C1617.53315,16.681006 1617.40345,16.7847642 1617.61097,17.5888896 C1617.83146,18.3281662 1618.99873,19.7029613 1621.32032,19.4695055 Z" id="Shape" fill="#4E4E50" fill-rule="nonzero"></path>
            <path d="M998.512212,403.309697 L1055.34572,402.816846 C1069.32713,409.22391 1079.72888,420.364938 1086.03219,432.621366 L1086.55098,489.869908 C1078.48378,506.458237 1061.81763,518.623877 1031.20899,519.246426 C982.287036,520.296976 963.545726,482.995933 963.90888,458.236652 C964.168275,439.910374 974.064206,414.787939 998.512212,403.309697 Z" id="Path" fill="#000000"></path>
            <path d="M968.539086,435.837868 C965.639136,442.953693 964.069739,450.541312 963.90888,458.223682 C963.545726,481.854593 980.600967,516.834049 1024.67223,519.129698 C1045.50167,512.37245 1059.79435,489.986636 1059.5998,470.052107 C1059.39229,445.889435 1037.87545,418.899355 1008.48596,418.652929 C991.145386,418.510262 977.68277,427.174065 968.539086,435.837868 Z" id="Path" fill="#636466"></path>
            <path d="M1024.16641,469.494407 C1024.23846,477.926825 1017.4758,484.828686 1009.04366,484.928428 C1000.61781,484.964778 993.736397,478.204907 993.622611,469.779742 C993.773663,461.507309 1000.48227,454.858246 1008.75573,454.780957 C1017.02918,454.703668 1023.86084,461.22624 1024.16641,469.494407 Z" id="Path" fill="#B3B4B6"></path>
            <path d="M1010.0553,461.219697 C1010.0553,461.219697 1018.22625,463.489406 1017.87607,466.213057 C1017.51292,468.949677 1015.2043,471.284235 1013.2329,469.37768 C1011.26149,467.445185 1012.40283,464.306501 1012.40283,464.306501 L1010.0553,461.219697 Z" id="Path" fill="#D9DADB"></path>
            <path d="M1727.20548,390.080537 L1782.56044,389.587686 C1791.98734,394.61601 1799.67664,402.373119 1804.62201,411.843803 L1805.12783,468.690282 C1797.29409,483.488784 1782.85874,493.410654 1763.68943,494.357447 C1734.48152,495.797091 1705.14391,482.0232 1702.88717,440.001162 C1701.34377,412.271805 1711.75849,397.460333 1727.20548,390.080537 Z" id="Path" fill="#000000"></path>
            <path d="M1761.69209,443.775364 C1753.76756,406.565108 1724.45589,403.620972 1710.50043,404.399157 C1704.97531,412.829505 1701.99226,424.346656 1702.90014,439.988192 C1704.62512,471.971633 1722.00461,487.54832 1743.08047,492.593559 C1752.63919,487.042499 1767.96945,473.372367 1761.69209,443.775364 Z" id="Path" fill="#636466"></path>
            <path d="M1705.64973,449.585818 C1705.72755,458.366349 1711.44722,464.38432 1718.3601,464.086015 C1725.75287,463.81365 1732.41933,449.624728 1731.91351,445.889435 C1731.30393,441.492685 1721.7063,435.552533 1716.60918,435.604412 C1711.55098,435.630351 1705.57191,440.571832 1705.64973,449.585818 Z" id="Path" fill="#B3B4B6"></path>
            <path d="M1718.6195,439.093279 C1718.6195,439.093279 1729.17689,443.840212 1729.17689,446.395256 C1729.22877,448.911391 1727.04985,451.077341 1725.13032,449.313453 C1723.18486,447.627384 1724.72826,445.240947 1724.72826,445.240947 C1724.72826,445.240947 1722.92546,443.515968 1720.98,442.361659 C1718.99562,441.20735 1718.6195,439.093279 1718.6195,439.093279 Z" id="Path" fill="#DBDCDD"></path>
            <path d="M1822.66295,436.888419 C1820.27652,388.381498 1777.80054,373.142024 1758.69607,371.15765 C1746.28401,369.899583 1729.48816,369.277034 1714.39135,378.744963 C1699.85225,387.836768 1693.57488,400.365561 1693.57488,400.365561 C1688.7631,407.317355 1697.50472,403.815518 1698.69794,404.969827 C1699.83928,406.124136 1687.60879,419.677541 1694.28822,450.260246 C1703.22439,491.063126 1734.55934,503.55301 1768.30667,501.023906 C1786.12712,499.71396 1825.14018,487.976322 1822.66295,436.888419 Z M1763.32628,498.274316 C1725.20814,499.532383 1699.64473,469.312831 1699.72255,439.235946 C1699.82631,404.982797 1718.64544,377.422047 1758.77389,377.21453 C1786.78858,377.071863 1815.3091,401.351263 1817.24159,430.066322 C1819.05736,457.627073 1811.21065,496.653095 1763.32628,498.274316 Z M1026.11187,385.554089 C989.524165,384.685115 951.21148,410.33931 949.655108,456.278217 C947.969039,506.587935 984.958808,529.557389 1032.84318,529.946482 C1079.65106,530.296665 1105.40901,502.43761 1105.04586,461.933035 C1104.68271,421.454398 1070.10531,386.552761 1026.11187,385.554089 Z M1030.02874,522.164623 C1002.79223,521.256739 957.138662,510.75123 959.758555,455.02015 C962.391417,399.327979 1012.85677,390.158356 1027.72012,390.975451 C1058.48441,392.66152 1100.71396,415.26782 1098.8074,460.843574 C1096.55067,514.175247 1056.14985,523.059536 1030.02874,522.164623 Z M1176.35363,405.475648 C1178.15643,403.789579 1182.04736,402.842786 1191.15213,403.348607 C1200.218,403.854427 1210.60678,403.672851 1214.14752,408.744029 C1217.09166,413.037021 1211.51466,417.952562 1201.7614,420.935608 C1192.79929,423.737077 1179.16807,425.111872 1176.85945,422.271493 C1175.03071,419.975845 1173.99313,417.48565 1173.69483,412.920293 C1173.43543,409.522215 1174.2655,407.460022 1176.35363,405.475648 Z" id="Shape" fill="#DBDCDD" fill-rule="nonzero"></path>
            <path d="M1175.05665,413.503932 C1175.23823,415.890369 1175.74405,418.289776 1176.93727,420.27415 C1178.07861,422.206645 1181.50263,422.4401 1187.77999,422.102887 C1197.18307,421.635975 1214.52365,416.992799 1213.58982,410.767312 C1212.90243,406.163046 1204.26456,405.553467 1197.90938,405.073585 C1191.37262,404.645583 1178.85679,403.971155 1176.78163,406.655897 C1174.62865,409.548154 1174.8232,410.987798 1175.05665,413.503932 Z M1428.73228,133.642346 C1429.16029,134.044408 1434.41304,133.214344 1435.03559,133.032767 C1435.72299,132.825251 1445.03528,125.004482 1445.29467,124.57648 C1445.55407,124.109569 1446.48789,118.714146 1446.2285,118.312084 C1445.93019,117.9619 1438.01863,119.933304 1437.3053,120.555853 C1436.50117,121.126523 1430.34053,127.377949 1429.73096,128.000498 C1429.10841,128.636017 1428.34319,133.279192 1428.73228,133.642346 Z" id="Shape" fill="#B3B4B6" fill-rule="nonzero"></path>
            <path d="M1456.4357,82.3728652 C1457.31765,82.6452302 1456.16334,84.8889996 1455.3203,86.3675528 C1454.38648,88.0147129 1452.73932,90.6346054 1450.78088,91.2441844 C1449.26342,91.7110959 1450.14537,88.507564 1451.71471,86.2119156 C1453.29702,83.8773579 1455.5797,82.0745606 1456.4357,82.3728652 Z" id="Path" fill="#4E4E50"></path>
            <path d="M1176.24987,310.173816 C1175.48465,311.107639 1169.76499,317.449854 1168.44207,319.784411 L1167.58607,321.49642 C1166.8258,322.730974 1166.31058,324.10048 1166.0686,325.530017 L1165.30339,328.941065 C1165.19963,329.628463 1162.80022,343.376414 1162.89101,352.40337 L1162.89101,359.342194 C1162.89101,366.644172 1162.94289,374.205545 1163.42277,381.248127 C1163.72108,385.164996 1164.59005,387.253128 1166.21127,387.862707 C1167.35261,388.26477 1168.46801,387.72004 1169.12947,387.045612 L1170.06329,386.150698 C1172.64428,383.595655 1174.01907,382.19492 1174.42113,381.468613 C1174.95289,380.366183 1175.78296,375.787856 1175.78296,373.479238 L1175.70514,369.017639 L1175.35496,341.35313 C1175.19932,327.890514 1177.10587,321.068418 1178.338,316.529 L1178.71413,315.050447 C1179.82953,310.731515 1180.33535,309.655025 1179.14213,309.045446 C1177.87109,308.422897 1176.75569,309.525327 1176.24987,310.173816 Z M1169.12947,322.196788 L1170.37457,320.549628 C1171.11384,319.122953 1175.10853,314.479778 1177.01509,311.989583 C1177.80624,311.911764 1177.81921,312.858557 1177.54685,313.960987 L1177.01509,315.906452 C1175.71811,320.536658 1173.95422,327.631119 1174.04501,341.456889 L1174.30441,368.693395 L1174.17471,374.555728 C1174.20065,376.721679 1172.57943,379.873332 1172.29409,380.456972 C1171.07284,381.884914 1169.76933,383.240395 1168.39019,384.516508 L1167.45637,385.450331 C1167.24885,385.631908 1167.08025,385.709726 1167.00243,385.709726 C1167.00243,385.709726 1165.0829,386.928884 1164.79757,382.778559 C1164.44738,378.213202 1164.26581,376.241798 1164.23987,371.417045 C1164.18799,368.887941 1164.00641,363.168275 1164.00641,360.69105 L1164.16205,353.207495 C1164.08423,344.401025 1165.54981,333.311876 1166.44473,329.148582 C1167.32667,325.322501 1168.46801,323.454855 1169.12947,322.196788 Z" id="Shape" fill="#B3B4B6" fill-rule="nonzero"></path>
            <path d="M1483.99645,477.548631 C1483.99645,477.548631 1476.47399,486.368072 1474.16537,491.620826 C1471.90863,496.91249 1469.02934,503.929133 1473.12779,505.083442 C1477.22623,506.198842 1504.03474,501.87991 1519.76706,495.330179 C1535.47345,488.741539 1536.05709,486.406981 1540.07771,481.115317 C1544.15022,475.836622 1551.60784,461.764428 1551.60784,461.764428 C1551.60784,461.764428 1550.44056,460.623088 1546.34211,460.649028 C1542.24367,460.687937 1530.02615,464.864201 1514.29382,469.688954 C1498.5615,474.461827 1483.99645,477.548631 1483.99645,477.548631 Z" id="Path" fill="#CC2131"></path>
            <path d="M613.62147,450.675279 C613.62147,450.675279 616.708274,446.965926 618.446222,445.915375 C620.171201,444.877794 627.187844,439.949283 631.039864,440.844197 C633.517089,441.414866 635.540372,444.735126 636.085102,446.1618 C636.655772,447.82193 638.679055,451.207039 638.536388,455.953973 C638.315902,462.75013 637.913839,463.619104 637.408018,465.629418 C637.161593,466.692938 636.980016,448.301812 632.194173,447.964598 C629.211127,447.744112 624.386374,461.310486 621.364419,466.926394 C618.485131,472.295877 616.474818,476.926083 616.228392,480.142584 C615.968997,482.905144 612.298554,478.482455 615.24269,471.115628 C618.01822,464.176804 617.758825,458.31447 616.111664,455.707547 C615.091996,454.130812 614.256474,452.442363 613.62147,450.675279 Z M795.275997,466.692938 C795.275997,466.692938 800.645479,468.27525 800.671419,471.54363 C800.710328,476.186806 795.275997,489.104692 797.649464,492.269315 C799.984021,495.472847 801.68306,484.78576 805.431323,477.62645 C809.594617,469.520347 815.171616,456.758098 819.853701,457.302828 C822.836747,457.653012 824.821121,471.621449 824.821121,471.621449 C824.821121,471.621449 824.782212,465.006869 824.211542,460.623088 C823.601963,455.759426 821.617589,449.650667 818.414057,449.676607 C815.171616,449.715516 808.362489,453.995538 805.781506,455.720517 C802.409367,457.977256 795.275997,466.692938 795.275997,466.692938 Z M1485.61767,479.558945 C1485.61767,479.558945 1490.61103,480.38901 1490.61103,485.058125 C1490.68885,489.727241 1482.47899,501.140634 1488.58775,500.712632 C1495.30609,500.167901 1516.07068,493.008591 1520.3507,489.597543 C1528.50868,483.008902 1542.03615,464.38432 1536.13491,465.551599 C1530.23366,466.744817 1519.68924,471.56957 1510.8309,473.579883 C1501.98552,475.603167 1485.61767,479.558945 1485.61767,479.558945 Z" id="Shape" fill="#A81B28" fill-rule="nonzero"></path>
            <path d="M1223.61545,562.124468 L1223.64139,562.137438 C1222.90211,562.461682 1199.85484,572.889373 1165.60169,575.107203 C1152.35956,575.937268 1122.26971,573.784287 1104.13798,568.181348 C1090.62348,563.979145 1077.38135,557.455353 1076.61614,557.07923 L1076.60317,557.06626 C1077.32947,557.312685 1091.22009,561.709436 1117.56168,559.193301 C1132.34722,557.753657 1142.42472,550.775924 1142.42472,550.775924 C1142.42472,550.775924 1158.45535,554.589035 1180.62068,558.259478 C1204.77038,562.228226 1222.83727,562.137438 1223.61545,562.124468 Z" id="Path" fill="#CC2131"></path>
            <path d="M1067.71888,552.202598 L1067.70591,552.176659 C1068.43221,551.865384 1078.4319,547.416755 1084.15157,542.280728 C1094.19017,533.214862 1100.23408,523.746934 1100.23408,523.746934 L1111.49183,517.443628 L1116.3555,530.633879 C1116.3555,530.633879 1118.93648,536.989064 1123.6445,541.6063 C1128.35253,546.236506 1130.70006,547.390815 1130.70006,547.390815 C1130.70006,547.390815 1125.29166,553.071572 1107.03024,554.225881 C1079.15821,555.93789 1068.61379,552.513872 1067.71888,552.202598 Z" id="Path" fill="#CC2131"></path>
            <path d="M1723.15892,44.6956982 C1723.15892,44.6956982 1747.32159,47.134014 1770.75795,54.8899334 C1788.08556,60.6095997 1792.71577,65.3954429 1789.20096,67.1074519 C1784.57075,69.3382515 1773.01469,65.7456266 1768.39746,62.1789413 C1761.2757,56.6152283 1753.07326,52.5957239 1744.3126,50.3764552 L1723.15892,44.6956982 Z" id="Path" fill="#7183BE"></path>
            <path d="M1709.50175,258.294756 C1722.31588,259.449065 1734.29994,260.81089 1745.19455,262.367262 C1746.46558,260.81089 1747.60692,259.267488 1748.61856,257.788935 C1750.56403,254.987466 1752.5484,252.108178 1754.33823,249.410467 L1751.35518,248.943556 C1741.29922,247.386908 1731.19459,246.16276 1721.05781,245.273112 C1714.11899,244.728382 1705.105,244.235531 1705.105,244.235531 C1686.13024,242.925585 1664.04273,242.030671 1637.99944,241.421092 C1632.50026,244.118803 1626.19695,246.790575 1619.33595,248.956525 C1615.15361,250.328645 1611.0222,251.851424 1606.94982,253.521883 C1636.39119,253.833157 1664.04273,254.922617 1688.97062,256.660566 L1709.50175,258.294756 Z" id="Path" fill="#C39C29"></path>
            <path d="M1001.93623,479.662703 C1001.93623,479.662703 1004.59503,482.5809 1009.23821,482.256656 C1013.92029,481.945382 1018.56347,478.949366 1018.8488,477.808027 C1019.13414,476.614808 1015.86576,471.971633 1014.14078,472.295877 C1012.37689,472.581211 1011.54683,475.564257 1009.1993,477.003901 C1006.29407,478.767789 1001.93623,479.662703 1001.93623,479.662703 Z M1710.13727,457.147191 C1710.13727,457.147191 1711.30455,460.065388 1713.35377,460.636058 C1715.403,461.219697 1717.76349,461.751458 1719.48847,461.180788 C1721.23939,460.571209 1723.26267,458.521986 1724.67638,456.472763 C1726.1679,454.384631 1728.15228,450.856855 1728.15228,450.856855 C1728.15228,450.856855 1722.6531,455.603789 1718.29525,457.069373 C1713.93741,458.586835 1710.13727,457.147191 1710.13727,457.147191 Z M1773.44269,506.32854 C1768.37152,507.547698 1754.36417,509.59692 1729.79944,502.839673 C1713.93741,498.455892 1707.45253,489.792089 1705.13094,488.261657 C1702.79639,486.718255 1700.85092,489.856938 1698.94436,492.580589 C1697.95834,493.864749 1696.88354,495.078233 1695.72786,496.212123 C1711.56395,510.063832 1732.18587,513.708336 1737.7499,513.669427 C1746.30995,513.591608 1760.49887,514.01961 1774.10415,511.80178 C1777.47629,509.921165 1781.22455,508.092428 1783.14408,507.002967 C1789.07126,503.877254 1778.44902,505.148291 1773.44269,506.32854 Z M1104.25471,504.707319 C1105.97968,498.844985 1105.83702,494.629812 1104.11204,498.948743 C1101.41433,505.563324 1099.44292,509.493162 1083.74951,521.905227 C1071.05211,531.969765 1053.81529,534.810143 1024.99647,535.043599 C996.177655,535.290025 984.556745,528.869991 973.117413,521.905227 C961.820747,514.953433 958.980369,509.921165 956.632842,508.403702 C954.843014,507.223453 952.819731,507.651456 950.952085,508.118367 C964.375791,528.156654 986.139057,536.288697 1006.82583,537.935857 C1024.34798,539.336591 1035.63168,539.245803 1053.52995,537.520824 C1066.40893,536.301666 1091.66106,530.322605 1104.25471,504.707319 Z" id="Shape" fill="#929496" fill-rule="nonzero"></path>
            <path d="M1597.84505,483.955695 C1597.87099,485.317521 1598.02662,486.834983 1598.27305,488.196808 C1598.59729,489.934757 1598.96045,492.619498 1599.23281,494.863268 C1602.85138,485.3694 1610.3479,470.856233 1623.81052,463.26892 L1625.78192,462.218369 L1622.9156,458.405258 C1622.19144,457.259226 1621.42127,456.142916 1620.60698,455.059059 C1619.43971,455.811305 1618.32431,456.64137 1617.23485,457.471435 C1608.52246,464.409572 1601.82725,473.55447 1597.84505,483.955695 Z" id="Path" fill="#C39C29"></path>
            <path d="M2221.93716,674.987362 C2215.60792,674.987362 2210.03092,672.32856 2207.13866,668.087447 L2212.66378,663.184876 C2215.06958,666.033277 2218.6379,667.636162 2222.36517,667.542717 C2226.90458,667.542717 2229.03163,666.28465 2229.03163,663.418332 C2229.03163,660.980016 2227.68277,659.890556 2220.5494,658.269335 C2213.53276,656.622175 2208.64316,654.378406 2208.64316,646.907821 C2208.64316,639.994937 2214.72597,635.753823 2222.24844,635.753823 C2228.17562,635.753823 2232.53346,637.997593 2236.07421,641.719915 L2230.62691,647.063458 C2228.17562,644.573264 2225.439,643.13362 2221.93716,643.13362 C2217.8906,643.13362 2216.5158,644.897508 2216.5158,646.583577 C2216.5158,648.970014 2218.13702,649.72226 2224.16796,651.161904 C2230.22484,652.562639 2236.90427,654.650771 2236.90427,662.886572 C2236.90427,670.097761 2232.35189,674.987362 2221.93716,674.987362 Z M2271.85779,674.416693 L2271.85779,660.422316 C2271.85779,658.373093 2271.98749,653.522401 2271.98749,652.043848 C2271.45573,653.483492 2270.28845,656.181203 2269.32868,658.373093 L2261.57277,675.285667 L2253.86873,658.373093 C2252.93455,656.283791 2252.04806,654.173496 2251.20992,652.043848 C2251.20992,653.522401 2251.33962,658.373093 2251.33962,660.422316 L2251.33962,674.416693 L2243.89498,674.416693 L2243.89498,636.311523 L2251.20992,636.311523 L2259.13445,653.58725 C2260.09421,655.714292 2261.26149,658.593579 2261.74137,659.955405 C2262.24719,658.515761 2263.33665,655.740231 2264.29642,653.58725 L2271.97452,636.311523 L2279.49698,636.311523 L2279.49698,674.416693 L2271.85779,674.416693 Z M77.7367241,1011.08585 C60.3312997,1011.08585 50.7466434,996.987715 54.4949055,976.378759 C57.9578327,957.300234 70.2661396,945.290232 85.7650086,945.290232 C102.936977,945.290232 112.210359,959.686671 108.578825,980.010293 C105.180747,998.803482 92.9632281,1011.08585 77.7367241,1011.08585 Z M84.3123949,954.498765 C74.7536782,954.498765 66.7253938,963.136629 64.2351989,976.923489 C61.6153064,991.605263 67.6981261,1001.90326 78.3852124,1001.90326 C88.4886592,1001.90326 96.335367,993.330241 98.8255619,979.478532 C101.445454,964.602212 95.2588765,954.498765 84.3123949,954.498765 Z M135.620785,955.691984 L132.715557,972.358132 L150.665712,972.358132 L149.044491,981.735272 L131.094337,981.735272 L126.049098,1010.08718 L116.477412,1010.08718 L127.709228,946.301874 L168.46023,946.301874 L166.813069,955.691984 L135.620785,955.691984 Z M188.329909,955.691984 L185.424682,972.358132 L203.374837,972.358132 L201.714707,981.735272 L183.764552,981.735272 L178.758223,1010.08718 L169.186536,1010.08718 L180.379443,946.301874 L221.143414,946.301874 L219.496254,955.691984 L188.329909,955.691984 Z M222.219905,1010.08718 L233.555479,946.301874 L243.127166,946.301874 L231.830501,1010.08718 L222.219905,1010.08718 Z M294.241009,963.07178 C291.621117,957.780116 287.756127,954.693312 281.400942,954.693312 C270.000519,954.693312 260.54556,966.820042 260.54556,983.47322 C260.54556,995.06819 266.005831,1001.70871 274.462118,1001.70871 C280.583847,1001.70871 285.330781,998.505178 289.597834,993.330241 L296.549628,999.348212 C291.037477,1006.75395 283.489074,1011.09882 273.917388,1011.09882 C260.428832,1011.09882 250.675569,1002.17562 250.675569,984.886924 C250.675569,961.074436 265.175766,945.303202 282.490402,945.303202 C292.995912,945.303202 300.012555,950.491108 303.280935,958.804727 L294.241009,963.07178 Z M308.650418,1010.08718 L319.973023,946.301874 L329.544709,946.301874 L318.209135,1010.08718 L308.650418,1010.08718 Z M377.039988,1010.08718 L374.368217,994.873643 L349.582996,994.873643 L341.67144,1010.08718 L331.282658,1010.08718 L365.574716,946.301874 L375.211252,946.301874 L387.078586,1010.08718 L377.039988,1010.08718 Z M370.204922,969.375086 C369.476047,965.633062 368.922069,961.859085 368.544792,958.065451 C367.468302,960.516736 365.172654,965.27664 362.889975,969.439934 L353.79817,986.430326 L373.11015,986.430326 L370.204922,969.375086 Z M399.737077,1010.08718 L410.929984,946.301874 L420.52761,946.301874 L410.929984,1000.71004 L442.407603,1000.71004 L440.760443,1010.08718 L399.737077,1010.08718 Z M520.044616,1010.08718 L517.411754,994.873643 L492.626533,994.873643 L484.663097,1010.08718 L474.300255,1010.08718 L508.553404,946.301874 L518.228849,946.301874 L530.070244,1010.08718 L520.044616,1010.08718 Z M513.20955,969.375086 C512.503774,965.630769 511.962845,961.857253 511.588329,958.065451 C510.47293,960.516736 508.203221,965.27664 505.933512,969.439934 L496.789828,986.430326 L516.153687,986.430326 L513.20955,969.375086 Z M543.221586,1010.08718 L554.505281,946.301874 L564.089938,946.301874 L552.793272,1010.08718 L543.221586,1010.08718 Z M617.875553,1010.08718 L607.694287,1010.08718 L599.095333,984.873955 L583.687252,984.873955 L579.238623,1010.08718 L569.848513,1010.08718 L581.145178,946.301874 L605.567246,946.301874 C618.524041,946.301874 626.26699,951.839963 626.26699,963.357115 C626.26699,973.914503 620.547324,981.2943 609.069082,983.927162 L617.875553,1010.08718 Z M604.853909,955.31586 L588.875158,955.31586 L585.360352,975.846998 L603.12893,975.846998 C611.338791,975.846998 616.34512,971.994978 616.34512,963.979663 C616.319181,958.597211 612.765465,955.31586 604.853909,955.31586 Z M632.725933,1010.08718 L643.94478,946.301874 L653.529436,946.301874 L643.94478,1000.71004 L675.39646,1000.71004 L673.775239,1010.08718 L632.725933,1010.08718 Z M687.056278,1010.08718 L698.391853,946.301874 L707.95057,946.301874 L696.666874,1010.08718 L687.056278,1010.08718 Z M761.814003,1010.08718 L753.072382,1010.08718 L734.473739,969.258358 C733.397248,966.820042 731.931665,963.538691 731.270207,961.696985 L729.934321,970.80176 L723.112225,1010.08718 L713.670236,1010.08718 L725.01878,946.301874 L734.227313,946.301874 L752.423893,987.026936 C753.526323,989.413372 754.901119,992.86333 755.510697,994.52346 C755.731183,993.317272 756.613127,987.221482 756.911432,985.483534 L763.694619,946.301874 L773.136608,946.301874 L761.814003,1010.08718 Z M778.402332,1010.08718 L789.621179,946.301874 L830.38515,946.301874 L828.73799,955.588226 L797.584615,955.588226 L794.809085,971.372429 L812.798149,971.372429 L811.138019,980.671751 L793.187864,980.671751 L789.621179,1000.80083 L822.188259,1000.80083 L820.541099,1010.08718 L778.402332,1010.08718 Z M884.611737,1011.08585 C867.193343,1011.08585 857.621656,996.987715 861.369918,976.378759 C864.832846,957.300234 877.167092,945.290232 892.627052,945.290232 C909.786051,945.290232 919.072402,959.686671 915.440868,980.010293 C912.05576,998.803482 899.864181,1011.08585 884.611737,1011.08585 Z M891.187408,954.498765 C881.615721,954.498765 873.600407,963.136629 871.123182,976.923489 C868.490319,991.605263 874.612048,1001.90326 885.247256,1001.90326 C895.363672,1001.90326 903.21038,993.330241 905.687605,979.478532 C908.320467,964.602212 902.133889,954.498765 891.187408,954.498765 Z M942.495798,955.691984 L939.577601,972.358132 L957.566665,972.358132 L955.919504,981.735272 L937.95638,981.735272 L932.937081,1010.08718 L923.352425,1010.08718 L934.584241,946.301874 L975.348212,946.301874 L973.688082,955.691984 L942.495798,955.691984 Z M1034.20501,955.691984 L1024.63332,1010.08718 L1015.0746,1010.08718 L1024.63332,955.691984 L1006.24219,955.691984 L1007.86341,946.301874 L1054.2822,946.301874 L1052.62207,955.691984 L1034.20501,955.691984 Z M1094.21611,1010.08718 L1099.20947,981.670423 L1070.22204,981.670423 L1065.21571,1010.08718 L1055.657,1010.08718 L1066.87584,946.301874 L1076.44753,946.301874 L1071.8692,972.085766 L1100.8696,972.085766 L1105.40901,946.301874 L1114.9807,946.301874 L1103.78779,1010.08718 L1094.21611,1010.08718 Z M1120.37612,1010.08718 L1131.56903,946.301874 L1172.32003,946.301874 L1170.69881,955.588226 L1139.5195,955.588226 L1136.78288,971.372429 L1154.72006,971.372429 L1153.12478,980.671751 L1135.13572,980.671751 L1131.56903,1000.80083 L1164.11017,1000.80083 L1162.46301,1010.08718 L1120.37612,1010.08718 Z M1243.44622,961.696985 C1239.69796,957.494781 1235.23636,954.407977 1227.8436,954.407977 C1220.74913,954.407977 1217.28621,958.143269 1217.00087,962.358443 C1216.72851,966.638465 1218.89446,969.024902 1229.59451,973.110378 C1240.12596,977.208824 1247.55764,982.202183 1246.546,993.330241 C1245.53435,1004.4583 1236.15721,1011.09882 1223.13557,1011.09882 C1211.17745,1011.09882 1203.12322,1005.56073 1199.07666,999.45197 L1206.67694,993.265393 C1211.26824,999.088817 1217.09166,1001.90326 1224.38067,1001.90326 C1231.04713,1001.90326 1236.52037,998.621905 1236.79273,992.785511 C1236.97431,987.973728 1233.87454,985.055531 1223.36903,981.034904 C1212.27988,976.754882 1206.5213,972.293283 1207.45512,961.891531 C1208.33707,951.424931 1217.36402,945.303202 1229.387,945.303202 C1239.5942,945.303202 1246.26066,949.401648 1250.99463,955.160223 L1243.44622,961.696985 Z M1297.65984,1010.08718 L1295.05292,994.873643 L1270.25473,994.873643 L1262.30426,1010.08718 L1251.91548,1010.08718 L1286.19457,946.301874 L1295.84407,946.301874 L1307.69844,1010.08718 L1297.65984,1010.08718 Z M1290.85071,969.375086 C1290.14446,965.62978 1289.59493,961.856615 1289.20355,958.065451 C1288.11409,960.516736 1285.83141,965.27664 1283.57467,969.439934 L1274.43099,986.430326 L1293.75594,986.430326 L1290.85071,969.375086 Z M1368.51366,1010.08718 L1359.77204,1010.08718 L1341.14746,969.258358 C1340.08394,966.820042 1338.61836,963.538691 1337.9569,961.696985 L1336.59507,970.80176 L1329.76001,1010.08718 L1320.35693,1010.08718 L1331.70547,946.301874 L1340.8751,946.301874 L1359.11059,987.026936 C1360.20005,989.413372 1361.56187,992.86333 1362.19739,994.52346 C1362.40491,993.317272 1363.31279,987.221482 1363.55921,985.483534 L1370.44616,946.301874 L1379.79736,946.301874 L1368.51366,1010.08718 Z M1451.5461,1010.08718 L1448.91324,994.873643 L1424.11505,994.873643 L1416.19052,1010.08718 L1405.7758,1010.08718 L1440.08083,946.301874 L1449.75627,946.301874 L1461.5847,1010.08718 L1451.5461,1010.08718 Z M1444.76291,969.375086 C1444.02422,965.634211 1443.46587,961.859972 1443.08981,958.065451 C1441.97441,960.516736 1439.71767,965.27664 1437.435,969.439934 L1428.31725,986.430326 L1447.66814,986.430326 L1444.76291,969.375086 Z M1522.39993,1010.08718 L1513.63236,1010.08718 L1495.03372,969.258358 C1493.9702,966.820042 1492.47868,963.538691 1491.8691,961.696985 C1491.66158,962.890203 1490.7537,969.011932 1490.48133,970.80176 L1483.64627,1010.08718 L1474.29507,1010.08718 L1485.53985,946.301874 L1494.7873,946.301874 L1512.99685,987.026936 C1514.11225,989.413372 1515.47407,992.86333 1516.08365,994.52346 L1517.47141,985.483534 L1524.28054,946.301874 L1533.65768,946.301874 L1522.39993,1010.08718 Z M1572.54104,955.691984 L1562.95638,1010.08718 L1553.41063,1010.08718 L1562.95638,955.691984 L1544.53931,955.691984 L1546.21241,946.301874 L1592.56635,946.301874 L1590.97107,955.691984 L1572.54104,955.691984 Z M1617.19594,1011.08585 C1599.79051,1011.08585 1590.21883,996.987715 1593.94115,976.378759 C1597.41705,957.300234 1609.75129,945.290232 1625.22422,945.290232 C1642.31837,945.290232 1651.64363,959.686671 1648.02507,980.010293 C1644.62699,998.803482 1632.42244,1011.08585 1617.19594,1011.08585 Z M1623.78458,954.498765 C1614.21289,954.498765 1606.18461,963.136629 1603.69441,976.923489 C1601.08749,991.605263 1607.19625,1001.90326 1617.83146,1001.90326 C1627.9349,1001.90326 1635.79458,993.330241 1638.2718,979.478532 C1640.90467,964.602212 1634.69215,954.498765 1623.78458,954.498765 Z M1704.00257,1010.08718 L1695.20907,1010.08718 L1676.61043,969.258358 C1675.45758,966.780034 1674.4019,964.257656 1673.44581,961.696985 C1672.9672,964.72817 1672.51325,967.763195 1672.08398,970.80176 L1665.24892,1010.08718 L1655.87178,1010.08718 L1667.1425,946.301874 L1676.364,946.301874 L1694.59949,987.026936 C1695.68895,989.413372 1697.05078,992.86333 1697.71224,994.52346 C1697.86787,993.317272 1698.77576,987.221482 1699.07406,985.483534 L1705.88319,946.301874 L1715.28627,946.301874 L1704.00257,1010.08718 Z M1721.03187,1010.08718 L1732.35448,946.301874 L1741.90023,946.301874 L1730.6295,1010.08718 L1721.03187,1010.08718 Z M1773.44269,1011.08585 C1756.03727,1011.08585 1746.46558,996.987715 1750.21385,976.378759 C1753.68974,957.300234 1765.99805,945.290232 1781.47098,945.290232 C1798.61701,945.290232 1807.91633,959.686671 1804.27183,980.010293 C1800.89969,998.803482 1788.6692,1011.08585 1773.44269,1011.08585 Z M1780.03133,954.498765 C1770.45965,954.498765 1762.4573,963.136629 1759.96711,976.923489 C1757.33425,991.605263 1763.44301,1001.90326 1774.10415,1001.90326 C1784.2076,1001.90326 1792.04134,993.330241 1794.51856,979.478532 C1797.15142,964.602212 1790.96485,954.498765 1780.03133,954.498765 Z M1879.48349,961.696985 C1875.73523,957.494781 1871.27363,954.407977 1863.88086,954.407977 C1856.7864,954.407977 1853.32348,958.143269 1853.03814,962.358443 C1852.77875,966.638465 1854.95767,969.024902 1865.63178,973.110378 C1876.18917,977.208824 1883.59491,982.202183 1882.58327,993.330241 C1881.57162,1004.4583 1872.22042,1011.09882 1859.1469,1011.09882 C1847.18878,1011.09882 1839.18643,1005.56073 1835.08799,999.45197 L1842.76609,993.265393 C1846.89284,998.860776 1853.4937,1002.08614 1860.44388,1001.90326 C1867.0844,1001.90326 1872.58358,998.621905 1872.83,992.785511 C1873.01158,987.973728 1869.91181,985.055531 1859.45818,981.034904 C1848.34309,976.754882 1842.55857,972.293283 1843.47942,961.891531 C1844.41325,951.424931 1853.4402,945.303202 1865.46318,945.303202 C1875.67038,945.303202 1882.33684,949.401648 1887.04487,955.160223 L1879.48349,961.696985 Z M1922.67281,986.300629 L1907.44631,986.300629 L1903.27004,1010.08718 L1893.8929,1010.08718 L1905.18957,946.301874 L1926.90095,946.301874 C1939.6632,946.301874 1948.93658,952.851605 1947.84712,965.445247 C1946.67984,980.490174 1935.56476,986.300629 1922.67281,986.300629 Z M1926.05792,955.31586 L1912.93252,955.31586 L1909.10644,977.286642 L1923.4899,977.286642 C1932.04995,977.286642 1937.52319,972.99365 1938.00307,965.626824 C1938.37919,958.856606 1934.02135,955.31586 1926.05792,955.31586 Z M2005.27724,984.290315 C2002.26826,1001.34556 1994.71985,1011.08585 1978.78001,1011.08585 C1964.87642,1011.08585 1956.6925,1003.53745 1956.6925,989.867314 C1956.79626,987.779182 1957.06863,985.042562 1957.49663,982.38376 L1963.90369,946.301874 L1973.47538,946.301874 L1967.06831,982.38376 C1966.70222,984.431543 1966.48979,986.503838 1966.4328,988.583307 C1966.4328,996.598622 1970.38857,1001.82544 1979.5582,1001.82544 C1988.88346,1001.82544 1993.799,995.703708 1995.9001,983.576978 L2002.43686,946.314844 L2012.00855,946.314844 L2005.27724,984.290315 Z M2064.89925,1010.08718 L2054.66611,1010.08718 L2046.10606,984.873955 L2030.72392,984.873955 L2026.23638,1010.08718 L2016.85924,1010.08718 L2028.15591,946.301874 L2052.57797,946.301874 C2065.54774,946.301874 2073.27772,951.839963 2073.27772,963.357115 C2073.27772,973.914503 2067.55805,981.2943 2056.02793,983.927162 L2064.89925,1010.08718 Z M2051.89058,955.31586 L2035.91183,955.31586 L2032.34514,975.846998 L2050.17857,975.846998 C2058.36249,975.846998 2063.38179,971.994978 2063.38179,963.979663 C2063.35585,958.597211 2059.78916,955.31586 2051.89058,955.31586 Z M2122.35531,961.696985 C2118.58111,957.494781 2114.11951,954.407977 2106.75268,954.407977 C2099.65822,954.407977 2096.16935,958.143269 2095.90996,962.358443 C2095.63759,966.638465 2097.80354,969.024902 2108.47766,973.110378 C2119.03505,977.208824 2126.46672,982.202183 2125.45508,993.330241 C2124.44344,1004.4583 2115.0663,1011.09882 2101.99278,1011.09882 C2090.08653,1011.09882 2082.03231,1005.56073 2077.93386,999.45197 L2085.61197,993.265393 C2089.73871,998.860776 2096.33958,1002.08614 2103.28975,1001.90326 C2109.95621,1001.90326 2115.42945,998.621905 2115.70182,992.785511 C2115.8834,987.973728 2112.75768,985.055531 2102.27811,981.034904 C2091.16302,976.754882 2085.40445,972.293283 2086.3253,961.891531 C2087.25913,951.424931 2096.28608,945.303202 2108.30905,945.303202 C2118.51626,945.303202 2125.18272,949.401648 2129.91668,955.160223 L2122.35531,961.696985 Z" id="Shape" fill="#FFFFFF" fill-rule="nonzero"></path>
        </g>
    </g>
</svg>