<svg id="svg" version="1.1" xmlns="http://www.w3.org/2000/svg" xmlns:xlink="http://www.w3.org/1999/xlink" width="400" height="400" viewBox="0, 0, 400,400"><g id="svgg"><path id="path0" d="M0.000 200.000 L 0.000 400.000 200.000 400.000 L 400.000 400.000 400.000 200.000 L 400.000 0.000 200.000 0.000 L 0.000 0.000 0.000 200.000 M323.734 97.169 L 323.835 117.970 200.296 117.872 L 76.758 117.773 76.656 97.461 C 76.600 86.289,76.639 76.928,76.742 76.660 C 76.891 76.269,101.805 76.190,200.281 76.269 L 323.633 76.367 323.734 97.169 M94.922 97.266 L 94.922 100.000 200.195 100.000 L 305.469 100.000 305.469 97.266 L 305.469 94.531 200.195 94.531 L 94.922 94.531 94.922 97.266 M323.339 220.410 L 323.242 322.461 302.344 322.461 L 281.445 322.461 281.445 241.309 L 281.445 160.156 276.758 160.156 L 272.070 160.156 272.070 241.309 L 272.070 322.461 174.219 322.461 L 76.367 322.461 76.370 261.719 C 76.372 228.311,76.416 182.388,76.469 159.668 L 76.566 118.359 200.000 118.359 L 323.435 118.359 323.339 220.410 M169.285 161.035 C 169.415 161.519,169.523 188.589,169.526 221.191 L 169.531 280.469 174.023 280.469 L 178.516 280.469 178.516 220.781 C 178.516 174.878,178.624 160.985,178.984 160.625 C 179.349 160.260,178.297 160.156,174.251 160.156 L 169.050 160.156 169.285 161.035 M220.625 160.625 C 220.985 160.985,221.094 174.878,221.094 220.781 L 221.094 280.469 225.583 280.469 L 230.073 280.469 230.173 220.312 L 230.273 160.156 225.215 160.156 C 221.280 160.156,220.260 160.260,220.625 160.625 M179.097 220.898 C 179.097 253.984,179.143 267.462,179.199 250.848 C 179.256 234.235,179.256 207.164,179.199 190.692 C 179.143 174.220,179.097 187.812,179.097 220.898 M95.138 178.092 C 95.014 178.291,94.798 206.769,94.658 241.376 L 94.402 304.297 174.155 304.297 L 253.909 304.297 253.810 241.113 L 253.711 177.930 251.172 177.930 L 248.633 177.930 248.438 238.281 L 248.242 298.633 225.684 298.734 L 203.125 298.834 203.029 238.187 L 202.933 177.539 202.735 237.891 L 202.537 298.242 202.343 238.086 L 202.148 177.930 199.805 177.930 L 197.461 177.930 197.263 238.281 C 197.153 271.475,197.022 298.678,196.970 298.734 C 196.918 298.789,186.636 298.789,174.121 298.734 L 151.367 298.633 151.172 238.281 L 150.977 177.930 123.169 177.829 C 106.359 177.769,95.273 177.873,95.138 178.092 M299.886 177.978 C 299.734 178.131,299.609 206.615,299.609 241.276 L 299.609 304.297 302.345 304.297 L 305.080 304.297 304.982 241.113 L 304.883 177.930 302.523 177.816 C 301.225 177.753,300.039 177.826,299.886 177.978 M145.457 184.473 C 145.814 185.805,145.738 297.778,145.379 298.343 C 145.133 298.731,140.321 298.813,122.631 298.734 L 100.195 298.633 100.095 241.602 C 100.040 210.234,100.078 184.351,100.180 184.082 C 100.326 183.699,105.211 183.594,122.794 183.594 L 145.221 183.594 145.457 184.473 M118.359 241.211 L 118.359 280.469 122.852 280.469 L 127.344 280.469 127.344 241.211 L 127.344 201.953 122.852 201.953 L 118.359 201.953 118.359 241.211 " stroke="none" fill="#74d474" fill-rule="evenodd"></path><path id="path1" d="M76.563 139.258 L 76.563 160.156 200.000 160.156 L 323.438 160.156 323.438 139.258 L 323.438 118.359 200.000 118.359 L 76.563 118.359 76.563 139.258 " stroke="none" fill="#fcfcfc" fill-rule="evenodd"></path><path id="path2" d="M76.953 97.266 L 76.953 117.969 200.195 117.969 L 323.438 117.969 323.438 97.266 L 323.438 76.563 200.195 76.563 L 76.953 76.563 76.953 97.266 M305.859 97.266 L 305.859 100.391 200.098 100.391 L 94.336 100.391 94.336 97.266 L 94.336 94.141 200.098 94.141 L 305.859 94.141 305.859 97.266 M76.821 191.373 C 76.679 208.435,76.563 244.866,76.563 272.331 L 76.563 322.267 174.121 322.169 L 271.680 322.070 271.778 241.315 L 271.877 160.560 251.173 160.456 L 230.469 160.352 230.469 220.605 L 230.469 280.859 225.391 280.859 L 220.313 280.859 220.313 220.703 L 220.313 160.547 199.805 160.547 L 179.297 160.547 179.297 220.703 L 179.297 280.859 174.219 280.859 L 169.141 280.859 169.141 220.605 L 169.141 160.352 123.110 160.352 L 77.080 160.352 76.821 191.373 M302.245 160.449 L 281.639 160.554 281.737 241.312 L 281.836 322.070 302.441 322.171 L 323.047 322.273 323.047 241.214 C 323.047 196.632,323.003 160.199,322.949 160.250 C 322.896 160.302,313.579 160.392,302.245 160.449 M151.953 238.086 L 151.953 298.438 174.219 298.438 L 196.484 298.438 196.484 238.086 L 196.484 177.734 199.805 177.734 L 203.125 177.734 203.125 238.086 L 203.125 298.438 225.590 298.438 L 248.054 298.438 247.953 238.086 L 247.852 177.734 251.074 177.734 L 254.297 177.734 254.297 241.211 L 254.297 304.688 174.156 304.688 L 94.016 304.688 94.176 241.211 L 94.336 177.735 123.145 177.735 L 151.953 177.734 151.953 238.086 M305.664 241.211 L 305.664 304.688 302.441 304.688 L 299.219 304.688 299.219 241.211 L 299.219 177.734 302.441 177.734 L 305.664 177.734 305.664 241.211 M100.391 241.243 L 100.391 298.438 122.852 298.438 L 145.313 298.438 145.313 241.251 L 145.313 184.064 122.852 184.056 L 100.391 184.048 100.391 241.243 M128.125 241.211 L 128.125 280.859 123.047 280.859 L 117.969 280.859 117.969 241.211 L 117.969 201.563 123.047 201.563 L 128.125 201.563 128.125 241.211 " stroke="none" fill="#1b2b1b" fill-rule="evenodd"></path><path id="path3" d="M76.742 76.660 C 76.639 76.928,76.602 86.289,76.660 97.461 L 76.765 117.773 76.859 97.168 L 76.953 76.563 200.192 76.563 L 323.431 76.563 323.537 97.168 L 323.643 117.773 323.638 97.070 L 323.633 76.367 200.281 76.269 C 101.805 76.190,76.891 76.269,76.742 76.660 M94.531 97.266 L 94.531 100.391 200.195 100.391 L 305.859 100.391 305.859 97.266 L 305.859 94.141 200.195 94.141 L 94.531 94.141 94.531 97.266 M305.469 97.266 L 305.469 100.000 200.195 100.000 L 94.922 100.000 94.922 97.266 L 94.922 94.531 200.195 94.531 L 305.469 94.531 305.469 97.266 M76.390 201.660 C 76.243 224.272,76.177 260.703,76.245 282.617 L 76.367 322.461 174.219 322.461 L 272.070 322.461 272.072 241.406 L 272.073 160.352 271.973 241.309 L 271.873 322.266 174.157 322.266 L 76.440 322.266 76.662 241.406 C 76.784 196.934,76.833 160.547,76.771 160.547 C 76.709 160.547,76.537 179.048,76.390 201.660 M230.078 220.508 L 230.078 280.469 225.587 280.469 L 221.096 280.469 220.996 220.605 L 220.896 160.742 220.800 220.801 L 220.703 280.859 225.586 280.859 L 230.469 280.859 230.469 220.703 C 230.469 187.617,230.381 160.547,230.273 160.547 C 230.166 160.547,230.078 187.529,230.078 220.508 M281.444 241.406 L 281.445 322.461 302.344 322.461 L 323.242 322.461 323.244 241.504 L 323.245 160.547 323.145 241.406 L 323.045 322.266 302.344 322.266 L 281.642 322.266 281.542 241.309 L 281.443 160.352 281.444 241.406 M178.516 220.703 L 178.516 280.469 174.025 280.469 L 169.534 280.469 169.434 220.801 L 169.333 161.133 169.237 220.996 L 169.141 280.859 174.023 280.859 L 178.906 280.859 178.906 220.898 C 178.906 187.920,178.818 160.938,178.711 160.938 C 178.604 160.938,178.516 187.832,178.516 220.703 M94.400 208.854 C 94.257 225.969,94.141 254.534,94.141 272.330 L 94.141 304.688 174.219 304.688 L 254.297 304.688 254.297 241.211 C 254.297 206.299,254.165 177.734,254.004 177.734 C 253.843 177.734,253.756 206.211,253.811 241.016 L 253.911 304.297 174.221 304.297 L 94.531 304.297 94.586 264.355 C 94.615 242.388,94.747 213.911,94.878 201.074 C 95.010 188.237,95.014 177.734,94.889 177.734 C 94.763 177.734,94.543 191.738,94.400 208.854 M151.172 238.184 L 151.367 298.633 174.121 298.638 L 196.875 298.642 174.219 298.537 L 151.563 298.431 151.563 238.083 C 151.563 204.891,151.431 177.734,151.270 177.734 C 151.108 177.734,151.064 204.936,151.172 238.184 M196.969 237.988 C 197.021 271.128,197.109 288.486,197.164 276.563 C 197.431 219.080,197.433 177.734,197.168 177.734 C 197.007 177.734,196.917 204.849,196.969 237.988 M202.246 216.309 C 202.300 237.524,202.390 264.639,202.445 276.563 C 202.500 288.486,202.588 271.128,202.640 237.988 C 202.692 204.849,202.603 177.734,202.441 177.734 C 202.280 177.734,202.193 195.093,202.246 216.309 M248.047 238.083 L 248.047 298.431 225.586 298.537 L 203.125 298.642 225.684 298.638 L 248.242 298.633 248.438 238.184 C 248.545 204.936,248.501 177.734,248.340 177.734 C 248.179 177.734,248.047 204.891,248.047 238.083 M299.219 241.211 L 299.219 304.688 302.344 304.688 L 305.469 304.688 305.469 241.211 C 305.469 206.299,305.337 177.734,305.176 177.734 C 305.015 177.734,304.928 206.211,304.983 241.016 L 305.083 304.297 302.344 304.297 L 299.605 304.297 299.705 241.016 C 299.760 206.211,299.673 177.734,299.512 177.734 C 299.351 177.734,299.219 206.299,299.219 241.211 M100.180 184.082 C 100.078 184.351,100.040 210.234,100.095 241.602 L 100.195 298.633 122.754 298.638 L 145.313 298.642 122.852 298.537 L 100.391 298.431 100.391 241.211 L 100.391 183.991 122.949 183.887 L 145.508 183.783 122.937 183.688 C 105.170 183.614,100.327 183.698,100.180 184.082 M145.503 241.406 C 145.503 272.666,145.549 285.454,145.605 269.824 C 145.662 254.194,145.662 228.618,145.605 212.988 C 145.549 197.358,145.503 210.146,145.503 241.406 M117.969 241.211 L 117.969 280.859 122.852 280.859 L 127.734 280.859 127.734 241.211 L 127.734 201.563 122.852 201.563 L 117.969 201.563 117.969 241.211 M127.344 241.211 L 127.344 280.469 122.852 280.469 L 118.359 280.469 118.359 241.211 L 118.359 201.953 122.852 201.953 L 127.344 201.953 127.344 241.211 " stroke="none" fill="#a1e19f" fill-rule="evenodd"></path><path id="path4" d="M100.098 160.449 C 112.720 160.506,133.374 160.506,145.996 160.449 C 158.618 160.392,148.291 160.345,123.047 160.345 C 97.803 160.345,87.476 160.392,100.098 160.449 M179.164 160.446 C 179.063 160.609,188.280 160.695,199.645 160.638 L 220.310 160.533 220.411 220.403 L 220.512 280.273 220.510 220.313 L 220.508 160.352 199.928 160.250 C 188.608 160.195,179.265 160.283,179.164 160.446 M241.141 160.449 C 246.903 160.510,256.219 160.510,261.844 160.449 C 267.468 160.388,262.754 160.338,251.367 160.338 C 239.980 160.338,235.379 160.388,241.141 160.449 M291.922 160.449 C 297.684 160.510,307.001 160.510,312.625 160.449 C 318.250 160.388,313.535 160.338,302.148 160.338 C 290.762 160.338,286.160 160.388,291.922 160.449 M151.753 238.086 C 151.753 271.387,151.799 285.068,151.855 268.488 C 151.912 251.908,151.912 224.662,151.855 207.941 C 151.799 191.220,151.753 204.785,151.753 238.086 M196.675 238.477 C 196.675 271.563,196.721 285.040,196.777 268.426 C 196.834 251.813,196.834 224.742,196.777 208.270 C 196.721 191.798,196.675 205.391,196.675 238.477 M127.922 241.211 C 127.922 263.125,127.970 272.032,128.027 261.005 C 128.085 249.978,128.085 232.049,128.027 221.162 C 127.970 210.275,127.922 219.297,127.922 241.211 " stroke="none" fill="#3c5c3c" fill-rule="evenodd"></path></g></svg>