<?xml version="1.0" encoding="UTF-8"?>
<svg width="2501px" height="1390px" viewBox="0 0 2501 1390" version="1.1" xmlns="http://www.w3.org/2000/svg" xmlns:xlink="http://www.w3.org/1999/xlink">
    <!-- Generator: Sketch 52 (66869) - http://www.bohemiancoding.com/sketch -->
    <title>verizon</title>
    <desc>Created with Sketch.</desc>
    <defs>
        <polyline id="path-1" points="348.505392 783.521824 382.069258 771.241933 404.001387 831.54653 310.299342 865.811103 5.36040865 28.4224282 65.8489416 6.6742343 348.505392 783.521824"></polyline>
        <linearGradient x1="48.1271215%" y1="45.6159886%" x2="33.2691915%" y2="10.8170789%" id="linearGradient-3">
            <stop stop-color="#ED1B34" offset="0%"></stop>
            <stop stop-color="#FFFFFF" offset="100%"></stop>
        </linearGradient>
        <polyline id="path-4" points="76.9814243 783.521824 2211.91307 6.44650452 2233.83644 66.7160665 38.7753744 865.811103 7.42749434 779.527794 67.6007091 757.516834 76.9814243 783.521824"></polyline>
        <linearGradient x1="58.1615226%" y1="46.3959338%" x2="90.1135709%" y2="32.2871516%" id="linearGradient-6">
            <stop stop-color="#ED1B34" offset="0%"></stop>
            <stop stop-color="#FFFFFF" offset="100%"></stop>
        </linearGradient>
        <polyline id="path-7" points="1.66417916 440.587052 16.0724671 359.52401 216.965168 94.9720768 59.621408 94.9720768 76.2544407 3.06559318 376.805196 3.06559318 362.08159 84.119877 160.216659 348.628016 1056.87639 348.628016 1040.90027 440.587052 1.66417916 440.587052"></polyline>
        <linearGradient x1="52.3776915%" y1="50.6325395%" x2="95.4093166%" y2="62.0821887%" id="linearGradient-9">
            <stop stop-color="#ED1B34" offset="0%"></stop>
            <stop stop-color="#FFFFFF" offset="100%"></stop>
        </linearGradient>
    </defs>
    <g id="Page-1" stroke="none" stroke-width="1" fill="none" fill-rule="evenodd">
        <g id="verizon" transform="translate(-4.688136, -5.652786)">
            <path d="M1194.70546,1274.7262 L1069.05117,1274.7262 L1124.84497,957.761381 L1250.80581,957.761381 L1194.70546,1274.7262 Z M805.445194,1144.68374 L565.382971,1144.68374 C558.831361,1182.14528 583.575077,1206.98535 616.78859,1206.98535 C636.548527,1206.98535 656.255912,1197.91995 668.807327,1179.14976 L789.171274,1179.14976 C753.435216,1257.79537 669.113886,1283.78284 595.171778,1283.78284 C493.613056,1283.78284 425.320398,1225.72926 444.116864,1119.27435 C462.265176,1015.19308 552.235956,948.660949 653.794679,948.660949 C770.970409,948.687225 827.718918,1029.75903 805.445194,1144.68374 Z M576.673113,1080.56029 L691.081051,1080.56029 C696.073588,1051.50722 674.754577,1025.50223 645.018323,1025.50223 C607.714434,1025.50223 582.629123,1046.68986 576.673113,1080.56029 Z M1565.76486,1119.85243 C1585.21824,1009.79764 1668.58485,948.695984 1775.43391,948.695984 C1887.63462,948.695984 1944.98749,1014.60624 1927.43478,1113.21323 C1907.07924,1229.35542 1818.66754,1283.81787 1717.15261,1283.81787 C1615.30484,1283.80035 1546.66183,1228.13794 1565.76486,1119.85243 Z M1767.93635,1033.35891 C1725.00053,1033.35891 1704.32091,1077.51221 1698.02331,1113.20447 C1687.70539,1173.08865 1705.24059,1199.14619 1737.55194,1199.14619 C1771.36105,1199.14619 1796.46388,1173.08865 1807.09711,1113.20447 C1815.25159,1066.60746 1800.83454,1031.53707 1767.93635,1033.35891 Z M808.274299,1274.7262 L864.365895,957.761381 L978.773833,957.761381 L967.49245,1021.89359 L968.447163,1021.89359 C994.758712,972.257258 1029.83786,948.695984 1078.73845,948.695984 C1084.37914,948.695984 1089.71327,949.913463 1095.06492,950.526581 L1072.78244,1076.29473 C1064.3214,1075.12105 1055.8954,1072.69485 1047.43436,1072.69485 C996.028743,1072.69485 965.626817,1096.878 953.679763,1165.21445 L934.278937,1274.71744 L808.274299,1274.7262 Z M1926.19103,1274.7262 L1981.97606,957.761381 L2096.99712,957.761381 L2088.22952,1007.34516 C2123.30867,969.217941 2157.78345,948.695984 2205.42277,948.695984 C2289.13974,948.695984 2319.83071,997.675404 2304.46771,1084.76453 L2270.93888,1274.7262 L2144.943,1274.7262 L2174.7318,1107.16963 C2180.05718,1075.69037 2176.59744,1047.88982 2140.86138,1047.88982 C2102.34877,1047.88982 2087.58137,1072.68609 2080.38161,1113.19571 L2051.86283,1274.70868 L1926.19103,1274.7262 Z M184.899063,1274.7262 L130.708135,957.761381 L256.66022,957.761381 L277.077071,1157.96213 L367.301858,957.761381 L488.3052,957.761381 L325.31199,1274.7262 L184.899063,1274.7262 Z M1132.04473,917.216722 L1147.67926,827.526224 L1273.67514,827.526224 L1257.71654,917.216722 L1132.04473,917.216722 Z" id="Shape" fill="#FFFFFF" fill-rule="nonzero"></path>
            <g id="Clipped">
                <mask id="mask-2" fill="white">
                    <use xlink:href="#path-1"></use>
                </mask>
                <g id="a"></g>
                <polygon id="Path" fill="url(#linearGradient-3)" mask="url(#mask-2)" points="51.9924604 993.970416 -270.788225 107.181897 357.360577 -121.502596 680.141263 765.285923"></polygon>
            </g>
            <g id="Clipped" transform="translate(271.523968, 0.000000)">
                <mask id="mask-5" fill="white">
                    <use xlink:href="#path-4"></use>
                </mask>
                <g id="d"></g>
                <polygon id="Path" fill="url(#linearGradient-6)" mask="url(#mask-5)" points="-268.764934 106.962926 1973.40992 -709.09798 2510.02011 765.285923 267.854015 1581.39938"></polygon>
            </g>
            <g id="Clipped" transform="translate(1208.719598, 954.713306)">
                <mask id="mask-8" fill="white">
                    <use xlink:href="#path-7"></use>
                </mask>
                <g id="g"></g>
                <polygon id="Path" fill="url(#linearGradient-9)" mask="url(#mask-8)" points="33.4850364 -177.401498 1131.68562 16.2476439 1025.05553 621.036626 -73.1538122 427.396243"></polygon>
            </g>
        </g>
    </g>
</svg>