<?xml version="1.0" encoding="UTF-8"?>
<svg width="410px" height="78px" viewBox="0 0 410 78" version="1.1" xmlns="http://www.w3.org/2000/svg" xmlns:xlink="http://www.w3.org/1999/xlink">
    <!-- Generator: Sketch 52 (66869) - http://www.bohemiancoding.com/sketch -->
    <title>directv</title>
    <desc>Created with Sketch.</desc>
    <g id="Page-1" stroke="none" stroke-width="1" fill="none" fill-rule="evenodd">
        <g id="directv">
            <g id="Group" fill="#FFFFFF">
                <path d="M241,2.4 C250.58,-1.43 262.27,-0.83 270.77,5.32 C276.83,9.64 280.41,16.73 281.53,23.98 C276.08,22.91 270.53,22.22 265.05,21.53 C262.62,14.92 254.6,11.74 248.22,14.53 C245.71,15.53 243.92,17.6 242.34,19.69 C236.97,19.41 231.59,19.13 226.21,19.21 C228.17,11.68 234,5.53 241,2.4 Z" id="Path"></path>
                <path d="M0,0.74 C9.83,0.68 19.65,0.7 29.48,0.72 C37.23,0.86 45.37,3.72 50.06,10.2 C57.13,18.61 55.49,30.35 55.75,40.54 L40.52,44.6 C40.41,37.6 40.92,30.46 39.62,23.52 C38.62,18.29 33.62,14.58 28.4,14.28 C24.03,14.09 19.65,14.28 15.28,14.21 C15.28,27.0166667 15.28,39.83 15.28,52.65 C10.1533333,54.41 5.06,56.29 0,58.29 C0,39.11 0.05,19.93 0,0.74 Z" id="Path"></path>
                <path d="M69.27,0.71 L84.52,0.71 C84.45,11.85 84.65,22.99 84.42,34.13 C79.34,35.02 74.31,36.13 69.28,37.31 C69.25,25.11 69.28,12.91 69.27,0.71 Z" id="Path"></path>
                <path d="M99.27,0.71 L129.49,0.71 C135.238287,0.565837687 140.869882,2.34682983 145.49,5.77 C150.838831,10.0331331 153.968067,16.4901696 154,23.33 C149,23.83 144.09,24.55 139.12,25.05 C138.91,20.43 136.41,15.51 131.48,14.59 C125.8,13.74 119.99,14.42 114.26,14.22 L114.26,28.65 C109.26,29.5 104.26,30.34 99.26,31.22 L99.27,0.71 Z" id="Path"></path>
                <path d="M166.52,0.71 L217,0.71 L217,14.21 L181.74,14.21 L181.74,20.69 C176.66,21.17 171.57,21.54 166.48,21.99 L166.52,0.71 Z" id="Path"></path>
            </g>
            <g id="Group" transform="translate(6.000000, 0.000000)" fill="#0071BA">
                <path d="M279.27,0.71 C297.61,0.71 315.943333,0.71 334.27,0.71 C334.2,5.24 334.41,9.78 334.12,14.3 C327.5,14.1 320.88,14.22 314.26,14.22 C314.26,35.2133333 314.26,56.2133333 314.26,77.22 C309.26,77.22 304.26,77.22 299.26,77.22 C299.19,56.22 299.38,35.22 299.17,14.22 C292.53,14.31 285.89,14.29 279.25,14.22 C279.28,9.69 279.26,5.2 279.27,0.71 Z" id="Path"></path>
                <path d="M341.32,0.71 C346.58,0.71 351.84,0.71 357.11,0.76 C362.103333,17.14 367.146667,33.51 372.24,49.87 C377.41,33.51 382.31,17.07 387.48,0.71 L403.31,0.71 C394.836667,26.2366667 386.376667,51.7433333 377.93,77.23 L366.56,77.23 C358.12,51.7433333 349.706667,26.2366667 341.32,0.71 Z" id="Path"></path>
                <path d="M219.2,24.66 C224.3,24.89 229.41,25 234.52,25.24 C234.18,32.71 234.25,40.24 234.29,47.68 C234.56,52.01 234.77,56.94 237.92,60.28 C242.63,65.74 252.34,65.67 256.85,59.98 C258.49,58.16 259.2,55.76 259.92,53.47 C265.14,53.47 270.36,53.47 275.58,53.47 C274.44,61.18 270.47,68.66 263.89,73.03 C249.83,82.79 226.6,77.48 220.79,60.6 C217.59,48.93 218.93,36.61 219.2,24.66 Z" id="Path"></path>
                <path d="M160.52,28.09 C165.6,27.51 170.68,26.95 175.77,26.52 L175.77,31.7 L205.77,31.7 L205.77,45.45 L175.77,45.45 L175.77,63.45 L211,63.45 L211,77.2 C194.166667,77.2 177.333333,77.2 160.5,77.2 L160.52,28.09 Z" id="Path"></path>
                <path d="M93.28,40.66 C111.146182,36.0913928 129.250214,32.5093117 147.51,29.93 C145.72406,36.5285733 140.853429,41.8538465 134.44,44.22 C139.7,55.38 145.78,66.15 151.27,77.22 L133.67,77.22 C128.75,67.02 123.74,56.86 118.76,46.69 L108.28,46.69 C108.28,56.85 108.28,67.01 108.28,77.17 C103.266667,77.17 98.2666667,77.17 93.28,77.17 C93.2733333,65.01 93.2733333,52.84 93.28,40.66 Z" id="Path"></path>
                <path d="M63.25,49.46 C68.31,47.79 73.4,46.18 78.52,44.69 L78.52,77.21 L63.27,77.21 C63.25,68 63.3,58.71 63.25,49.46 Z" id="Path"></path>
                <path d="M0.18,77.2 C15.72,68 32.37,60.7 49.29,54.39 C48.52,60.46 45.98,66.39 41.29,70.55 C36.29,75.27 29.29,77.1 22.55,77.21 C15.11,77.2166667 7.65333333,77.2133333 0.18,77.2 Z" id="Path"></path>
            </g>
        </g>
    </g>
</svg>