<?xml version="1.0" standalone="no"?>
<!DOCTYPE svg PUBLIC "-//W3C//DTD SVG 20010904//EN"
 "http://www.w3.org/TR/2001/REC-SVG-20010904/DTD/svg10.dtd">
<svg version="1.0" xmlns="http://www.w3.org/2000/svg"
 width="300.000000pt" height="63.000000pt" viewBox="0 0 300.000000 63.000000"
 preserveAspectRatio="xMidYMid meet">

<g transform="translate(0.000000,63.000000) scale(0.100000,-0.100000)"
fill="#000000" stroke="none">
<path d="M374 320 c0 -173 2 -244 3 -157 2 86 2 228 0 315 -1 86 -3 15 -3
-158z"/>
<path d="M105 450 l-106 -121 58 -82 c31 -45 74 -106 95 -135 l39 -52 72 1
c46 1 63 4 47 8 -18 5 -57 53 -132 160 -60 85 -108 157 -108 160 0 3 31 42 69
86 54 62 77 81 103 86 l33 6 -32 2 c-29 1 -42 -10 -138 -119z"/>
<path d="M503 560 c84 -8 113 -28 149 -100 l27 -55 1 83 0 82 -122 -1 c-109
-2 -115 -3 -55 -9z"/>
<path d="M550 400 c0 -29 -44 -70 -75 -70 -14 0 -25 -4 -25 -10 0 -5 10 -10
23 -10 33 0 65 -27 76 -63 7 -25 9 -10 10 71 1 56 -1 102 -4 102 -3 0 -5 -9
-5 -20z"/>
<path d="M890 320 c0 -53 4 -90 10 -90 6 0 10 37 10 90 0 53 -4 90 -10 90 -6
0 -10 -37 -10 -90z"/>
<path d="M982 368 l-40 -42 41 -53 c39 -49 57 -64 57 -45 0 4 -16 27 -35 51
-19 24 -35 46 -35 49 0 4 17 23 37 44 20 21 32 38 26 38 -6 0 -29 -19 -51 -42z"/>
<path d="M1133 395 c-29 -20 -46 -75 -34 -107 5 -14 22 -35 38 -48 57 -45 143
1 143 76 0 72 -89 120 -147 79z m104 -27 c31 -29 30 -72 -2 -103 -47 -48 -115
-17 -115 50 0 67 69 98 117 53z"/>
<path d="M1370 320 c0 -53 4 -90 10 -90 6 0 10 16 10 35 0 30 3 35 24 35 16 0
31 -12 47 -35 13 -19 30 -35 37 -35 14 0 9 13 -16 43 -14 15 -13 19 6 40 47
50 13 97 -70 97 l-48 0 0 -90z m108 58 c32 -32 -2 -68 -64 -68 -21 0 -24 4
-24 40 0 40 0 40 38 40 21 0 43 -5 50 -12z"/>
<path d="M1600 320 c0 -107 18 -122 22 -18 l3 72 55 -72 c30 -40 60 -72 67
-72 10 0 13 24 13 90 0 108 -18 122 -22 18 l-3 -73 -58 73 c-32 39 -62 72 -67
72 -6 0 -10 -39 -10 -90z"/>
<path d="M1960 320 c0 -53 4 -90 10 -90 6 0 10 16 10 35 0 35 0 35 44 35 25 0
48 5 51 10 4 6 -13 10 -44 10 l-51 0 0 35 0 35 55 0 c30 0 55 5 55 10 0 6 -28
10 -65 10 l-65 0 0 -90z"/>
<path d="M2168 320 l-3 -90 70 2 70 1 -60 6 c-58 6 -59 7 -59 36 0 29 1 30 52
33 65 4 59 22 -6 22 -46 0 -48 1 -46 28 1 26 3 27 57 30 78 4 72 22 -7 22
l-65 0 -3 -90z"/>
<path d="M2380 320 c0 -49 4 -90 9 -90 6 0 11 15 13 33 2 26 8 33 29 35 20 2
31 -5 50 -32 23 -34 49 -54 49 -38 0 4 -11 20 -24 37 l-23 29 23 19 c29 23 31
50 4 77 -15 15 -33 20 -75 20 l-55 0 0 -90z m120 55 c20 -24 3 -54 -35 -61
-19 -3 -42 -4 -50 0 -15 5 -21 56 -8 69 12 13 81 7 93 -8z"/>
<path d="M2620 320 c0 -53 4 -90 10 -90 6 0 10 16 10 35 0 30 3 35 24 35 17 0
34 -12 52 -35 14 -19 33 -35 41 -35 10 0 7 9 -12 32 l-27 32 21 14 c14 10 21
25 21 48 0 40 -24 54 -96 54 l-44 0 0 -90z m104 64 c23 -9 20 -51 -4 -64 -12
-6 -33 -10 -48 -8 -23 3 -27 8 -30 41 -3 36 -3 37 32 37 19 0 41 -3 50 -6z"/>
<path d="M2830 405 c0 -3 16 -29 35 -58 22 -33 35 -64 35 -84 0 -18 5 -33 10
-33 6 0 10 15 10 33 0 20 13 51 35 84 37 55 40 63 26 63 -5 0 -22 -21 -39 -46
l-30 -46 -31 46 c-28 40 -51 58 -51 41z"/>
</g>
</svg>
