<?xml version="1.0" encoding="UTF-8"?>
<svg width="2280px" height="1070px" viewBox="0 0 2280 1070" version="1.1" xmlns="http://www.w3.org/2000/svg" xmlns:xlink="http://www.w3.org/1999/xlink">
    <!-- Generator: Sketch 52 (66869) - http://www.bohemiancoding.com/sketch -->
    <title>hyundai</title>
    <desc>Created with Sketch.</desc>
    <g id="Page-1" stroke="none" stroke-width="1" fill="none" fill-rule="evenodd">
        <g id="hyundai" fill="#295BA7" fill-rule="nonzero">
            <path d="M0.294880574,789.323725 L88.5281911,789.323725 L88.5281911,886.337567 L246.149744,886.337567 L246.149744,789.323725 L333.280624,789.323725 L333.280624,1061.598 L246.149744,1061.598 L246.149744,946.958248 L87.3998215,946.958248 L87.3998215,1060.50854 L0.294880574,1060.50854 L0.294880574,789.323725 Z M343.189525,789.323725 L429.166096,789.323725 L519.578327,894.054577 L608.888128,789.323725 L693.775239,789.323725 L562.573098,955.777688 L562.573098,1061.598 L475.481126,1061.598 L475.481126,948.060678 L343.189525,789.323725 Z M704.799539,789.323725 L791.90448,789.323725 L791.90448,999.874888 L931.913092,999.874888 C953.961693,999.874888 968.293283,977.865197 968.293283,954.688228 L968.293283,789.323725 L1055.37228,789.323725 L1055.37228,1006.50244 C1055.37228,1040.6648 1016.8002,1060.50854 994.738633,1060.50854 L704.799539,1060.50854 L704.799539,789.323725 Z M1074.11359,789.323725 L1364.0916,789.323725 C1398.26693,789.323725 1425.82768,810.243956 1425.82768,852.732906 L1425.82768,1061.05327 L1338.73571,1061.598 L1338.73571,896.246467 C1338.73571,873.134346 1331.00573,859.347486 1301.24012,859.347486 L1170.05095,859.347486 L1170.05095,1062.20758 L1074.11359,1062.20758 L1074.11359,789.323725 Z M1452.29897,789.323725 L1705.8449,789.323725 C1756.58262,789.323725 1795.72537,830.100666 1795.72537,861.513437 L1795.72537,986.645728 C1795.16767,1008.68136 1764.28666,1061.58503 1725.71458,1061.58503 L1452.31194,1061.58503 L1452.31194,789.323725 L1452.29897,789.323725 Z M1541.0381,1000.99029 L1674.86013,1000.99029 C1694.1332,1000.99029 1709.03546,986.658698 1709.03546,968.993878 L1709.03546,889.631887 C1709.03546,870.332877 1693.17344,858.802756 1672.81091,858.802756 L1541.0381,858.802756 L1541.0381,1000.99029 Z M1903.23175,788.169416 L2174.98724,788.169416 L2174.98724,1061.598 L2077.94746,1061.598 L2077.94746,991.081388 L1910.90985,991.081388 L1910.90985,1061.598 L1812.80655,1061.598 L1812.80655,884.093797 C1810.58872,824.588516 1863.5313,788.169416 1903.23175,788.169416 Z M1909.80742,885.261076 L1909.80742,929.306398 L2077.40273,929.306398 L2077.40273,859.827367 L1936.25278,859.827367 C1919.74226,859.840337 1909.80742,869.788147 1909.80742,885.261076 Z M2192.61315,788.778995 L2279.70512,788.778995 L2279.70512,1069.87271 L2192.61315,1069.87271 L2192.61315,788.778995 Z M1145.30463,0.982506381 C783.889166,0.982506381 490.889207,145.647264 490.889207,324.04638 C490.889207,502.458466 783.889166,647.136193 1145.30463,647.136193 C1506.69416,647.136193 1799.70709,502.471435 1799.70709,324.04638 C1799.69412,145.660234 1506.68119,0.982506381 1145.30463,0.982506381 Z M1083.21837,72.8868829 C1157.91125,46.4804416 1379.82392,72.8868829 1466.02098,114.286372 C1493.60767,140.744693 1343.01573,225.748532 1163.70873,262.595634 C907.348358,314.293117 1029.18633,116.569051 1083.21837,72.8868829 Z M642.9597,455.689493 C586.606072,415.509162 476.259312,300.519226 659.055179,180.976903 C755.615078,124.662184 809.634149,111.977754 876.29874,98.203864 C908.502667,91.2780095 931.48509,99.3452033 902.744091,123.494905 C841.825105,186.722509 715.369898,395.898877 703.891656,441.915603 C694.670153,472.97819 676.291996,480.980535 642.9597,455.689493 Z M1169.41543,589.070556 C1061.37729,600.535828 821.13833,564.920853 816.521094,533.923115 C821.13833,459.152421 1198.1694,335.005831 1265.97533,403.979041 C1294.74226,457.998112 1239.56889,585.607628 1169.41543,589.070556 Z M1718.91843,371.749175 C1691.3058,434.989749 1598.20882,506.297516 1402.80635,554.583951 C1372.8851,561.431987 1362.5482,543.066799 1382.08066,525.817012 C1414.29756,506.284546 1569.48079,246.500156 1589.01326,194.737824 C1600.51744,168.279504 1622.34556,178.668285 1636.15836,188.992218 C1698.24462,229.211459 1745.36378,294.747681 1718.91843,371.749175 Z" id="Shape"></path>
        </g>
    </g>
</svg>