<?xml version="1.0" encoding="UTF-8"?>
<svg width="1970px" height="710px" viewBox="0 0 1970 710" version="1.1" xmlns="http://www.w3.org/2000/svg" xmlns:xlink="http://www.w3.org/1999/xlink">
    <!-- Generator: Sketch 52 (66869) - http://www.bohemiancoding.com/sketch -->
    <title>Path</title>
    <desc>Created with Sketch.</desc>
    <g id="Page-1" stroke="none" stroke-width="1" fill="none" fill-rule="evenodd">
        <g id="nike" fill="#FF0000">
            <path d="M252.340721,32.0398846 C124.186474,182.541036 1.31092158,369.175953 0.0787939156,508.678744 C-0.401087385,561.167383 16.3558488,606.989562 56.5491502,641.696653 C114.394302,691.682127 178.127726,709.308037 241.549877,709.411795 C334.231816,709.541493 426.265268,672.149661 498.325282,643.317873 C619.683372,594.785013 1961.18506,12.2220839 1961.18506,12.2220839 C1974.12889,5.73720144 1971.70354,-2.34296209 1955.50431,1.69063479 C1948.96754,3.32482517 495.069871,397.333313 495.069871,397.333313 C467.530413,405.122026 439.073698,409.195995 410.455125,409.447073 C298.7206,410.108531 199.294383,348.087115 200.098508,217.390795 C200.409782,166.251012 216.064289,104.57978 252.340721,32.0398846 Z" id="Path"></path>
        </g>
    </g>
</svg>