<?xml version="1.0" encoding="iso-8859-1"?>
<!-- Generator: Adobe Illustrator 19.0.0, SVG Export Plug-In . SVG Version: 6.00 Build 0)  -->
<svg version="1.1" id="Layer_1" xmlns="http://www.w3.org/2000/svg" xmlns:xlink="http://www.w3.org/1999/xlink" x="0px" y="0px"
	 viewBox="0 0 508.084 508.084" style="enable-background:new 0 0 508.084 508.084;" xml:space="preserve">
<path style="fill:#194F82;" d="M504.592,446.784l-28.1-38.9c-2.6-3.7-6.9-5.8-11.4-5.8h-2.2c10.3-183.4-23.8-306.2-102-364.9
	c-80.1-60.2-174.9-30.2-186.7-26.1c-3.9,0.7-7.3,3-9.4,6.4l-119.5,191.8c-3.5,5.7-2.6,13.1,2.3,17.7l47.3,44.8
	c4.7,4.5,11.9,5.1,17.3,1.6l64.3-41.7c1.9-0.2,4.4-0.6,7.4-1.1c-0.1,14.4-5.1,38.8-32.3,64.4c-19.3,18.2-32.2,40.7-37.3,65.2
	c-2.9,13.8-2.7,28.5,0.2,42h-71.6c-4.5,0-8.8,2.2-11.4,5.8l-28.1,38.8c-1.7,2.4-2.7,5.3-2.7,8.3v38.9c0,7.8,6.3,14.1,14.1,14.1
	h478.5c7.8,0,14.1-6.3,14.1-14.1v-38.9C507.292,452.084,506.392,449.184,504.592,446.784z M423.592,202.784
	c3.2,14.5,5.8,29.9,7.8,46.2l-48-24.7c1.7-14.3,2.5-27.9,2.5-40.9L423.592,202.784z M380.692,254.584l54,27.8
	c0.9,12.7,1.4,26,1.7,39.7l-56.5-29.1C379.692,278.284,380.092,264.984,380.692,254.584z M436.492,353.784
	c-0.2,12.9-0.6,26.2-1.3,39.9l-45.7-23.6c-3.9-14.1-6.4-29.4-7.8-44.6L436.492,353.784z M413.692,166.084l-29.6-15.3
	c-4.3-34.8-15.7-63.7-34.4-86.4C377.892,87.684,399.192,121.784,413.692,166.084z M141.792,365.884c3.9-18.8,14-36.3,29.1-50.5
	c38.8-36.5,42.4-73.2,40.8-92.5c15.3-5.9,31.8-15.7,42.9-31.8c14.3-20.8,16.6-47.2,6.7-78.4c-2.3-7.4-10.3-11.5-17.7-9.2
	c-7.4,2.4-11.5,10.3-9.2,17.7c7.1,22.4,6.1,40.5-3,53.8c-17.6,25.7-60.1,28.7-60.5,28.7c-2.4,0.1-4.8,0.9-6.8,2.2l-58,37.6
	l-30.9-29.3l110-176.5c20.6-2.5,90.1-7.1,133.9,34.8c33.3,31.8,45.2,84.2,35.4,156c-0.6,4.9-12.4,108.3,16.7,173.4h-159.9
	c0-46.4,29.3-75.7,30.8-77.1c5.6-5.4,5.8-14.3,0.4-19.9c-5.4-5.6-14.3-5.8-19.9-0.5c-1.7,1.7-39.3,38.6-39.4,97.5h-39.8
	C139.492,389.384,139.792,375.584,141.792,365.884z M479.192,479.884h-450.4v-20.2l21.3-29.4h407.8l21.3,29.4L479.192,479.884
	L479.192,479.884z"/>
<g>
	<path style="fill:#FFFFFF;" d="M379.892,292.984l56.5,29.1c-0.3-13.7-0.8-26.9-1.7-39.7l-54-27.8
		C380.092,264.984,379.692,278.284,379.892,292.984z"/>
	<path style="fill:#FFFFFF;" d="M385.992,183.484c0,13-0.9,26.6-2.5,40.9l48,24.7c-2-16.3-4.6-31.7-7.8-46.2L385.992,183.484z"/>
	<path style="fill:#FFFFFF;" d="M435.192,393.684c0.7-13.7,1.1-27,1.3-39.9l-54.8-28.3c1.4,15.2,3.9,30.5,7.8,44.6L435.192,393.684z
		"/>
	<path style="fill:#FFFFFF;" d="M349.692,64.384c18.6,22.7,30.1,51.6,34.4,86.4l29.6,15.3
		C399.192,121.784,377.892,87.684,349.692,64.384z"/>
</g>
<polygon style="fill:#FFC10D;" points="50.092,430.284 28.792,459.584 28.792,479.884 479.192,479.884 479.192,459.584 
	457.892,430.284 "/>
<path style="fill:#56ACE0;" d="M143.492,402.084h39.8c0-58.9,37.6-95.8,39.4-97.5c5.6-5.4,14.5-5.2,19.9,0.5
	c5.4,5.6,5.2,14.5-0.4,19.9c-1.5,1.5-30.8,30.7-30.8,77.1h159.9c-29-65.1-17.2-168.5-16.7-173.4c9.8-71.8-2.1-124.2-35.4-156
	c-43.9-41.9-113.3-37.3-133.9-34.8l-110,176.5l30.9,29.3l58-37.6c2.1-1.3,4.4-2.1,6.8-2.2c0.4,0,42.9-3,60.5-28.7
	c9.1-13.3,10.1-31.4,3-53.8c-2.4-7.4,1.7-15.3,9.2-17.7c7.4-2.4,15.3,1.7,17.7,9.2c9.9,31.2,7.6,57.5-6.7,78.4
	c-11.1,16.1-27.6,25.9-42.9,31.8c1.5,19.3-2.1,56-40.8,92.5c-15.1,14.2-25.1,31.6-29.1,50.5
	C139.792,375.584,139.492,389.384,143.492,402.084z"/>
<path style="fill:#194F82;" d="M191.692,109.384h-18.2c-7.8,0-14.1,6.3-14.1,14.1s6.3,14.1,14.1,14.1h18.2c7.8,0,14.1-6.3,14.1-14.1
	S199.392,109.384,191.692,109.384z"/>
<g>
</g>
<g>
</g>
<g>
</g>
<g>
</g>
<g>
</g>
<g>
</g>
<g>
</g>
<g>
</g>
<g>
</g>
<g>
</g>
<g>
</g>
<g>
</g>
<g>
</g>
<g>
</g>
<g>
</g>
</svg>
