<?xml version="1.0" encoding="UTF-8"?>
<svg width="1020px" height="1020px" viewBox="0 0 1020 1020" version="1.1" xmlns="http://www.w3.org/2000/svg" xmlns:xlink="http://www.w3.org/1999/xlink">
    <!-- Generator: Sketch 52 (66869) - http://www.bohemiancoding.com/sketch -->
    <title>volkswagen</title>
    <desc>Created with Sketch.</desc>
    <g id="Page-1" stroke="none" stroke-width="1" fill="none" fill-rule="evenodd">
        <g id="volkswagen" transform="translate(-241.000000, -241.000000)">
            <g id="Group" transform="translate(0.770367, 0.497701)">
                <g>
                    <g>
                        <polygon id="Path" points="0 0 1500 0 1500 1500 0 1500"></polygon>
                        <path d="M750.419394,1212.9722 C496.728536,1212.9722 288.885423,1004.11025 288.885423,750.419394 C288.885423,693.364421 299.073811,639.365966 318.431748,588.424026 L588.424026,1131.4651 C591.480543,1138.59697 596.574737,1144.71 604.725447,1144.71 C612.876157,1144.71 617.970351,1138.59697 621.026868,1131.4651 L745.3252,853.322111 C746.344038,850.265595 748.381716,847.209078 751.438232,847.209078 C754.494749,847.209078 755.513587,850.265595 757.551265,853.322111 L881.849597,1131.4651 C884.906113,1138.59697 890.000307,1144.71 898.151018,1144.71 C906.301728,1144.71 911.395922,1138.59697 914.452438,1131.4651 L1184.44472,588.424026 C1203.80265,639.365966 1213.99104,693.364421 1213.99104,750.419394 C1211.95336,1004.11025 1004.11025,1212.9722 750.419394,1212.9722 Z M750.419394,645.478998 C747.362877,645.478998 746.344038,642.422482 744.306361,639.365966 L599.631253,313.337554 C646.497837,296.017295 697.439777,286.847745 750.419394,286.847745 C803.39901,286.847745 854.34095,296.017295 901.207534,313.337554 L756.532426,639.365966 C754.494749,643.441321 753.47591,645.478998 750.419394,645.478998 Z M602.687769,980.676959 C599.631253,980.676959 598.612414,977.620443 596.574737,974.563927 L362.241816,501.822729 C404.014206,437.635886 460.050339,383.63743 528.312538,345.940395 L697.439777,721.891908 C699.477454,728.00494 704.571648,730.042618 709.665842,730.042618 L791.172945,730.042618 C797.285978,730.042618 801.361333,729.023779 804.417849,721.891908 L973.545088,345.940395 C1040.78845,383.63743 1097.84342,437.635886 1139.61581,501.822729 L903.245212,974.563927 C902.226373,977.620443 900.188695,980.676959 897.132179,980.676959 C894.075663,980.676959 893.056824,977.620443 891.019146,974.563927 L802.380172,772.833847 C799.323655,765.701975 795.2483,764.683137 789.135267,764.683137 L707.628164,764.683137 C701.515132,764.683137 697.439777,765.701975 694.38326,772.833847 L608.800802,974.563927 C607.781963,977.620443 605.744286,980.676959 602.687769,980.676959 Z M750.419394,1259.83879 C1032.63774,1259.83879 1259.83879,1032.63774 1259.83879,750.419394 C1259.83879,468.20105 1032.63774,241 750.419394,241 C468.20105,241 241,468.20105 241,750.419394 C241,1032.63774 468.20105,1259.83879 750.419394,1259.83879 Z" id="Shape" fill="#FFFFFF" fill-rule="nonzero"></path>
                    </g>
                </g>
            </g>
        </g>
    </g>
</svg>