<?xml version="1.0" encoding="UTF-8"?>
<svg width="2256px" height="1177px" viewBox="0 0 2256 1177" version="1.1" xmlns="http://www.w3.org/2000/svg" xmlns:xlink="http://www.w3.org/1999/xlink">
    <!-- Generator: Sketch 52 (66869) - http://www.bohemiancoding.com/sketch -->
    <title>panavision</title>
    <desc>Created with Sketch.</desc>
    <g id="Page-1" stroke="none" stroke-width="1" fill="none" fill-rule="evenodd">
        <g id="panavision" fill-rule="nonzero">
            <path d="M2035.63963,847.902841 L38.4514723,847.902841 L38.4514723,35.8788313 L2035.63963,35.8788313 L2035.63963,847.902841 Z M3.16074208,0.588101019 L3.16074208,883.193571 L2070.9563,883.193571 L2070.9563,0.588101019 L3.16074208,0.588101019 Z" id="Shape" fill="#FFFFFF"></path>
            <path d="M1293.35404,311.175061 C1293.35404,258.193571 1250.26848,215.082073 1197.24809,215.082073 L850.04748,215.082073 C797.05302,215.082073 753.954492,258.193571 753.954492,311.175061 L789.258192,311.175061 C789.30108,277.614782 816.500162,250.421501 850.060449,250.385773 L1197.26106,250.385773 C1230.82641,250.414354 1258.03338,277.609724 1258.07628,311.175061 L1293.35404,311.175061 Z M753.941522,561.867646 C753.941522,614.849136 797.040051,657.960634 850.03451,657.960634 L1197.23512,657.960634 C1250.25551,657.960634 1293.34107,614.849136 1293.34107,561.867646 L1258.05034,561.867646 C1258.00744,595.432983 1230.80047,622.628353 1197.23512,622.656934 L850.03451,622.656934 C816.471264,622.62834 789.268006,595.430885 789.232252,561.867646 L753.941522,561.867646 Z" id="Shape" fill="#FFFFFF"></path>
            <path d="M446.039304,313.185374 L446.039304,148.573118 L1596.01648,148.4953 L1595.91272,307.815892 L1631.20345,307.815892 L1631.20345,113.20457 L410.748573,113.20457 L410.748573,313.185374 L446.039304,313.185374 Z M446.039304,542.101724 L446.039304,726.090809 L1596.01648,726.142688 L1595.91272,547.458237 L1631.20345,547.458237 L1631.20345,761.446388 L410.748573,761.446388 L410.748573,542.101724 L446.039304,542.101724 Z M2121.59026,126.044637 C2121.59026,91.3764552 2147.73731,65.2164394 2181.25118,65.2164394 C2214.36299,65.2164394 2240.523,91.3764552 2240.523,126.044637 C2240.523,161.296458 2214.35002,187.248957 2181.25118,187.248957 C2147.73731,187.248957 2121.59026,161.296458 2121.59026,126.044637 Z M2181.25118,199.453506 C2221.14617,199.453506 2255.24369,168.468738 2255.24369,126.044637 C2255.24369,84.0096288 2221.14617,53.0248604 2181.25118,53.0248604 C2140.95412,53.0248604 2106.88255,84.0096288 2106.88255,126.044637 C2106.86958,168.468738 2140.94115,199.453506 2181.25118,199.453506 Z M2165.73934,131.855091 L2180.46002,131.855091 L2202.75505,168.468738 L2217.07367,168.468738 L2193.05366,131.271452 C2205.46573,129.72805 2214.94663,123.139409 2214.94663,108.029633 C2214.94663,91.3764552 2205.06367,84.0096288 2185.12914,84.0096288 L2152.96412,84.0096288 L2152.96412,168.468738 L2165.75231,168.468738 L2165.75231,131.855091 L2165.73934,131.855091 Z M2165.73934,121.012368 L2165.73934,94.8523522 L2183.1707,94.8523522 C2192.0939,94.8523522 2201.58777,96.7978169 2201.58777,107.264417 C2201.58777,120.234182 2191.88638,121.012368 2181.04366,121.012368 L2165.73934,121.012368 Z M488.748739,453.414472 L530.342775,395.906535 L535.828986,453.414472 L488.748739,453.414472 Z M570.665774,348.489074 L519.279566,348.489074 L387.130631,531.233061 L432.47293,531.233061 L462.484965,489.729814 L540.238706,489.729814 L544.622486,531.233061 L589.964784,531.233061 L570.665774,348.489074 Z M773.850111,531.233061 L731.95777,531.233061 L683.956671,421.807155 L649.275519,531.233061 L607.409118,531.233061 L665.319118,348.489074 L706.861275,348.489074 L755.251468,458.822864 L789.88074,348.489074 L831.760111,348.489074 L773.850111,531.233061 Z M894.235469,453.414472 L934.000768,395.906535 L939.240553,453.414472 L894.235469,453.414472 Z M972.572849,348.489074 L923.430409,348.489074 L797.05302,531.233061 L840.410944,531.233061 L869.113034,489.729814 L943.455726,489.729814 L947.64496,531.233061 L991.002884,531.233061 L972.572849,348.489074 Z M1208.7393,348.489074 L1082.36191,531.233061 L1033.21947,531.233061 L1014.77646,348.489074 L1058.14736,348.489074 L1071.80452,483.815601 L1165.38137,348.489074 L1208.7393,348.489074 Z M1218.19426,531.233061 L1173.81172,531.233061 L1235.18465,348.489074 L1279.59312,348.489074 L1218.19426,531.233061 Z M1432.0138,505.37135 C1429.73112,512.426902 1424.99716,518.496752 1417.773,523.60684 C1410.54884,528.703957 1403.07825,531.233061 1395.34827,531.233061 L1253.87408,531.233061 L1265.62469,494.91772 L1392.66353,494.91772 L1407.96786,447.642927 L1309.15122,447.642927 C1301.42124,447.642927 1295.62375,445.048974 1291.74579,439.848098 C1287.86783,434.647222 1287.08965,428.512524 1289.35936,421.444002 L1304.58586,374.363755 C1306.86854,367.308203 1311.6025,361.225383 1318.82666,356.128266 C1326.05082,351.031148 1333.52141,348.476105 1341.25139,348.476105 L1482.72558,348.476105 L1471.00091,384.791446 L1343.93613,384.791446 L1335.35014,411.314615 L1434.16678,411.314615 C1441.89676,411.314615 1447.69425,413.921538 1451.57221,419.109444 C1455.42423,424.29735 1456.22835,430.419079 1453.95864,437.474631 L1432.0138,505.37135 Z M1510.99967,531.233061 L1466.61713,531.233061 L1528.00303,348.489074 L1572.3726,348.489074 L1510.99967,531.233061 Z M1617.70192,494.91772 L1651.69568,384.804416 L1732.22495,384.804416 L1698.23119,494.91772 L1617.70192,494.91772 Z M1776.21839,374.428604 C1778.42325,367.360082 1777.63209,361.264293 1773.88383,356.154205 C1770.16151,351.031148 1764.58451,348.489074 1757.21768,348.489074 L1649.12766,348.489074 C1641.7349,348.489074 1634.58856,351.044118 1627.70161,356.154205 C1620.81467,361.264293 1616.27525,367.347112 1614.09633,374.428604 L1573.69551,505.293532 C1571.51659,512.375023 1572.28181,518.457843 1576.03007,523.5809 C1579.75239,528.703957 1585.32939,531.233061 1592.69622,531.233061 L1700.81218,531.233061 C1708.179,531.233061 1715.32534,528.690988 1722.21229,523.5809 C1729.09923,518.470813 1733.63865,512.375023 1735.84351,505.293532 L1776.21839,374.428604 Z M1931.50539,531.233061 L1890.46905,531.233061 L1843.40177,421.807155 L1809.43396,531.233061 L1768.37168,531.233061 L1825.14034,348.489074 L1865.83947,348.489074 L1913.2699,458.822864 L1947.21177,348.489074 L1988.27405,348.489074 L1931.50539,531.233061 Z M396.754197,338.359688 L214.684638,338.359688 L182.701197,430.094835 L110.381788,430.094835 L93.4173359,476.448775 L166.54087,476.448775 L147.436407,531.233061 L202.207724,531.233061 L224.113657,476.254228 L360.101641,477.79763 C370.049451,477.79763 379.543319,474.464401 388.583245,467.772002 C397.623171,461.079603 403.446596,453.116168 406.040549,443.907635 L423.497852,372.690656 C426.091805,363.469153 424.768889,355.453838 419.529104,348.605802 C414.302289,341.770736 406.714976,338.359688 396.754197,338.359688 Z M353.253606,432.079209 L240.261014,432.079209 L254.086783,386.749881 L367.092345,385.945755 L353.253606,432.079209 Z M2071.20272,1176.90687 L0.437091452,1176.90687 L0.437091452,1006.27664 L2071.20272,1006.27664 L2071.20272,1176.90687 Z" id="Shape" fill="#FFFFFF"></path>
            <path d="M117.126066,1102.86248 L128.47461,1105.49534 C126.088174,1114.10727 121.795181,1120.72185 115.621573,1125.24829 C109.422026,1129.81365 101.860653,1132.08336 92.9244848,1132.08336 C83.6770425,1132.08336 76.1416091,1130.33244 70.3441242,1126.84357 C64.4685843,1123.26303 59.8434381,1117.95385 57.1019942,1111.64301 C54.0632341,1104.95255 52.5143712,1097.68175 52.5625765,1090.33369 C52.5625765,1082.04601 54.2616157,1074.83482 57.6986034,1068.64824 C61.0044842,1062.5693 66.0978379,1057.65251 72.2895889,1054.56307 C78.7520279,1051.32758 85.8922626,1049.67812 93.1190313,1049.75129 C101.717985,1049.75129 108.942144,1051.77458 114.804478,1055.83411 C120.666812,1059.86771 124.752288,1065.56144 127.047936,1072.90232 L115.82909,1075.35361 C113.844716,1069.58206 110.965428,1065.35392 107.165287,1062.70809 C103.378115,1060.07522 98.6052419,1058.75231 92.8726058,1058.75231 C86.2839652,1058.75231 80.7588454,1060.21789 76.3231858,1063.16203 C72.0039775,1065.9581 68.7230101,1070.09577 66.9849551,1074.93858 C65.1935801,1079.8509 64.2804243,1085.04008 64.287244,1090.26884 C64.287244,1097.01312 65.3507647,1102.9403 67.4778061,1107.97257 C69.6048476,1113.04374 72.9121376,1116.81795 77.412646,1119.29517 C81.9131545,1121.79834 86.7638465,1123.06937 92.0036315,1123.06937 C98.3717861,1123.06937 103.754239,1121.37033 108.176928,1117.94632 C112.586648,1114.60012 115.569694,1109.55488 117.126066,1102.86248 Z M218.860902,1074.82185 C220.754488,1069.75067 222.310859,1064.61464 223.517047,1059.41377 C224.904812,1063.84943 226.992944,1069.37455 229.755504,1076.05397 L238.717612,1098.03773 L209.418913,1098.03773 L218.860902,1074.82185 Z M196.708543,1130.78638 L206.059744,1106.67559 L242.193509,1106.67559 L252.154288,1130.78638 L265.111083,1130.78638 L230.079748,1051.24281 L217.654714,1051.24281 L184.685571,1130.78638 L196.708543,1130.78638 Z M325.355641,1130.78638 L325.355641,1051.24281 L342.449791,1051.24281 L362.799353,1107.53159 C364.679968,1112.77138 366.041794,1116.70122 366.897798,1119.30814 C367.8835,1116.41588 369.426902,1112.18774 371.502065,1106.59777 L392.227749,1051.24281 L407.415344,1051.24281 L407.415344,1130.78638 L396.442923,1130.78638 L396.442923,1064.13476 L371.398307,1130.78638 L361.152192,1130.78638 L336.302123,1063.09718 L336.302123,1130.78638 L325.355641,1130.78638 Z M477.581772,1130.78638 L477.581772,1051.24281 L539.797734,1051.24281 L539.797734,1060.61995 L488.930316,1060.61995 L488.930316,1084.88638 L536.542323,1084.88638 L536.542323,1094.27649 L488.930316,1094.27649 L488.930316,1121.40924 L541.756168,1121.40924 L541.756168,1130.78638 L477.581772,1130.78638 Z M620.443732,1059.9585 L647.615389,1059.9585 C653.957604,1059.9585 658.61375,1061.17765 661.557887,1063.603 C664.502023,1066.01538 665.967607,1069.12812 665.967607,1072.87638 C665.977732,1078.40391 662.327732,1083.27058 657.018469,1084.80857 C654.100272,1085.82021 650.040735,1086.30009 644.852829,1086.30009 L620.430762,1086.30009 L620.430762,1059.9585 L620.443732,1059.9585 Z M620.443732,1130.78638 L620.443732,1095.44377 L633.621013,1095.44377 C636.55218,1095.44377 638.653282,1095.57347 639.937289,1095.79396 C641.701177,1096.17008 643.426155,1096.88342 645.125195,1097.89506 C646.811264,1098.9067 648.730789,1100.68356 650.88377,1103.21266 C653.036751,1105.76771 655.760402,1109.42518 659.080662,1114.21102 L670.442176,1130.77341 L684.631098,1130.77341 L669.767748,1109.08797 C666.810641,1104.85982 663.671958,1101.30611 660.351699,1098.45276 C658.795327,1097.15578 656.525618,1095.84584 653.516632,1094.52292 C661.752433,1093.4594 667.835253,1091.00811 671.791031,1087.13015 C675.73384,1083.27813 677.705244,1078.51823 677.705244,1072.86341 C677.705244,1068.50557 676.512026,1064.49791 674.125589,1060.87935 C671.862775,1057.38498 668.512871,1054.7324 664.592812,1053.33095 C660.611094,1051.91724 654.787669,1051.22984 647.135508,1051.22984 L609.095188,1051.22984 L609.095188,1130.77341 L620.443732,1130.77341 L620.443732,1130.78638 Z M771.995435,1074.82185 C773.88902,1069.75067 775.458362,1064.61464 776.65158,1059.41377 C778.052315,1063.84943 780.140447,1069.37455 782.890037,1076.05397 L791.852145,1098.03773 L762.553446,1098.03773 L771.995435,1074.82185 Z M749.856046,1130.78638 L759.194277,1106.67559 L795.328042,1106.67559 L805.301791,1130.78638 L818.245616,1130.78638 L783.214281,1051.24281 L770.802216,1051.24281 L737.833074,1130.78638 L749.856046,1130.78638 Z M875.105065,1105.09328 L885.805122,1104.30212 C886.310942,1108.2579 887.491191,1111.52628 889.332898,1114.08133 C891.187574,1116.66231 894.053892,1118.73747 897.957791,1120.30681 C901.848721,1121.90209 906.232501,1122.69325 911.109133,1122.69325 C915.428064,1122.69325 919.241175,1122.08367 922.561435,1120.86451 C925.881695,1119.64535 928.34595,1117.99819 929.954201,1115.92303 C931.562452,1113.84787 932.379547,1111.59113 932.379547,1109.13985 C932.379547,1106.66262 931.575422,1104.4837 929.99311,1102.62902 C928.410799,1100.77435 925.816846,1099.20501 922.263131,1097.921 C919.954512,1097.11687 914.896304,1095.8199 907.049596,1094.06898 C899.215858,1092.31806 893.703708,1090.64496 890.539086,1089.07562 C886.45361,1087.07828 883.392745,1084.61402 881.382432,1081.68285 C879.372118,1078.75169 878.373446,1075.43143 878.373446,1071.74801 C878.373446,1067.71442 879.605574,1063.94021 882.056859,1060.47729 C884.508145,1056.97545 888.10077,1054.31665 892.808795,1052.50088 C897.83282,1050.61913 903.16378,1049.69105 908.52815,1049.76426 C914.870365,1049.76426 920.473303,1050.72402 925.323995,1052.63058 C930.174687,1054.5112 933.909979,1057.31266 936.516902,1061.00905 C939.123825,1064.67949 940.52456,1068.85576 940.719106,1073.52487 L929.759655,1074.31603 C929.176015,1069.32267 927.204611,1065.5744 923.845442,1063.01936 C920.486273,1060.46432 915.518853,1059.16734 908.956152,1059.16734 C902.121086,1059.16734 897.140696,1060.33462 894.014983,1062.68215 C890.8763,1065.04264 889.319928,1067.81817 889.319928,1071.11249 C889.319928,1073.95287 890.422358,1076.3004 892.640188,1078.12914 C894.819108,1080.00975 900.499865,1081.90334 909.695428,1083.82286 C918.878022,1085.76833 925.181328,1087.44143 928.631285,1088.89404 C933.650584,1091.02108 937.346967,1093.70582 939.733404,1096.97421 C942.119841,1100.24259 943.313059,1104.01679 943.313059,1108.27087 C943.313059,1112.47307 942.003113,1116.45479 939.39619,1120.20305 C936.776297,1123.95132 933.028035,1126.86951 928.138434,1128.94468 C922.906879,1131.10696 917.287978,1132.17513 911.627923,1132.08336 C903.872004,1132.08336 897.374152,1131.01984 892.134367,1128.91874 C886.894582,1126.7917 882.770197,1123.62707 879.80012,1119.39893 C876.830044,1115.17079 875.260703,1110.41088 875.105065,1105.09328 Z M1117.01712,1075.02936 C1115.66826,1073.5119 1114.65662,1072.05929 1113.9822,1070.69746 C1113.30777,1069.33564 1112.97055,1068.03866 1112.97055,1066.8195 C1112.97055,1064.36822 1113.90438,1062.25415 1115.81093,1060.56808 C1117.71749,1058.88201 1120.09095,1058.01303 1122.93133,1058.01303 C1125.71983,1058.01303 1128.02845,1058.86904 1129.87016,1060.59402 C1131.73094,1062.28977 1132.75089,1064.71867 1132.65866,1067.23453 C1132.65866,1069.54315 1131.9972,1071.64425 1130.63537,1073.5119 C1129.27355,1075.40549 1126.27753,1077.58441 1121.67327,1080.10054 L1117.01712,1075.02936 Z M1156.53599,1132.62809 L1163.57858,1124.87217 C1158.47849,1121.5008 1153.91774,1117.37732 1150.05111,1112.64168 C1153.31949,1108.18008 1155.92641,1102.5123 1157.83297,1095.62535 L1146.88649,1093.44643 C1145.84891,1097.62269 1144.4352,1101.29314 1142.60647,1104.47073 L1127.08166,1086.40385 C1138.02814,1081.03436 1143.50138,1074.54948 1143.50138,1066.97514 C1143.50138,1062.26711 1141.62076,1058.25946 1137.89844,1054.91326 C1134.15018,1051.56706 1129.36434,1049.9199 1123.48903,1049.9199 C1117.35433,1049.9199 1112.27019,1051.67082 1108.21065,1055.18562 C1104.15111,1058.70043 1102.12783,1062.86372 1102.12783,1067.67551 C1102.12783,1070.06194 1102.78929,1072.51323 1104.07329,1075.06827 C1105.3573,1077.62332 1107.95125,1080.99546 1111.82921,1085.11984 C1105.04603,1088.12883 1099.97485,1091.60472 1096.55083,1095.53456 C1093.26347,1099.17298 1091.43863,1103.89909 1091.42777,1108.80263 C1091.42777,1114.35369 1093.52888,1119.36002 1097.70514,1123.84756 C1102.84117,1129.3208 1109.8189,1132.08336 1118.62537,1132.08336 C1123.38527,1132.08336 1127.82093,1131.20142 1131.91938,1129.39862 C1135.99189,1127.59582 1139.79203,1124.91108 1143.29386,1121.34439 C1147.84625,1126.32478 1152.25597,1130.07305 1156.53599,1132.62809 Z M1128.49536,1120.77372 C1125.12322,1122.57652 1121.85484,1123.48441 1118.69022,1123.48441 C1113.61904,1123.48441 1109.72811,1121.75943 1106.93961,1118.2965 C1104.17705,1114.84654 1102.78929,1111.51331 1102.78929,1108.24493 C1102.78929,1105.63801 1103.77499,1102.97921 1105.77233,1100.29447 C1107.76968,1097.60972 1111.6217,1094.66559 1117.32839,1091.50096 L1136.60147,1113.77005 C1134.57818,1116.6234 1131.8675,1118.9839 1128.49536,1120.77372 Z M1311.53765,1130.78638 L1311.53765,1051.24281 L1322.91214,1051.24281 L1322.91214,1121.40924 L1365.29733,1121.40924 L1365.29733,1130.78638 L1311.53765,1130.78638 Z M1430.67791,1130.78638 L1430.67791,1051.24281 L1492.91982,1051.24281 L1492.91982,1060.61995 L1442.02646,1060.61995 L1442.02646,1084.88638 L1489.65143,1084.88638 L1489.65143,1094.27649 L1442.02646,1094.27649 L1442.02646,1121.40924 L1494.86528,1121.40924 L1494.86528,1130.78638 L1430.67791,1130.78638 Z M1561.9449,1130.78638 L1561.9449,1051.24281 L1573.66957,1051.24281 L1618.68763,1113.7052 L1618.68763,1051.24281 L1629.63411,1051.24281 L1629.63411,1130.78638 L1617.92241,1130.78638 L1572.89139,1068.31103 L1572.89139,1130.78638 L1561.9449,1130.78638 Z M1696.55809,1105.09328 L1707.27112,1104.30212 C1707.77694,1108.2579 1708.94422,1111.52628 1710.78593,1114.08133 C1712.6406,1116.66231 1715.49395,1118.73747 1719.39785,1120.30681 C1723.30175,1121.90209 1727.68553,1122.69325 1732.54919,1122.69325 C1736.88109,1122.69325 1740.70717,1122.08367 1744.02743,1120.86451 C1747.32175,1119.64535 1749.77304,1117.99819 1751.39426,1115.92303 C1753.01548,1113.84787 1753.83258,1111.59113 1753.83258,1109.13985 C1753.83258,1106.66262 1753.04142,1104.4837 1751.44614,1102.62902 C1749.85086,1100.77435 1747.26987,1099.20501 1743.69022,1097.921 C1741.40754,1097.11687 1736.34933,1095.8199 1728.48966,1094.06898 C1720.62998,1092.31806 1715.14377,1090.64496 1711.97914,1089.07562 C1707.8807,1087.07828 1704.8328,1084.61402 1702.83546,1081.68285 C1700.83812,1078.75169 1699.82647,1075.43143 1699.82647,1071.74801 C1699.82647,1067.71442 1701.04563,1063.94021 1703.49692,1060.47729 C1705.9482,1056.97545 1709.5538,1054.31665 1714.26182,1052.50088 C1718.96985,1050.68511 1724.2226,1049.76426 1729.96821,1049.76426 C1736.32339,1049.76426 1741.92633,1050.72402 1746.76405,1052.63058 C1751.62772,1054.5112 1755.35004,1057.31266 1757.9829,1061.00905 C1760.58982,1064.67949 1761.99056,1068.85576 1762.1851,1073.52487 L1751.21268,1074.31603 C1750.62904,1069.32267 1748.65764,1065.5744 1745.31144,1063.01936 C1741.9393,1060.46432 1736.97188,1059.16734 1730.42215,1059.16734 C1723.58708,1059.16734 1718.59372,1060.33462 1715.48098,1062.68215 C1712.3423,1065.04264 1710.7989,1067.81817 1710.7989,1071.11249 C1710.7989,1073.95287 1711.88836,1076.3004 1714.11916,1078.12914 C1716.29808,1080.00975 1721.96586,1081.90334 1731.13549,1083.82286 C1740.33105,1085.76833 1746.6603,1087.44143 1750.11025,1088.89404 C1755.12955,1091.02108 1758.82594,1093.70582 1761.1994,1096.97421 C1763.57287,1100.24259 1764.79203,1104.01679 1764.79203,1108.27087 C1764.79203,1112.47307 1763.46911,1116.45479 1760.86219,1120.20305 C1758.25527,1123.95132 1754.507,1126.86951 1749.6174,1128.94468 C1744.38553,1131.1059 1738.76685,1132.17403 1733.10689,1132.08336 C1725.32503,1132.08336 1718.84015,1131.01984 1713.60037,1128.91874 C1708.36058,1126.7917 1704.24916,1123.62707 1701.26612,1119.39893 C1698.28307,1115.17079 1696.70076,1110.41088 1696.55809,1105.09328 Z M1832.26074,1130.78638 L1832.26074,1051.24281 L1894.46374,1051.24281 L1894.46374,1060.61995 L1843.60929,1060.61995 L1843.60929,1084.88638 L1891.2213,1084.88638 L1891.2213,1094.27649 L1843.60929,1094.27649 L1843.60929,1121.40924 L1896.44811,1121.40924 L1896.44811,1130.78638 L1832.26074,1130.78638 Z M1959.87026,1105.09328 L1970.55735,1104.30212 C1970.8806,1107.8072 1972.09012,1111.17244 1974.07215,1114.08133 C1975.92683,1116.66231 1978.78018,1118.73747 1982.68408,1120.30681 C1986.58798,1121.90209 1990.97176,1122.69325 1995.83542,1122.69325 C2000.16732,1122.69325 2003.9934,1122.08367 2007.31366,1120.86451 C2010.60798,1119.64535 2013.08521,1117.99819 2014.68049,1115.92303 C2016.24767,1114.00882 2017.10861,1111.61374 2017.1188,1109.13985 C2017.1188,1106.66262 2016.32765,1104.4837 2014.73237,1102.62902 C2013.13709,1100.77435 2010.5561,1099.20501 2006.97645,1097.921 C2004.69377,1097.11687 1999.63556,1095.8199 1991.77588,1094.06898 C1983.9162,1092.31806 1978.42999,1090.64496 1975.26537,1089.07562 C1971.19287,1087.07828 1968.11903,1084.61402 1966.12169,1081.68285 C1964.12434,1078.75169 1963.1127,1075.43143 1963.1127,1071.74801 C1963.1127,1067.71442 1964.3578,1063.94021 1966.78315,1060.47729 C1969.23443,1056.97545 1972.84003,1054.31665 1977.54805,1052.50088 C1982.25608,1050.68511 1987.50883,1049.76426 1993.28038,1049.76426 C1999.60962,1049.76426 2005.21256,1050.72402 2010.05028,1052.63058 C2014.91394,1054.5112 2018.63627,1057.31266 2021.26913,1061.00905 C2023.85011,1064.67949 2025.27679,1068.85576 2025.47133,1073.52487 L2014.49891,1074.31603 C2013.91527,1069.32267 2011.94387,1065.5744 2008.57173,1063.01936 C2005.22553,1060.46432 2000.25811,1059.16734 1993.70838,1059.16734 C1986.87331,1059.16734 1981.87995,1060.33462 1978.76721,1062.68215 C1975.62853,1065.04264 1974.08512,1067.81817 1974.08512,1071.11249 C1974.08512,1073.95287 1975.17458,1076.3004 1977.40538,1078.12914 C1979.5843,1080.00975 1985.25209,1081.90334 1994.44765,1083.82286 C2003.61728,1085.76833 2009.94652,1087.44143 2013.39648,1088.89404 C2018.38984,1091.02108 2022.11216,1093.70582 2024.48563,1096.97421 C2026.8591,1100.24259 2028.07825,1104.01679 2028.07825,1108.27087 C2028.07825,1112.47307 2026.75534,1116.45479 2024.14842,1120.20305 C2021.54149,1123.95132 2017.79323,1126.86951 2012.90363,1128.94468 C2007.67176,1131.1059 2002.05308,1132.17403 1996.39312,1132.08336 C1988.6372,1132.08336 1982.12638,1131.01984 1976.88659,1128.91874 C1971.64681,1126.7917 1967.53539,1123.62707 1964.55235,1119.39893 C1961.5693,1115.17079 1960.0259,1110.41088 1959.87026,1105.09328 Z" id="Shape" fill="#000000"></path>
        </g>
    </g>
</svg>